{
.appVersion = "3091";
.storedFileType = com.schriftgestaltung.glyphs;
.formatVersion = 3;
DisplayStrings = (
"HAMBEROQSK
ILUG ilunx -
hambe oqsk 
5Hams8Robbers
GO",
"an. home: Hi, hex; Oh! axe?!  a&b eißse #58 8% 
no Mo |all[all](bah){hal}
[H](H){H}
-n–m—m+5=8
H~n <ome>
f",
"ABCDEFGHIJKLMNOPQRSTUVWXYZ
abcdefgḣijklmnopqrsßtuvwxyz
58 .,<>()[]{}|-–—
&?!#%",
".,:;!?#-–—(){}[]@&|+=><~%58*",
"Hello” ‘Guys’",
"ecfg/g.001 qdt",
"\"",
"",
"’",
"",
c,
"/g.001"
);
axes = (
{
name = Weight;
tag = wght;
}
);
date = "2021-05-25 17:54:18 +0000";
familyName = NP_proportional;
featurePrefixes = (
{
automatic = 1;
code = "languagesystem DFLT dflt;
";
name = Languagesystems;
}
);
features = (
{
automatic = 1;
code = "feature ss01;
";
tag = aalt;
},
{
automatic = 1;
code = "sub a by a.ss01;
sub b by b.ss01;
sub m by m.ss01;
sub n by n.ss01;
sub q by q.ss01;
sub r by r.ss01;
sub s by s.ss01;
sub u by u.ss01;
sub asterisk by asterisk.ss01;
";
labels = (
{
language = dflt;
value = "";
}
);
tag = ss01;
}
);
fontMaster = (
{
axesValues = (
300
);
customParameters = (
{
name = hheaAscender;
value = 0;
},
{
name = hheaDescender;
value = -170;
},
{
name = hheaLineGap;
value = 0;
},
{
name = typoAscender;
value = 0;
},
{
name = typoDescender;
value = -170;
},
{
name = typoLineGap;
value = 0;
},
{
name = winAscent;
value = 765;
},
{
name = winDescent;
value = 170;
},
{
name = "Master Icon Glyph Name";
value = a;
}
);
guides = (
{
pos = (174,717);
},
{
pos = (142,-17);
}
);
iconName = Light;
id = "6E2DD877-F1E1-49A3-9E5D-7A76BAA67C2C";
metricValues = (
{
over = 10;
pos = 720;
},
{
over = 10;
pos = 700;
},
{
over = 10;
pos = 515;
},
{
over = -10;
},
{
over = -10;
pos = -170;
}
);
name = Light;
stemValues = (
45
);
userData = {
GSCornerRadius = 5;
GSOffsetCapStyle = 1;
GSOffsetHorizontal = 22.5;
GSOffsetKeepCompatible = 1;
GSOffsetMakeStroke = 1;
GSOffsetProportional = 1;
GSOffsetVertical = 10;
};
visible = 1;
},
{
axesValues = (
500
);
customParameters = (
{
name = hheaAscender;
value = 0;
},

glyphs = (
{
glyphname = A;
lastChange = "2021-06-22 20:14:33 +0000";
layers = (
{
background = {
shapes = (
{
attr = {
strokeWidth = 1;
};
closed = 0;
nodes = (
(43,0,l),
(305,698,l),
(576,0,l)
);
},
{
attr = {
strokeWidth = 1;
};
closed = 0;
nodes = (
(129,224,l),
(486,224,l)
);
}
);
};
layerId = m01;
shapes = (
{
closed = 1;
nodes = (
(77,0,o),
(91,11,o),
(97,26,cs),
(306,543,l),
(526,25,ls),
(532,10,o),
(546,0,o),
(563,0,cs),
(592,0,o),
(610,30,o),
(600,55,cs),
(344,662,ls),
(334,687,o),
(320,700,o),
(305,700,cs),
(290,700,o),
(275,687,o),
(265,661,cs),
(23,55,ls),
(13,30,o),
(31,0,o),
(60,0,cs)
);
},
{
closed = 1;
nodes = (
(479,184,ls),
(501,184,o),
(519,202,o),
(519,224,cs),
(519,246,o),
(501,264,o),
(479,264,cs),
(136,264,ls),
(114,264,o),
(96,246,o),
(96,224,cs),
(96,202,o),
(114,184,o),
(136,184,cs)
);
}
);
width = 623;
},
{
background = {
shapes = (
{
attr = {
strokeWidth = 1;
};
closed = 0;
nodes = (
(105,0,l),
(367,698,l),
(638,0,l)
);
},
{
attr = {
strokeWidth = 1;
};
closed = 0;
nodes = (
(191,224,l),
(548,224,l)
);
}
);
};
layerId = m004;
shapes = (
{
closed = 1;
nodes = (
(113,0,o),
(136,18,o),
(146,42,cs),
(318,444,l),
(497,41,ls),
(508,17,o),
(530,0,o),
(558,0,cs),
(615,0,o),
(635,51,o),
(619,89,cs),
(383,636,ls),
(365,678,o),
(342,700,o),
(317,700,cs),
(292,700,o),
(269,678,o),
(251,635,cs),
(24,88,ls),
(11,57,o),
(31,0,o),
(85,0,cs)
);
},
{
closed = 1;
nodes = (
(478,159,ls),
(514,159,o),
(543,188,o),
(543,224,cs),
(543,260,o),
(514,289,o),
(478,289,cs),
(161,289,ls),
(125,289,o),
(96,260,o),
(96,224,cs),
(96,188,o),
(125,159,o),
(161,159,cs)
);
}
);
width = 644;
},
{
background = {
shapes = (
{
attr = {
strokeWidth = 1;
};
closed = 0;
nodes = (
(42,0,l),
(304,698,l),
(575,0,l)
);
},
{
attr = {
strokeWidth = 1;
};
closed = 0;
nodes = (
(128,224,l),
(485,224,l)
);
}
);
};
layerId = "6E2DD877-F1E1-49A3-9E5D-7A76BAA67C2C";
shapes = (
{
closed = 1;
nodes = (
(62,0,o),
(70,7,o),
(73,15,cs),
(299,617,l),
(547,15,ls),
(551,6,o),
(558,0,o),
(568,0,cs),
(585,0,o),
(594,18,o),
(589,31,cs),
(326,674,ls),
(319,691,o),
(309,700,o),
(299,700,cs),
(289,700,o),
(280,692,o),
(273,674,cs),
(31,31,ls),
(26,18,o),
(35,0,o),
(52,0,cs)
);
},
{
closed = 1;
nodes = (
(485,202,ls),
(497,202,o),
(508,212,o),
(508,224,cs),
(508,236,o),
(497,247,o),
(485,247,cs),
(128,247,ls),
(116,247,o),
(106,236,o),
(106,224,cs),
(106,212,o),
(116,202,o),
(128,202,cs)
);
}
);
width = 620;
}
);
unicode = 65;
},
{
glyphname = B;
lastChange = "2021-06-23 16:15:51 +0000";
layers = (
{
background = {
shapes = (
{
attr = {
strokeWidth = 1;
};
closed = 0;
nodes = (
(90,700,l),
(90,0,l)
);
},
{
attr = {
strokeWidth = 1;
};
closed = 0;
nodes = (
(94,381,l),
(370,381,l)
);
},
{
attr = {
strokeWidth = 1;
};
closed = 0;
nodes = (
(94,693,l),
(370,693,l)
);
},
{
attr = {
strokeWidth = 1;
};
closed = 0;
nodes = (
(94,5,l),
(370,5,l)
);
},
{
attr = {
strokeWidth = 1;
};
closed = 0;
nodes = (
(364,693,l),
(450,693,o),
(520,623,o),
(520,537,c),
(520,451,o),
(450,381,o),
(364,381,c)
);
},
{
attr = {
strokeWidth = 1;
};
closed = 0;
nodes = (
(364,381,l),
(468,381,o),
(552,297,o),
(552,193,c),
(552,89,o),
(468,5,o),
(364,5,c)
);
}
);
};
layerId = m01;
shapes = (
{
closed = 1;
nodes = (
(130,660,ls),
(130,682,o),
(112,700,o),
(90,700,cs),
(68,700,o),
(50,682,o),
(50,660,cs),
(50,40,ls),
(50,18,o),
(68,0,o),
(90,0,cs),
(112,0,o),
(130,18,o),
(130,40,cs)
);
},
{
closed = 1;
nodes = (
(94,700,ls),
(72,700,o),
(54,682,o),
(54,660,cs),
(54,638,o),
(72,620,o),
(94,620,cs),
(354,620,ls),
(423,620,o),
(470,573,o),
(470,514,cs),
(470,455,o),
(423,421,o),
(354,421,cs),
(94,421,ls),
(72,421,o),
(54,403,o),
(54,381,cs),
(54,359,o),
(72,341,o),
(94,341,cs),
(354,341,ls),
(441,341,o),
(502,290,o),
(502,203,cs),
(502,131,o),
(441,80,o),
(354,80,cs),
(94,80,ls),
(72,80,o),
(54,62,o),
(54,40,cs),
(54,18,o),
(72,0,o),
(94,0,cs),
(364,0,ls),
(485,0,o),
(582,95,o),
(582,203,cs),
(582,284,o),
(540,344,o),
(477,385,c),
(522,421,o),
(550,463,o),
(550,514,cs),
(550,608,o),
(468,700,o),
(365,700,cs)
);
}
);
width = 632;
},
{
background = {
shapes = (
{
attr = {
strokeWidth = 1;
};
closed = 0;
nodes = (
(95,700,l),
(95,0,l)
);
},
{
attr = {
strokeWidth = 1;
};
closed = 0;
nodes = (
(99,381,l),
(375,381,l)
);
},
{
attr = {
strokeWidth = 1;
};
closed = 0;
nodes = (
(99,693,l),
(375,693,l)
);
},
{
attr = {
strokeWidth = 1;
};
closed = 0;
nodes = (
(99,5,l),
(375,5,l)
);
},
{
attr = {
strokeWidth = 1;
};
closed = 0;
nodes = (
(369,693,l),
(455,693,o),
(525,623,o),
(525,537,c),
(525,451,o),
(455,381,o),
(369,381,c)
);
},
{
attr = {
strokeWidth = 1;
};
closed = 0;
nodes = (
(369,381,l),
(473,381,o),
(557,297,o),
(557,193,c),
(557,89,o),
(473,5,o),
(369,5,c)
);
}
);
};
layerId = m004;
shapes = (
{
closed = 1;
nodes = (
(180,635,ls),
(180,671,o),
(151,700,o),
(115,700,cs),
(79,700,o),
(50,671,o),
(50,635,cs),
(50,75,ls),
(50,39,o),
(79,0,o),
(115,0,cs),
(151,0,o),
(180,39,o),
(180,75,cs)
);
},
{
closed = 1;
nodes = (
(119,700,ls),
(83,700,o),
(54,671,o),
(54,635,cs),
(54,599,o),
(83,570,o),
(119,570,cs),
(359,570,ls),
(418,570,o),
(450,548,o),
(450,509,cs),
(450,461,o),
(418,447,o),
(359,447,cs),
(119,447,ls),
(83,447,o),
(54,418,o),
(54,382,cs),
(54,346,o),
(83,317,o),
(119,317,cs),
(359,317,ls),
(436,317,o),
(482,271,o),
(482,233,cs),
(482,186,o),
(436,140,o),
(359,140,cs),
(119,140,ls),
(83,140,o),
(54,111,o),
(54,75,cs),
(54,39,o),
(83,0,o),
(119,0,cs),
(370,0,ls),
(505,0,o),
(612,116,o),
(612,223,cs),
(612,281,o),
(581,342,o),
(531,386,c),
(561,419,o),
(580,461,o),
(580,509,cs),
(580,607,o),
(488,700,o),
(371,700,cs)
);
}
);
width = 662;
},
{
background = {
shapes = (
{
attr = {
strokeWidth = 1;
};
closed = 0;
nodes = (
(72,700,l),
(72,0,l)
);
},
{
attr = {
strokeWidth = 1;
};
closed = 0;
nodes = (
(76,381,l),
(352,381,l)
);
},
{
attr = {
strokeWidth = 1;
};
closed = 0;
nodes = (
(76,693,l),
(352,693,l)
);
},
{
attr = {
strokeWidth = 1;
};
closed = 0;
nodes = (
(76,5,l),
(352,5,l)
);
},
{
attr = {
strokeWidth = 1;
};
closed = 0;
nodes = (
(346,693,l),
(432,693,o),
(502,623,o),
(502,537,c),
(502,451,o),
(432,381,o),
(346,381,c)
);
},
{
attr = {
strokeWidth = 1;
};
closed = 0;
nodes = (
(346,381,l),
(450,381,o),
(534,297,o),
(534,193,c),
(534,89,o),
(450,5,o),
(346,5,c)
);
}
);
};
layerId = "6E2DD877-F1E1-49A3-9E5D-7A76BAA67C2C";
shapes = (
{
closed = 1;
nodes = (
(95,677,ls),
(95,689,o),
(84,700,o),
(72,700,cs),
(60,700,o),
(50,689,o),
(50,677,cs),
(50,23,ls),
(50,11,o),
(60,0,o),
(72,0,cs),
(84,0,o),
(95,11,o),
(95,23,cs)
);
},
{
closed = 1;
nodes = (
(76,700,ls),
(64,700,o),
(54,689,o),
(54,677,cs),
(54,665,o),
(64,655,o),
(76,655,cs),
(346,655,ls),
(423,655,o),
(480,598,o),
(480,527,cs),
(480,460,o),
(423,404,o),
(346,404,cs),
(76,404,ls),
(64,404,o),
(54,393,o),
(54,381,cs),
(54,369,o),
(64,359,o),
(76,359,cs),
(346,359,ls),
(441,359,o),
(512,288,o),
(512,213,cs),
(512,116,o),
(441,46,o),
(346,46,cs),
(76,46,ls),
(64,46,o),
(54,35,o),
(54,23,cs),
(54,11,o),
(64,0,o),
(76,0,cs),
(355,0,ls),
(467,5,o),
(557,98,o),
(557,213,cs),
(557,282,o),
(508,351,o),
(437,384,c),
(489,414,o),
(525,469,o),
(525,527,cs),
(525,616,o),
(449,695,o),
(355,700,cs)
);
}
);
width = 607;
}
);
unicode = 66;
},
{
glyphname = C;
lastChange = "2021-06-22 20:16:55 +0000";
layers = (
{
background = {
shapes = (
{
attr = {
lineCapEnd = "1";
lineCapStart = "1";
strokeHeight = 80;
strokeWidth = 80;
};
closed = 0;
nodes = (
(498,234,l),
(477,92,o),
(386,30,o),
(299,30,c),
(145,30,o),
(70,175,o),
(70,349,c),
(70,524,o),
(132,670,o),
(296,670,c),
(394,670,o),
(479,593,o),
(479,511,c)
);
}
);
};
layerId = m01;
shapes = (
{
closed = 1;
nodes = (
(519,616.337,o),
(415.024,710,o),
(296,710,c),
(101.529,710,o),
(30,536.141,o),
(30,349,c),
(30,160.668,o),
(116.056,-10,o),
(299,-10,c),
(403.131,-10,o),
(513.303,64.063,o),
(537.572,228.148,c),
(540.971,251.313,o),
(523.213,274,o),
(498,274,c),
(477.896,274,o),
(461.257,259.17,o),
(458.428,239.852,c),
(439.994,115.189,o),
(373.669,70,o),
(299,70,c),
(169.344,70,o),
(110,184.732,o),
(110,349,c),
(110,515.859,o),
(158.471,630,o),
(296,630,c),
(378.576,630,o),
(439,575.263,o),
(439,511,c),
(439,488.908,o),
(456.908,471,o),
(479,471,c),
(501.092,471,o),
(519,488.908,o),
(519,511,c)
);
}
);
width = 568;
},
{
background = {
shapes = (
{
attr = {
lineCapEnd = "1";
lineCapStart = "1";
strokeHeight = 130;
strokeWidth = 130;
};
closed = 0;
nodes = (
(489,243,l),
(470,111,o),
(386,55,o),
(306,55,c),
(164,55,o),
(95,189,o),
(95,349,c),
(95,510,o),
(151,645,o),
(303,645,c),
(393,645,o),
(472,574,o),
(472,498,c)
);
}
);
};
layerId = m004;
shapes = (
{
closed = 1;
nodes = (
(537,612,o),
(427,710,o),
(303,710,c),
(101,710,o),
(30,531,o),
(30,349,c),
(30,163,o),
(118,-10,o),
(306,-10,c),
(414,-10,o),
(529,65,o),
(553,234,c),
(559,271,o),
(531,308,o),
(489,308,c),
(456,308,o),
(429,284,o),
(425,252,c),
(410,149,o),
(366,120,o),
(306,120,c),
(204,120,o),
(160,205,o),
(160,349,c),
(160,497,o),
(194,580,o),
(303,580,c),
(368,580,o),
(407,545,o),
(407,498,c),
(407,462,o),
(436,433,o),
(472,433,c),
(508,433,o),
(537,462,o),
(537,498,c)
);
}
);
width = 584;
},
{
background = {
shapes = (
{
attr = {
lineCapEnd = "1";
lineCapStart = "1";
strokeHeight = 45;
strokeWidth = 45;
};
closed = 0;
nodes = (
(504,227,l),
(481,77,o),
(386,12,o),
(295,12,c),
(131,12,o),
(52,166,o),
(52,350,c),
(52,533,o),
(117,687,o),
(292,687,c),
(394,687,o),
(483,605,o),
(483,520,c)
);
}
);
};
layerId = "6E2DD877-F1E1-49A3-9E5D-7A76BAA67C2C";
shapes = (
{
closed = 1;
nodes = (
(505.5,617.864,o),
(405.785,709.5,o),
(292,709.5,c),
(99.875,709.5,o),
(29.5,539.754,o),
(29.5,350,c),
(29.5,157.966,o),
(114.654,-10.5,o),
(295,-10.5,c),
(395.561,-10.5,o),
(501.367,61.372,o),
(526.242,223.59,c),
(528.157,236.176,o),
(518.531,249.5,o),
(504,249.5,c),
(492.733,249.5,o),
(483.4,241.219,o),
(481.758,230.41,c),
(460.239,90.058,o),
(379.039,34.5,o),
(295,34.5,c),
(144.746,34.5,o),
(74.5,171.434,o),
(74.5,350,c),
(74.5,528.446,o),
(131.925,664.5,o),
(292,664.5,c),
(385.215,664.5,o),
(460.5,595.136,o),
(460.5,520,c),
(460.5,507.573,o),
(470.573,497.5,o),
(483,497.5,c),
(495.427,497.5,o),
(505.5,507.573,o),
(505.5,520,c)
);
}
);
width = 556;
}
);
metricLeft = O;
metricRight = O;
unicode = 67;
},
{
glyphname = D;
lastChange = "2021-06-23 16:16:14 +0000";
layers = (
{
background = {
shapes = (
{
attr = {
strokeHeight = 80;
strokeWidth = 80;
};
closed = 1;
nodes = (
(100,660,ls),
(94,660,o),
(90,656,o),
(90,650,cs),
(90,50,ls),
(90,44,o),
(94,40,o),
(100,40,cs),
(248,40,ls),
(419,40,o),
(496,180,o),
(496,350,cs),
(496,519,o),
(422,660,o),
(269,660,cs)
);
}
);
};
layerId = m01;
shapes = (
{
closed = 1;
nodes = (
(398,620,o),
(456,509,o),
(456,350,c),
(456,190,o),
(395,80,o),
(248,80,c),
(100,80,l),
(94,80,o),
(130,44,o),
(130,50,c),
(130,650,l),
(130,656,o),
(94,620,o),
(100,620,c),
(269,620,l)
);
},
{
closed = 1;
nodes = (
(100,700,l),
(72,700,o),
(50,678,o),
(50,650,c),
(50,50,l),
(50,22,o),
(72,0,o),
(100,0,c),
(248,0,l),
(447,0,o),
(536,165,o),
(536,350,c),
(536,533,o),
(451,700,o),
(269,700,c)
);
}
);
width = 566;
},
{
background = {
shapes = (
{
attr = {
strokeHeight = 130;
strokeWidth = 130;
};
closed = 1;
nodes = (
(127,635,ls),
(120,635,o),
(115,630,o),
(115,622,cs),
(115,77,ls),
(115,70,o),
(120,65,o),
(127,65,cs),
(261,65,ls),
(418,65,o),
(489,194,o),
(489,350,cs),
(489,505,o),
(421,635,o),
(280,635,cs)
);
}
);
};
layerId = m004;
shapes = (
{
closed = 1;
nodes = (
(382,570,o),
(424,489,o),
(424,350,c),
(424,211,o),
(380,130,o),
(261,130,c),
(127,130,l),
(110,130,o),
(180,60,o),
(180,77,c),
(180,622,l),
(180,638,o),
(112,570,o),
(127,570,c),
(280,570,l)
);
},
{
closed = 1;
nodes = (
(127,700,l),
(84,700,o),
(50,666,o),
(50,622,c),
(50,77,l),
(50,34,o),
(84,0,o),
(127,0,c),
(261,0,l),
(463,0,o),
(554,168,o),
(554,350,c),
(554,531,o),
(467,700,o),
(280,700,c)
);
}
);
width = 584;
},
{
background = {
shapes = (
{
attr = {
strokeHeight = 45;
strokeWidth = 45;
};
closed = 1;
nodes = (
(72,677,l),
(72,23,l),
(242,23,ls),
(423,23,o),
(504,171,o),
(504,351,c),
(504,528,o),
(426,677,o),
(263,677,cs)
);
},
{
attr = {
strokeHeight = 45;
strokeWidth = 45;
};
closed = 1;
nodes = (
(77,677,ls),
(74,677,o),
(72,675,o),
(72,672,cs),
(72,28,ls),
(72,25,o),
(74,23,o),
(77,23,cs),
(242,23,ls),
(423,23,o),
(504,171,o),
(504,351,cs),
(504,528,o),
(426,677,o),
(263,677,cs)
);
}
);
};
layerId = "6E2DD877-F1E1-49A3-9E5D-7A76BAA67C2C";
shapes = (
{
closed = 1;
nodes = (
(412,655,o),
(482,522,o),
(482,351,c),
(482,177,o),
(410,46,o),
(242,46,c),
(77,46,l),
(72,46,o),
(95,23,o),
(95,28,c),
(95,672,l),
(95,677,o),
(72,655,o),
(77,655,c),
(263,655,l)
);
},
{
closed = 1;
nodes = (
(77,700,l),
(62,700,o),
(50,687,o),
(50,672,c),
(50,28,l),
(50,13,o),
(62,1,o),
(77,1,c),
(242,1,l),
(439,1,o),
(527,163,o),
(527,351,c),
(527,536,o),
(442,700,o),
(263,700,c)
);
}
);
width = 557;
}
);
metricRight = O;
unicode = 68;
},
{
glyphname = E;
lastChange = "2021-06-23 16:16:25 +0000";
layers = (
{
background = {
shapes = (
{
attr = {
strokeWidth = 1;
};
closed = 0;
nodes = (
(90,696,l),
(90,0,l),
(551,0,l)
);
},
{
attr = {
strokeWidth = 1;
};
closed = 0;
nodes = (
(93,690,l),
(510,690,l)
);
},
{
attr = {
strokeWidth = 1;
};
closed = 0;
nodes = (
(93,367,l),
(400,367,l)
);
}
);
};
layerId = m01;
shapes = (
{
closed = 1;
nodes = (
(130,80,l),
(130,620,l),
(480,620,ls),
(502,620,o),
(520,638,o),
(520,660,cs),
(520,682,o),
(502,700,o),
(480,700,c),
(92,700,l),
(90,700,ls),
(68,700,o),
(50,682,o),
(50,660,cs),
(50,60,ls),
(50,21,o),
(71,0,o),
(110,0,cs),
(521,0,ls),
(543,0,o),
(561,18,o),
(561,40,cs),
(561,62,o),
(543,80,o),
(521,80,cs)
);
},
{
closed = 1;
nodes = (
(93,407,ls),
(71,407,o),
(53,389,o),
(53,367,cs),
(53,345,o),
(71,327,o),
(93,327,cs),
(400,327,ls),
(422,327,o),
(440,345,o),
(440,367,cs),
(440,389,o),
(422,407,o),
(400,407,cs)
);
}
);
width = 601;
},
{
background = {
shapes = (
{
attr = {
strokeWidth = 1;
};
closed = 0;
nodes = (
(115,696,l),
(115,0,l),
(576,0,l)
);
},
{
attr = {
strokeWidth = 1;
};
closed = 0;
nodes = (
(118,690,l),
(535,690,l)
);
},
{
attr = {
strokeWidth = 1;
};
closed = 0;
nodes = (
(118,367,l),
(425,367,l)
);
}
);
};
layerId = m004;
shapes = (
{
closed = 1;
nodes = (
(180,130,l),
(180,570,l),
(505,570,ls),
(541,570,o),
(570,599,o),
(570,635,cs),
(570,671,o),
(541,700,o),
(505,700,cs),
(116,700,l),
(115,700,ls),
(79,700,o),
(50,671,o),
(50,635,cs),
(50,100,ls),
(50,35,o),
(85,0,o),
(150,0,cs),
(546,0,ls),
(582,0,o),
(611,29,o),
(611,65,cs),
(611,101,o),
(582,130,o),
(546,130,cs)
);
},
{
closed = 1;
nodes = (
(118,432,ls),
(82,432,o),
(53,403,o),
(53,367,cs),
(53,331,o),
(82,302,o),
(118,302,cs),
(425,302,ls),
(461,302,o),
(490,331,o),
(490,367,cs),
(490,403,o),
(461,432,o),
(425,432,cs)
);
}
);
width = 661;
},
{
background = {
shapes = (
{
attr = {
strokeWidth = 1;
};
closed = 0;
nodes = (
(73,696,l),
(73,0,l),
(534,0,l)
);
},
{
attr = {
strokeWidth = 1;
};
closed = 0;
nodes = (
(76,690,l),
(493,690,l)
);
},
{
attr = {
strokeWidth = 1;
};
closed = 0;
nodes = (
(76,367,l),
(383,367,l)
);
}
);
};
layerId = "6E2DD877-F1E1-49A3-9E5D-7A76BAA67C2C";
shapes = (
{
closed = 1;
nodes = (
(96,46,l),
(96,655,l),
(473,655,ls),
(485,655,o),
(496,665,o),
(496,677,cs),
(496,689,o),
(485,700,o),
(473,700,c),
(75,700,l),
(73,700,ls),
(61,700,o),
(51,689,o),
(51,677,cs),
(51,30,ls),
(51,12,o),
(63,0,o),
(81,0,cs),
(514,0,ls),
(526,0,o),
(537,11,o),
(537,23,cs),
(537,35,o),
(526,46,o),
(514,46,cs)
);
},
{
closed = 1;
nodes = (
(76,390,ls),
(64,390,o),
(54,379,o),
(54,367,cs),
(54,355,o),
(64,345,o),
(76,345,cs),
(393,345,ls),
(405,345,o),
(416,355,o),
(416,367,cs),
(416,379,o),
(405,390,o),
(393,390,cs)
);
}
);
width = 587;
}
);
unicode = 69;
},
{
glyphname = F;
lastChange = "2021-06-23 16:16:31 +0000";
layers = (
{
background = {
shapes = (
{
attr = {
lineCapEnd = "1";
lineCapStart = "1";
strokeHeight = 80;
strokeWidth = 80;
};
closed = 0;
nodes = (
(90,39,l),
(90,654,ls),
(90,657,o),
(92,659,o),
(95,659,cs),
(475,659,l)
);
},
{
attr = {
lineCapEnd = "1";
lineCapStart = "1";
strokeHeight = 80;
strokeWidth = 80;
};
closed = 0;
nodes = (
(93,370,l),
(376,370,l)
);
}
);
};
layerId = m01;
shapes = (
{
closed = 1;
nodes = (
(95,699,l),
(70,699,o),
(50,679,o),
(50,654,c),
(50,39,l),
(50,17,o),
(68,-1,o),
(90,-1,c),
(112,-1,o),
(130,17,o),
(130,39,c),
(130,654,l),
(130,665,o),
(84,619,o),
(95,619,c),
(475,619,l),
(497,619,o),
(515,637,o),
(515,659,c),
(515,681,o),
(497,699,o),
(475,699,c)
);
},
{
closed = 1;
nodes = (
(93,410,l),
(71,410,o),
(53,392,o),
(53,370,c),
(53,348,o),
(71,330,o),
(93,330,c),
(376,330,l),
(398,330,o),
(416,348,o),
(416,370,c),
(416,392,o),
(398,410,o),
(376,410,c)
);
}
);
width = 545;
},
{
background = {
shapes = (
{
attr = {
lineCapEnd = "1";
lineCapStart = "1";
strokeHeight = 130;
strokeWidth = 130;
};
closed = 0;
nodes = (
(116,64,l),
(116,622,ls),
(116,630,o),
(120,635,o),
(128,635,cs),
(470,635,l)
);
},
{
attr = {
lineCapEnd = "1";
lineCapStart = "1";
strokeHeight = 130;
strokeWidth = 130;
};
closed = 0;
nodes = (
(119,369,l),
(379,369,l)
);
}
);
};
layerId = m004;
shapes = (
{
closed = 1;
nodes = (
(128,700,l),
(81.8,700,o),
(51,663.8,o),
(51,622,c),
(51,64,l),
(51,28.101,o),
(80.101,-1,o),
(116,-1,c),
(151.899,-1,o),
(181,28.101,o),
(181,64,c),
(181,622,l),
(181,634,o),
(116,570,o),
(128,570,c),
(470,570,l),
(505.899,570,o),
(535,599.101,o),
(535,635,c),
(535,670.899,o),
(505.899,700,o),
(470,700,c)
);
},
{
closed = 1;
nodes = (
(119,434,l),
(83.101,434,o),
(54,404.899,o),
(54,369,c),
(54,333.101,o),
(83.101,304,o),
(119,304,c),
(379,304,l),
(414.899,304,o),
(444,333.101,o),
(444,369,c),
(444,404.899,o),
(414.899,434,o),
(379,434,c)
);
}
);
width = 565;
},
{
background = {
shapes = (
{
attr = {
lineCapEnd = "1";
lineCapStart = "1";
strokeHeight = 45;
strokeWidth = 45;
};
closed = 0;
nodes = (
(73,22,l),
(73,671,ls),
(73,674,o),
(75,676,o),
(78,676,cs),
(479,676,l)
);
},
{
attr = {
lineCapEnd = "1";
lineCapStart = "1";
strokeHeight = 45;
strokeWidth = 45;
};
closed = 0;
nodes = (
(76,371,l),
(374,371,l)
);
}
);
};
layerId = "6E2DD877-F1E1-49A3-9E5D-7A76BAA67C2C";
shapes = (
{
closed = 1;
nodes = (
(78,698.5,l),
(62.8,698.5,o),
(50.5,686.2,o),
(50.5,671,c),
(50.5,22,l),
(50.5,9.573,o),
(60.573,-0.5,o),
(73,-0.5,c),
(85.427,-0.5,o),
(95.5,9.573,o),
(95.5,22,c),
(95.5,671,l),
(95.5,676.2,o),
(72.8,653.5,o),
(78,653.5,c),
(479,653.5,l),
(491.427,653.5,o),
(501.5,663.573,o),
(501.5,676,c),
(501.5,688.427,o),
(491.427,698.5,o),
(479,698.5,c)
);
},
{
closed = 1;
nodes = (
(76,393.5,l),
(63.573,393.5,o),
(53.5,383.427,o),
(53.5,371,c),
(53.5,358.573,o),
(63.573,348.5,o),
(76,348.5,c),
(374,348.5,l),
(386.427,348.5,o),
(396.5,358.573,o),
(396.5,371,c),
(396.5,383.427,o),
(386.427,393.5,o),
(374,393.5,c)
);
}
);
width = 532;
}
);
unicode = 70;
},
{
glyphname = G;
lastChange = "2021-06-03 18:44:06 +0000";
layers = (
{
background = {
shapes = (
{
attr = {
lineCapEnd = "1";
lineCapStart = "1";
strokeHeight = 80;
strokeWidth = 80;
};
closed = 0;
nodes = (
(486,530,l),
(486,530,o),
(457,670,o),
(313,670,c),
(129,670,o),
(70,476,o),
(70,352,c),
(70,277,o),
(108,34,o),
(319,34,c),
(431,34,o),
(486,124,o),
(486,124,c),
(486,321,l),
(332,326,l)
);
}
);
};
layerId = m01;
shapes = (
{
closed = 1;
nodes = (
(466,282,l),
(466,172,ls),
(466,146,o),
(461,128,o),
(442,111,cs),
(417,89,o),
(383,74,o),
(319,74,cs),
(142.231,74,o),
(110,280.109,o),
(110,352,cs),
(110,470.052,o),
(158.644,630,o),
(313,630,cs),
(415,630,o),
(452,581,o),
(467,520,cs),
(472,503,o),
(487,490,o),
(506,490,cs),
(532,490,o),
(551,515,o),
(545,540,cs),
(524,621,o),
(458,710,o),
(313,710,cs),
(97.156,710,o),
(30,485.948,o),
(30,352,cs),
(30,271.691,o),
(71.969,-6,o),
(319,-6,cs),
(425,-6,o),
(489,39,o),
(527,85,cs),
(542,104,o),
(546,121,o),
(546,146,cs),
(546,330,ls),
(546,348,o),
(534,361,o),
(517,361,cs),
(333.298,365.979,ls),
(311,367,o),
(292,348.514,o),
(292,326,cs),
(292,304.343,o),
(309,287,o),
(330.702,286.021,cs)
);
}
);
width = 586;
},
{
background = {
shapes = (
{
attr = {
lineCapEnd = "1";
lineCapStart = "1";
strokeHeight = 130;
strokeWidth = 130;
};
closed = 0;
nodes = (
(473,512,l),
(473,512,o),
(446,639,o),
(317,639,c),
(148,639,o),
(95,463,o),
(95,349,c),
(95,282,o),
(129,62,o),
(321,62,c),
(424,62,o),
(473,144,o),
(473,144,c),
(473,322,l),
(332,327,l)
);
}
);
};
layerId = m004;
shapes = (
{
closed = 1;
nodes = (
(428,259,l),
(428,179,ls),
(428,168,o),
(426,162,o),
(418,155,cs),
(400,138,o),
(376,127,o),
(321,127,cs),
(184.726,127,o),
(160,286.993,o),
(160,349,cs),
(160,453.425,o),
(196.309,574,o),
(317,574,cs),
(396,574,o),
(417,545,o),
(430,495,cs),
(437,468,o),
(463,447,o),
(493,447,cs),
(529,447,o),
(557,476,o),
(558,512,cs),
(560,566,o),
(486,704,o),
(317,704,cs),
(101.491,704,o),
(30,488.175,o),
(30,349,cs),
(30,273.007,o),
(71.074,-3,o),
(321,-3,cs),
(439,-3,o),
(509,52,o),
(544,104,cs),
(555,120,o),
(558,133,o),
(558,153,cs),
(558,326,ls),
(558,361,o),
(534,386,o),
(500,387,cs),
(334.304,391.96,ls),
(298,393,o),
(267,363.598,o),
(267,327,cs),
(267,291.872,o),
(295,263,o),
(329.696,262.04,cs)
);
}
);
width = 598;
},
{
background = {
shapes = (
{
attr = {
lineCapEnd = "1";
lineCapStart = "1";
strokeHeight = 45;
strokeWidth = 45;
};
closed = 0;
nodes = (
(486,536,l),
(486,536,o),
(455,681,o),
(306,681,c),
(113,681,o),
(52,479,o),
(52,349,c),
(52,272,o),
(92,19,o),
(312,19,c),
(429,19,o),
(486,113,o),
(486,113,c),
(486,318,l),
(325,323,l)
);
}
);
};
layerId = "6E2DD877-F1E1-49A3-9E5D-7A76BAA67C2C";
shapes = (
{
closed = 1;
nodes = (
(484,296,l),
(484,141,ls),
(484,127,o),
(480,115,o),
(471,104,cs),
(440,70,o),
(394,42,o),
(312,41.5,cs),
(111,40,o),
(74.5,273.768,o),
(74.5,349,cs),
(74.5,475.677,o),
(130,658,o),
(306,658.5,cs),
(420,659,o),
(467,597,o),
(484,530,cs),
(487,521,o),
(496,514,o),
(506,514,cs),
(521,514,o),
(531,528,o),
(528,542,cs),
(507,619,o),
(445,704,o),
(306,703.5,cs),
(95,703,o),
(29.5,485.323,o),
(29.5,349,cs),
(29.5,270.032,o),
(73,-2,o),
(312,-3.5,cs),
(418,-4,o),
(482,43,o),
(517,90,cs),
(526,102,o),
(529,113,o),
(529,127,cs),
(529,320,ls),
(529,332,o),
(520,340,o),
(509,340,cs),
(325.349,345.495,ls),
(313,346,o),
(302.5,335.427,o),
(302.5,323,cs),
(302.5,310.573,o),
(313,301,o),
(324.651,300.505,cs)
);
}
);
width = 569;
}
);
metricLeft = O;
unicode = 71;
},
{
glyphname = H;
lastChange = "2021-06-22 20:39:10 +0000";
layers = (
{
background = {
shapes = (
{
attr = {
lineCapEnd = "1";
lineCapStart = "1";
strokeWidth = 80;
};
closed = 0;
nodes = (
(105,700,l),
(105,0,l)
);
},
{
attr = {
lineCapEnd = "1";
lineCapStart = "1";
strokeWidth = 80;
};
closed = 0;
nodes = (
(571,700,l),
(571,0,l)
);
},
{
attr = {
lineCapEnd = "1";
lineCapStart = "1";
strokeWidth = 80;
};
closed = 0;
nodes = (
(134,370,l),
(551,370,l)
);
},
{
attr = {
strokeWidth = 1;
};
closed = 0;
nodes = (
(81,700,l),
(81,0,l)
);
},
{
attr = {
strokeWidth = 1;
};
closed = 0;
nodes = (
(547,700,l),
(547,0,l)
);
},
{
attr = {
strokeWidth = 1;
};
closed = 0;
nodes = (
(80,369,l),
(547,369,l)
);
}
);
};
layerId = m01;
shapes = (
{
closed = 1;
nodes = (
(131,660,ls),
(131,682,o),
(113,700,o),
(91,700,cs),
(69,700,o),
(51,682,o),
(51,660,cs),
(51,40,ls),
(51,18,o),
(69,0,o),
(91,0,cs),
(113,0,o),
(131,18,o),
(131,40,cs)
);
},
{
closed = 1;
nodes = (
(577,660,ls),
(577,682,o),
(559,700,o),
(537,700,cs),
(515,700,o),
(497,682,o),
(497,660,cs),
(497,40,ls),
(497,18,o),
(515,0,o),
(537,0,cs),
(559,0,o),
(577,18,o),
(577,40,cs)
);
},
{
closed = 1;
nodes = (
(519,409,l),
(106,409,l),
(106,329,l),
(519,329,l)
);
}
);
width = 627;
},
{
background = {
shapes = (
{
attr = {
lineCapEnd = "1";
lineCapStart = "1";
strokeHeight = 190;
strokeWidth = 190;
};
closed = 0;
nodes = (
(194,643,l),
(194,54,l)
);
},
{
attr = {
lineCapEnd = "1";
lineCapStart = "1";
strokeHeight = 190;
strokeWidth = 190;
};
closed = 0;
nodes = (
(660,643,l),
(660,54,l)
);
},
{
attr = {
lineCapEnd = "1";
lineCapStart = "1";
strokeHeight = 190;
strokeWidth = 190;
};
closed = 0;
nodes = (
(223,370,l),
(640,370,l)
);
},
{
attr = {
strokeWidth = 1;
};
closed = 0;
nodes = (
(115,700,l),
(115,0,l)
);
},
{
attr = {
strokeWidth = 1;
};
closed = 0;
nodes = (
(581,700,l),
(581,0,l)
);
},
{
attr = {
strokeWidth = 1;
};
closed = 0;
nodes = (
(114,369,l),
(581,369,l)
);
}
);
};
guides = (
{
pos = (421,29);
},
{
pos = (410,670);
}
);
layerId = m004;
shapes = (
{
closed = 1;
nodes = (
(180,635,ls),
(180,671,o),
(151,700,o),
(115,700,cs),
(79,700,o),
(50,671,o),
(50,635,cs),
(50,65,ls),
(50,29,o),
(79,0,o),
(115,0,cs),
(151,0,o),
(180,29,o),
(180,65,cs)
);
},
{
closed = 1;
nodes = (
(616,635,ls),
(616,671,o),
(587,700,o),
(551,700,cs),
(515,700,o),
(486,671,o),
(486,635,cs),
(486,65,ls),
(486,29,o),
(515,0,o),
(551,0,cs),
(587,0,o),
(616,29,o),
(616,65,cs)
);
},
{
closed = 1;
nodes = (
(518,434,l),
(158,434,l),
(158,304,l),
(518,304,l)
);
}
);
width = 666;
},
{
background = {
shapes = (
{
attr = {
lineCapEnd = "1";
lineCapStart = "1";
strokeHeight = 45;
strokeWidth = 45;
};
closed = 0;
nodes = (
(-722,717,l),
(-722,-17,l)
);
},
{
attr = {
lineCapEnd = "1";
lineCapStart = "1";
strokeHeight = 45;
strokeWidth = 45;
};
closed = 0;
nodes = (
(-256,717,l),
(-256,-17,l)
);
},
{
attr = {
lineCapEnd = "1";
lineCapStart = "1";
strokeHeight = 5045;
strokeWidth = 45;
};
closed = 0;
nodes = (
(-693,370,l),
(-276,370,l)
);
},
{
attr = {
strokeWidth = 1;
};
closed = 0;
nodes = (
(72,700,l),
(72,0,l)
);
},
{
attr = {
strokeWidth = 1;
};
closed = 0;
nodes = (
(538,700,l),
(538,0,l)
);
},
{
attr = {
strokeWidth = 1;
};
closed = 0;
nodes = (
(71,369,l),
(538,369,l)
);
},
{
attr = {
strokeWidth = 1;
};
closed = 0;
nodes = (
(72,700,l),
(72,0,l)
);
},
{
attr = {
strokeWidth = 1;
};
closed = 0;
nodes = (
(538,700,l),
(538,0,l)
);
},
{
attr = {
strokeWidth = 1;
};
closed = 0;
nodes = (
(71,369,l),
(538,369,l)
);
}
);
};
guides = (
{
pos = (173,717);
},
{
pos = (148,-17);
}
);
layerId = "6E2DD877-F1E1-49A3-9E5D-7A76BAA67C2C";
shapes = (
{
closed = 1;
nodes = (
(95,677,ls),
(95,689,o),
(84,700,o),
(72,700,cs),
(60,700,o),
(50,689,o),
(50,677,cs),
(50,23,ls),
(50,11,o),
(60,0,o),
(72,0,cs),
(84,0,o),
(95,11,o),
(95,23,cs)
);
},
{
closed = 1;
nodes = (
(561,677,ls),
(561,689,o),
(550,700,o),
(538,700,cs),
(526,700,o),
(516,689,o),
(516,677,cs),
(516,23,ls),
(516,11,o),
(526,0,o),
(538,0,cs),
(550,0,o),
(561,11,o),
(561,23,cs)
);
},
{
closed = 1;
nodes = (
(523,392,l),
(82,392,l),
(82,347,l),
(523,347,l)
);
}
);
width = 611;
}
);
unicode = 72;
},
{
glyphname = I;
lastChange = "2021-06-23 16:12:34 +0000";
layers = (
{
layerId = m01;
shapes = (
{
closed = 1;
nodes = (
(131,660,ls),
(131,682,o),
(113,700,o),
(91,700,cs),
(69,700,o),
(51,682,o),
(51,660,cs),
(51,40,ls),
(51,18,o),
(69,0,o),
(91,0,cs),
(113,0,o),
(131,18,o),
(131,40,cs)
);
}
);
width = 181;
},
{
layerId = m004;
shapes = (
{
closed = 1;
nodes = (
(181,635,ls),
(181,671,o),
(152,700,o),
(116,700,cs),
(80,700,o),
(51,671,o),
(51,635,cs),
(51,65,ls),
(51,29,o),
(80,0,o),
(116,0,cs),
(152,0,o),
(181,29,o),
(181,65,cs)
);
}
);
width = 231;
},
{
background = {
shapes = (
{
attr = {
lineCapEnd = "1";
lineCapStart = "1";
strokeHeight = 45;
strokeWidth = 45;
};
closed = 0;
nodes = (
(89,262,l),
(89,447,o),
(177,516,o),
(289,516,cs),
(419,516,o),
(446,400,o),
(446,258,c),
(446,-17,l)
);
},
{
attr = {
lineCapEnd = "1";
lineCapStart = "1";
strokeHeight = 45;
strokeWidth = 45;
};
closed = 0;
nodes = (
(89,776,l),
(89,-17,l)
);
}
);
};
layerId = "6E2DD877-F1E1-49A3-9E5D-7A76BAA67C2C";
shapes = (
{
closed = 1;
nodes = (
(95,677,ls),
(95,689,o),
(84,700,o),
(72,700,cs),
(60,700,o),
(50,689,o),
(50,677,cs),
(50,23,ls),
(50,11,o),
(60,0,o),
(72,0,cs),
(84,0,o),
(95,11,o),
(95,23,cs)
);
}
);
width = 145;
}
);
unicode = 73;
},
{
glyphname = J;
lastChange = "2021-06-22 20:18:36 +0000";
layers = (
{
background = {
shapes = (
{
attr = {
lineCapEnd = "1";
lineCapStart = "1";
strokeHeight = 80;
strokeWidth = 80;
};
closed = 0;
nodes = (
(368,661,l),
(368,192,l),
(368,89,o),
(315,30,o),
(223,30,c),
(105,30,o),
(70,128,o),
(70,187,cs),
(70,240,l)
);
}
);
};
layerId = m01;
shapes = (
{
closed = 1;
nodes = (
(30,187,l),
(30,116.871,o),
(74.411,-10,o),
(223,-10,c),
(338.437,-10,o),
(408,68.072,o),
(408,192,c),
(408,661,l),
(408,683.092,o),
(390.092,701,o),
(368,701,c),
(345.908,701,o),
(328,683.092,o),
(328,661,c),
(328,192,l),
(328,104.328,o),
(297.163,70,o),
(223,70,c),
(133.189,70,o),
(110,134.929,o),
(110,187,c),
(110,240,l),
(110,262.092,o),
(92.092,280,o),
(70,280,c),
(47.908,280,o),
(30,262.092,o),
(30,240,c)
);
}
);
width = 458;
},
{
background = {
shapes = (
{
attr = {
lineCapEnd = "1";
lineCapStart = "1";
strokeHeight = 130;
strokeWidth = 130;
};
closed = 0;
nodes = (
(364,635,l),
(364,212,l),
(364,119,o),
(316,66,o),
(233,66,c),
(127,66,o),
(95,154,o),
(95,207,cs),
(95,255,l)
);
}
);
};
layerId = m004;
shapes = (
{
closed = 1;
nodes = (
(30,207,l),
(30,112.149,o),
(94.8,1,o),
(233,1,c),
(351.827,1,o),
(429,82.941,o),
(429,212,c),
(429,635,l),
(429,670.899,o),
(399.899,700,o),
(364,700,c),
(328.101,700,o),
(299,670.899,o),
(299,635,c),
(299,212,l),
(299,144.059,o),
(287.173,131,o),
(233,131,c),
(172.528,131,o),
(160,165.451,o),
(160,207,c),
(160,255,l),
(160,290.899,o),
(130.899,320,o),
(95,320,c),
(59.101,320,o),
(30,290.899,o),
(30,255,c)
);
}
);
width = 479;
},
{
background = {
shapes = (
{
attr = {
lineCapEnd = "1";
lineCapStart = "1";
strokeHeight = 45;
strokeWidth = 45;
};
closed = 0;
nodes = (
(366,677,l),
(366,184,l),
(366,75,o),
(310,13,o),
(214,13,c),
(90,13,o),
(53,117,o),
(53,178,cs),
(53,235,l)
);
}
);
};
layerId = "6E2DD877-F1E1-49A3-9E5D-7A76BAA67C2C";
shapes = (
{
closed = 1;
nodes = (
(30.5,178,l),
(30.5,110.717,o),
(72.523,-9.5,o),
(214,-9.5,c),
(322.997,-9.5,o),
(388.5,63.343,o),
(388.5,184,c),
(388.5,677,l),
(388.5,689.427,o),
(378.427,699.5,o),
(366,699.5,c),
(353.573,699.5,o),
(343.5,689.427,o),
(343.5,677,c),
(343.5,184,l),
(343.5,83.657,o),
(300.003,35.5,o),
(214,35.5,c),
(105.877,35.5,o),
(75.5,120.883,o),
(75.5,178,c),
(75.5,235,l),
(75.5,247.427,o),
(65.427,257.5,o),
(53,257.5,c),
(40.573,257.5,o),
(30.5,247.427,o),
(30.5,235,c)
);
}
);
width = 439;
}
);
metricRight = I;
unicode = 74;
},
{
glyphname = K;
lastChange = "2021-06-02 15:53:16 +0000";
layers = (
{
background = {
shapes = (
{
attr = {
strokeWidth = 1;
};
closed = 0;
nodes = (
(90,700,l),
(90,0,l)
);
},
{
attr = {
strokeWidth = 1;
};
closed = 0;
nodes = (
(521,684,l),
(256,415,l),
(90,247,l)
);
},
{
attr = {
strokeWidth = 1;
};
closed = 0;
nodes = (
(540,3,l),
(256,415,l)
);
}
);
};
layerId = m01;
shapes = (
{
closed = 1;
nodes = (
(130,660,ls),
(130,682,o),
(112,700,o),
(90,700,cs),
(68,700,o),
(50,682,o),
(50,660,cs),
(50,40,ls),
(50,18,o),
(68,0,o),
(90,0,cs),
(112,0,o),
(130,18,o),
(130,40,cs)
);
},
{
closed = 1;
nodes = (
(125,246,l),
(509,632,ls),
(516,640,o),
(521,649,o),
(521,660,cs),
(521,682,o),
(503,700,o),
(481,700,cs),
(470,700,o),
(460,695,o),
(453,688,cs),
(125,359,l)
);
},
{
closed = 1;
nodes = (
(228,369,l),
(467,17,ls),
(474,7,o),
(486,0,o),
(500,0,cs),
(522,0,o),
(540,18,o),
(540,40,cs),
(540,48,o),
(538,56,o),
(533,63,cs),
(287,426,l)
);
}
);
width = 590;
},
{
background = {
shapes = (
{
attr = {
strokeWidth = 1;
};
closed = 0;
nodes = (
(102,700,l),
(102,0,l)
);
},
{
attr = {
strokeWidth = 1;
};
closed = 0;
nodes = (
(533,684,l),
(268,415,l),
(102,247,l)
);
},
{
attr = {
strokeWidth = 1;
};
closed = 0;
nodes = (
(552,3,l),
(268,415,l)
);
}
);
};
layerId = m004;
shapes = (
{
closed = 1;
nodes = (
(180,635,ls),
(180,671,o),
(151,700,o),
(115,700,cs),
(79,700,o),
(50,671,o),
(50,635,cs),
(50,65,ls),
(50,29,o),
(79,0,o),
(115,0,cs),
(151,0,o),
(180,29,o),
(180,65,cs)
);
},
{
closed = 1;
nodes = (
(169,209,l),
(549,589,ls),
(561,601,o),
(568,617,o),
(568,635,cs),
(568,671,o),
(539,700,o),
(503,700,cs),
(485,700,o),
(470,693,o),
(457,681,cs),
(169,395,l)
);
},
{
closed = 1;
nodes = (
(248,325,l),
(458,28,ls),
(470,11,o),
(490,0,o),
(512,0,cs),
(548,0,o),
(577,29,o),
(577,65,cs),
(577,79,o),
(574,91,o),
(566,102,cs),
(342,420,l)
);
}
);
width = 627;
},
{
background = {
shapes = (
{
attr = {
strokeWidth = 1;
};
closed = 0;
nodes = (
(72,700,l),
(72,0,l)
);
},
{
attr = {
strokeWidth = 1;
};
closed = 0;
nodes = (
(503,684,l),
(238,415,l),
(72,247,l)
);
},
{
attr = {
strokeWidth = 1;
};
closed = 0;
nodes = (
(522,3,l),
(238,415,l)
);
}
);
};
layerId = "6E2DD877-F1E1-49A3-9E5D-7A76BAA67C2C";
shapes = (
{
closed = 1;
nodes = (
(95,677,ls),
(95,689,o),
(84,700,o),
(72,700,cs),
(60,700,o),
(50,689,o),
(50,677,cs),
(50,23,ls),
(50,11,o),
(60,0,o),
(72,0,cs),
(84,0,o),
(95,11,o),
(95,23,cs)
);
},
{
closed = 1;
nodes = (
(93,236,l),
(489,661,ls),
(493,665,o),
(496,671,o),
(496,677,cs),
(496,689,o),
(485,700,o),
(473,700,cs),
(467,700,o),
(461,697,o),
(457,693,cs),
(93,302,l)
);
},
{
closed = 1;
nodes = (
(221,384,l),
(473,10,l),
(478,4,o),
(484,0,o),
(492,0,cs),
(504,0,o),
(515,11,o),
(515,23,cs),
(515,28,o),
(513,32,o),
(511,36,c),
(254,418,l)
);
}
);
width = 565;
}
);
unicode = 75;
},
{
glyphname = L;
lastChange = "2021-06-02 18:44:42 +0000";
layers = (
{
background = {
shapes = (
{
attr = {
strokeWidth = 1;
};
closed = 0;
nodes = (
(90,700,l),
(90,2,l),
(556,2,l)
);
}
);
};
layerId = m01;
shapes = (
{
closed = 1;
nodes = (
(130,80,l),
(130,660,ls),
(130,682,o),
(112,700,o),
(90,700,cs),
(68,700,o),
(50,682,o),
(50,660,cs),
(50,30,ls),
(50,11,o),
(61,0,o),
(80,0,cs),
(496,0,ls),
(518,0,o),
(536,18,o),
(536,40,cs),
(536,62,o),
(518,80,o),
(496,80,cs)
);
}
);
width = 566;
},
{
background = {
shapes = (
{
attr = {
strokeWidth = 1;
};
closed = 0;
nodes = (
(115,700,l),
(115,2,l),
(581,2,l)
);
}
);
};
layerId = m004;
shapes = (
{
closed = 1;
nodes = (
(180,130,l),
(180,635,ls),
(180,671,o),
(151,700,o),
(115,700,cs),
(79,700,o),
(50,671,o),
(50,635,cs),
(50,50,ls),
(50,18,o),
(68,0,o),
(100,0,cs),
(501,0,ls),
(537,0,o),
(566,29,o),
(566,65,cs),
(566,101,o),
(537,130,o),
(501,130,cs)
);
}
);
width = 596;
},
{
background = {
shapes = (
{
attr = {
strokeWidth = 1;
};
closed = 0;
nodes = (
(72,700,l),
(72,2,l),
(538,2,l)
);
}
);
};
layerId = "6E2DD877-F1E1-49A3-9E5D-7A76BAA67C2C";
shapes = (
{
closed = 1;
nodes = (
(95,45,l),
(95,678,ls),
(95,690,o),
(84,701,o),
(72,701,cs),
(60,701,o),
(50,690,o),
(50,678,cs),
(50,10,ls),
(50,4,o),
(54,0,o),
(60,0,cs),
(498,-1,ls),
(510,-1,o),
(521,10,o),
(521,22,cs),
(521,34,o),
(510,45,o),
(498,45,cs)
);
}
);
width = 551;
}
);
unicode = 76;
},
{
glyphname = M;
lastChange = "2021-06-03 18:20:11 +0000";
layers = (
{
background = {
shapes = (
{
attr = {
strokeWidth = 1;
};
closed = 0;
nodes = (
(90,0,l),
(90,700,l),
(131,700,l),
(381,2,l),
(629,700,l),
(676,700,l),
(676,2,l)
);
}
);
};
layerId = m01;
shapes = (
{
closed = 1;
nodes = (
(706,630,ls),
(706,669,o),
(685,700,o),
(642,700,cs),
(607,700,o),
(587,685,o),
(574,652,cs),
(381,171,l),
(176,652,ls),
(162,684,o),
(142,700,o),
(108,700,cs),
(70,700,o),
(50,669,o),
(50,630,cs),
(50,40,ls),
(50,18,o),
(68,0,o),
(90,0,cs),
(112,0,o),
(130,18,o),
(130,40,cs),
(130,560,l),
(128,551,l),
(338,43,ls),
(349,17,o),
(363,3,o),
(380,3,cs),
(400,3,o),
(414,16,o),
(425,43,cs),
(625,557,l),
(626,560,l),
(626,40,ls),
(626,18,o),
(644,0,o),
(666,0,cs),
(688,0,o),
(706,18,o),
(706,40,cs)
);
}
);
width = 766;
},
{
background = {
shapes = (
{
attr = {
strokeWidth = 1;
};
closed = 0;
nodes = (
(115,0,l),
(115,700,l),
(156,700,l),
(406,2,l),
(654,700,l),
(701,700,l),
(701,2,l)
);
}
);
};
layerId = m004;
shapes = (
{
closed = 1;
nodes = (
(756,600,ls),
(756,665,o),
(722,700,o),
(671,700,cs),
(618,700,o),
(592,674,o),
(569,619,cs),
(408,240,l),
(241,620,ls),
(217,674,o),
(192,700,o),
(141,700,cs),
(92,700,o),
(60,665,o),
(60,600,cs),
(60,65,ls),
(60,29,o),
(89,0,o),
(125,0,cs),
(161,0,o),
(190,29,o),
(190,65,cs),
(190,590,l),
(120,590,l),
(341,67,ls),
(360,23,o),
(383,1,o),
(405,0,cs),
(428,-1,o),
(452,22,o),
(471,67,cs),
(690,590,l),
(626,590,l),
(626,65,ls),
(626,29,o),
(655,0,o),
(691,0,cs),
(727,0,o),
(756,29,o),
(756,65,cs)
);
}
);
width = 816;
},
{
background = {
shapes = (
{
attr = {
strokeWidth = 1;
};
closed = 0;
nodes = (
(73,0,l),
(73,700,l),
(114,700,l),
(364,2,l),
(612,700,l),
(659,700,l),
(659,2,l)
);
}
);
};
layerId = "6E2DD877-F1E1-49A3-9E5D-7A76BAA67C2C";
shapes = (
{
closed = 1;
nodes = (
(674,660,ls),
(674,686,o),
(660,700,o),
(634,700,cs),
(599,700,o),
(593,690,o),
(585,668,cs),
(364,92,l),
(142,668,ls),
(133,690,o),
(119,700,o),
(96,700,cs),
(66,700,o),
(51,686,o),
(51,660,cs),
(51,23,ls),
(51,11,o),
(61,0,o),
(73,0,cs),
(85,0,o),
(96,11,o),
(96,23,cs),
(96,655,l),
(98,655,l),
(338,31,ls),
(345,14,o),
(354,5,o),
(364,4,cs),
(373,4,o),
(383,13,o),
(390,31,cs),
(628,655,l),
(629,655,l),
(629,25,ls),
(629,13,o),
(639,2,o),
(651,2,cs),
(663,2,o),
(674,13,o),
(674,25,cs)
);
}
);
width = 732;
}
);
unicode = 77;
},
{
glyphname = N;
lastChange = "2021-06-23 16:16:37 +0000";
layers = (
{
background = {
shapes = (
{
attr = {
lineCapEnd = "1";
lineCapStart = "1";
strokeHeight = 80;
strokeWidth = 80;
};
closed = 0;
nodes = (
(90,39,l),
(90,655,ls),
(90,658,o),
(92,660,o),
(95,660,cs),
(124,660,ls),
(126,660,o),
(129,658,o),
(130,656,cs),
(470,43,ls),
(471,41,o),
(473,39,o),
(474,39,cs),
(492,39,ls),
(495,39,o),
(497,41,o),
(497,44,cs),
(497,660,l)
);
}
);
};
layerId = m01;
shapes = (
{
closed = 1;
nodes = (
(457,44,l),
(457,33,o),
(503,79,o),
(492,79,c),
(474,79,l),
(476,79,o),
(484,76,o),
(501,69,c),
(165,675,l),
(157,690,o),
(141,700,o),
(124,700,c),
(95,700,l),
(70,700,o),
(50,680,o),
(50,655,c),
(50,39,l),
(50,17,o),
(68,-1,o),
(90,-1,c),
(112,-1,o),
(130,17,o),
(130,39,c),
(130,655,l),
(130,666,o),
(84,620,o),
(95,620,c),
(124,620,l),
(121,620,o),
(114,622,o),
(100,628,c),
(435,24,l),
(442,10,o),
(457,-1,o),
(474,-1,c),
(492,-1,l),
(517,-1,o),
(537,19,o),
(537,44,c),
(537,660,l),
(537,682,o),
(519,700,o),
(497,700,c),
(475,700,o),
(457,682,o),
(457,660,c)
);
}
);
width = 587;
},
{
background = {
shapes = (
{
attr = {
lineCapEnd = "1";
lineCapStart = "1";
strokeHeight = 130;
strokeWidth = 130;
};
closed = 0;
nodes = (
(116,66,l),
(116,627,ls),
(116,632,o),
(119,635,o),
(125,635,cs),
(146,635,ls),
(149,635,o),
(154,633,o),
(155,630,cs),
(462,71,ls),
(464,68,o),
(468,66,o),
(472,66,cs),
(481,66,ls),
(486,66,o),
(490,69,o),
(490,74,cs),
(490,635,l)
);
}
);
};
layerId = m004;
shapes = (
{
closed = 1;
nodes = (
(425,74,l),
(425,59,o),
(496,131,o),
(481,131,c),
(472,131,l),
(475.781,131,o),
(486.959,127.665,o),
(510.021,118.59,c),
(213.229,659.003,l),
(199.83,686.633,o),
(170.611,700,o),
(146,700,c),
(125,700,l),
(85.4,700,o),
(51,670.4,o),
(51,627,c),
(51,66,l),
(51,30.101,o),
(80.101,1,o),
(116,1,c),
(151.899,1,o),
(181,30.101,o),
(181,66,c),
(181,627,l),
(181,642,o),
(109,570,o),
(125,570,c),
(146,570,l),
(143.882,570,o),
(129.776,579.316,o),
(93.589,606.79,c),
(405.664,38.549,l),
(419.152,15.469,o),
(444.964,1,o),
(472,1,c),
(481,1,l),
(519.8,1,o),
(555,30.8,o),
(555,74,c),
(555,635,l),
(555,670.899,o),
(525.899,700,o),
(490,700,c),
(454.101,700,o),
(425,670.899,o),
(425,635,c)
);
}
);
width = 605;
},
{
background = {
shapes = (
{
attr = {
lineCapEnd = "1";
lineCapStart = "1";
strokeHeight = 45;
strokeWidth = 45;
};
closed = 0;
nodes = (
(73,23,l),
(73,671,ls),
(73,674,o),
(75,676,o),
(78,676,cs),
(109,676,ls),
(111,676,o),
(114,674,o),
(115,672,cs),
(473,27,ls),
(474,25,o),
(476,23,o),
(477,23,cs),
(497,23,ls),
(500,23,o),
(502,25,o),
(502,28,cs),
(502,676,l)
);
}
);
};
layerId = "6E2DD877-F1E1-49A3-9E5D-7A76BAA67C2C";
shapes = (
{
closed = 1;
nodes = (
(479.5,28,l),
(479.5,22.8,o),
(502.2,45.5,o),
(497,45.5,c),
(477,45.5,l),
(474,45.5,o),
(491.597,40.117,o),
(492.899,37.491,c),
(134.899,682.491,l),
(130.368,691.575,o),
(119.4,698.5,o),
(109,698.5,c),
(78,698.5,l),
(62.8,698.5,o),
(50.5,686.2,o),
(50.5,671,c),
(50.5,23,l),
(50.5,10.573,o),
(60.573,0.5,o),
(73,0.5,c),
(85.427,0.5,o),
(95.5,10.573,o),
(95.5,23,c),
(95.5,671,l),
(95.5,676.2,o),
(72.8,653.5,o),
(78,653.5,c),
(109,653.5,l),
(114,653.5,o),
(92.534,666.621,o),
(95.101,661.509,c),
(453.101,16.509,l),
(457.721,7.246,o),
(467.4,0.5,o),
(477,0.5,c),
(497,0.5,l),
(512.2,0.5,o),
(524.5,12.8,o),
(524.5,28,c),
(524.5,676,l),
(524.5,688.427,o),
(514.427,698.5,o),
(502,698.5,c),
(489.573,698.5,o),
(479.5,688.427,o),
(479.5,676,c)
);
}
);
width = 575;
}
);
unicode = 78;
},
{
glyphname = O;
lastChange = "2021-06-03 18:01:37 +0000";
layers = (
{
background = {
shapes = (
{
attr = {
strokeWidth = 1;
};
closed = 1;
nodes = (
(578,154,o),
(462,-4,o),
(319,-4,c),
(176,-4,o),
(60,154,o),
(60,350,c),
(60,545,o),
(176,703,o),
(319,703,c),
(462,703,o),
(578,545,o),
(578,350,c)
);
}
);
};
layerId = m01;
shapes = (
{
closed = 1;
nodes = (
(528,182,o),
(442,71,o),
(319,71,cs),
(196,71,o),
(110,182,o),
(110,350,cs),
(110,518,o),
(196,629,o),
(319,629,cs),
(442,629,o),
(528,518,o),
(528,350,cs)
);
},
{
closed = 1;
nodes = (
(608,550,o),
(488,709,o),
(319,709,cs),
(150,709,o),
(30,550,o),
(30,350,cs),
(30,150,o),
(150,-9,o),
(319,-9,cs),
(488,-9,o),
(608,150,o),
(608,350,cs)
);
}
);
width = 638;
},
{
background = {
shapes = (
{
attr = {
strokeWidth = 1;
};
closed = 1;
nodes = (
(593,154,o),
(477,-4,o),
(334,-4,c),
(191,-4,o),
(75,154,o),
(75,350,c),
(75,545,o),
(191,703,o),
(334,703,c),
(477,703,o),
(593,545,o),
(593,350,c)
);
}
);
};
layerId = m004;
shapes = (
{
closed = 1;
nodes = (
(508,205,o),
(444,121,o),
(334,121,cs),
(224,121,o),
(160,205,o),
(160,350,cs),
(160,484,o),
(224,578,o),
(334,578,cs),
(444,578,o),
(508,484,o),
(508,350,cs)
);
},
{
closed = 1;
nodes = (
(638,536,o),
(518,708,o),
(334,708,cs),
(150,708,o),
(30,536,o),
(30,350,cs),
(30,152,o),
(151,-9,o),
(334,-9,cs),
(517,-9,o),
(638,152,o),
(638,350,cs)
);
}
);
width = 668;
},
{
background = {
shapes = (
{
attr = {
strokeWidth = 1;
};
closed = 1;
nodes = (
(557,154,o),
(441,-4,o),
(298,-4,c),
(155,-4,o),
(39,154,o),
(39,350,c),
(39,545,o),
(155,703,o),
(298,703,c),
(441,703,o),
(557,545,o),
(557,350,c)
);
}
);
};
layerId = "6E2DD877-F1E1-49A3-9E5D-7A76BAA67C2C";
shapes = (
{
closed = 1;
nodes = (
(521,166,o),
(423,38,o),
(298,38,cs),
(173,38,o),
(76,166,o),
(76,351,cs),
(76,535,o),
(173,663,o),
(298,663,cs),
(423,663,o),
(521,535,o),
(521,351,cs)
);
},
{
closed = 1;
nodes = (
(566,551,o),
(447,708,o),
(298,708,cs),
(149,708,o),
(30,551,o),
(30,351,cs),
(30,150,o),
(149,-7,o),
(298,-7,cs),
(447,-7,o),
(566,150,o),
(566,351,cs)
);
}
);
width = 596;
}
);
unicode = 79;
},
{
glyphname = P;
lastChange = "2021-06-23 16:16:42 +0000";
layers = (
{
background = {
shapes = (
{
attr = {
lineCapEnd = "1";
lineCapStart = "1";
strokeHeight = 80;
strokeWidth = 80;
};
closed = 0;
nodes = (
(90,40,l),
(90,655,ls),
(90,657,o),
(92,659,o),
(95,659,cs),
(335,659,ls),
(425,659,o),
(492,587,o),
(492,498,cs),
(492,405,o),
(420,333,o),
(330,333,cs),
(91,333,l)
);
}
);
};
layerId = m01;
shapes = (
{
closed = 1;
nodes = (
(330,293,l),
(442,293,o),
(532,383,o),
(532,498,c),
(532,608,o),
(448,699,o),
(335,699,c),
(95,699,l),
(70,699,o),
(50,679,o),
(50,655,c),
(50,40,l),
(50,18,o),
(68,0,o),
(90,0,c),
(112,0,o),
(130,18,o),
(130,40,c),
(130,655,l),
(130,667,o),
(82,619,o),
(95,619,c),
(335,619,l),
(408,619,o),
(452,571,o),
(452,498,c),
(452,422,o),
(403,373,o),
(330,373,c),
(91,373,l),
(69,373,o),
(51,355,o),
(51,333,c),
(51,311,o),
(69,293,o),
(91,293,c)
);
}
);
width = 562;
},
{
background = {
shapes = (
{
attr = {
lineCapEnd = "1";
lineCapStart = "1";
strokeHeight = 130;
strokeWidth = 130;
};
closed = 0;
nodes = (
(116,65,l),
(116,623,ls),
(116,630,o),
(120,635,o),
(128,635,cs),
(340,635,ls),
(423,635,o),
(485,568,o),
(485,484,cs),
(485,401,o),
(418,333,o),
(335,333,cs),
(116,333,l)
);
}
);
};
layerId = m004;
shapes = (
{
closed = 1;
nodes = (
(335,268,l),
(454.006,268,o),
(550,365.558,o),
(550,484,c),
(550,602.26,o),
(460.211,700,o),
(340,700,c),
(128,700,l),
(81.6,700,o),
(51,663.6,o),
(51,623,c),
(51,65,l),
(51,29.101,o),
(80.101,0,o),
(116,0,c),
(151.899,0,o),
(181,29.101,o),
(181,65,c),
(181,623,l),
(181,636,o),
(114,570,o),
(128,570,c),
(340,570,l),
(394.589,570,o),
(420,542.54,o),
(420,484,c),
(420,427.642,o),
(390.794,398,o),
(335,398,c),
(116,398,l),
(80.101,398,o),
(51,368.899,o),
(51,333,c),
(51,297.101,o),
(80.101,268,o),
(116,268,c)
);
}
);
width = 580;
},
{
background = {
shapes = (
{
attr = {
lineCapEnd = "1";
lineCapStart = "1";
strokeHeight = 45;
strokeWidth = 45;
};
closed = 0;
nodes = (
(72,22,l),
(72,672,ls),
(72,675,o),
(74,677,o),
(77,677,cs),
(331,677,ls),
(426,677,o),
(497,601,o),
(497,506,cs),
(497,408,o),
(421,332,o),
(325,332,cs),
(73,332,l)
);
}
);
};
layerId = "6E2DD877-F1E1-49A3-9E5D-7A76BAA67C2C";
shapes = (
{
closed = 1;
nodes = (
(325,310,l),
(433,310,o),
(520,396,o),
(520,506,c),
(520,613,o),
(439,700,o),
(331,700,c),
(77,700,l),
(62,700,o),
(50,687,o),
(50,672,c),
(50,22,l),
(50,10,o),
(60,-1,o),
(72,-1,c),
(84,-1,o),
(95,10,o),
(95,22,c),
(95,672,l),
(95,677,o),
(72,655,o),
(77,655,c),
(331,655,l),
(416,655,o),
(475,592,o),
(475,506,c),
(475,417,o),
(412,355,o),
(325,355,c),
(73,355,l),
(61,355,o),
(51,344,o),
(51,332,c),
(51,320,o),
(61,310,o),
(73,310,c)
);
}
);
width = 550;
}
);
unicode = 80;
},
{
glyphname = Q;
lastChange = "2021-06-03 17:22:19 +0000";
layers = (
{
background = {
shapes = (
{
attr = {
strokeWidth = 1;
};
closed = 0;
nodes = (
(254,125,l),
(254,125,o),
(276,138,o),
(298,138,c),
(359,138,o),
(385,-48,o),
(490,-48,c),
(519,-48,o),
(552,-25,o),
(552,-25,c)
);
},
{
attr = {
strokeWidth = 1;
};
closed = 0;
nodes = (
(254,125,l),
(254,125,o),
(276,138,o),
(298,138,c),
(359,138,o),
(385,-48,o),
(490,-48,c),
(519,-48,o),
(552,-25,o),
(552,-25,c)
);
}
);
};
layerId = m01;
shapes = (
{
ref = O;
},
{
closed = 1;
nodes = (
(535,29,o),
(521,22,o),
(510,22,cs),
(428,22,o),
(407,208,o),
(318,208,cs),
(296,208,o),
(272,200,o),
(254,190,cs),
(242,183,o),
(234,170,o),
(234,155,cs),
(234,133,o),
(252,115,o),
(274,115,cs),
(281,115,o),
(288,117,o),
(294,120,cs),
(302,125,o),
(310,128,o),
(318,128,cs),
(344,128,o),
(370,-58,o),
(510,-58,cs),
(538,-58,o),
(570,-44,o),
(594,-28,cs),
(605,-21,o),
(612,-9,o),
(612,5,cs),
(612,27,o),
(594,45,o),
(572,45,cs),
(564,45,o),
(556,43,o),
(550,38,c)
);
}
);
width = 600;
},
{
layerId = m004;
shapes = (
{
ref = O;
},
{
closed = 1;
nodes = (
(577,86,o),
(570,83,o),
(564,83,cs),
(508,84,o),
(457,281,o),
(356,283,cs),
(331,284,o),
(302,275,o),
(280,264,cs),
(259,253,o),
(246,231,o),
(245,207,cs),
(245,171,o),
(273,142,o),
(309,141,cs),
(321,141,o),
(331,144,o),
(341,148,cs),
(348,152,o),
(350,153,o),
(353,153,cs),
(357,153,o),
(457,-45,o),
(561,-47,cs),
(594,-48,o),
(631,-34,o),
(660,-15,cs),
(678,-3,o),
(690,15,o),
(690,38,cs),
(691,74,o),
(663,104,o),
(627,105,cs),
(614,105,o),
(600,101,o),
(590,94,cs)
);
}
);
width = 707;
},
{
background = {
shapes = (
{
attr = {
strokeWidth = 1;
};
closed = 1;
nodes = (
(519,153,o),
(403,-5,o),
(260,-5,c),
(117,-5,o),
(1,153,o),
(1,348,c),
(1,543,o),
(117,702,o),
(260,702,c),
(403,702,o),
(519,543,o),
(519,348,c)
);
},
{
attr = {
strokeWidth = 1;
};
closed = 0;
nodes = (
(254,125,l),
(254,125,o),
(276,138,o),
(298,138,c),
(359,138,o),
(385,-48,o),
(490,-48,c),
(519,-48,o),
(552,-25,o),
(552,-25,c)
);
},
{
attr = {
strokeWidth = 1;
};
closed = 0;
nodes = (
(254,125,l),
(254,125,o),
(276,138,o),
(298,138,c),
(359,138,o),
(385,-48,o),
(490,-48,c),
(519,-48,o),
(552,-25,o),
(552,-25,c)
);
}
);
};
layerId = "6E2DD877-F1E1-49A3-9E5D-7A76BAA67C2C";
shapes = (
{
ref = O;
},
{
closed = 1;
nodes = (
(524,3,o),
(505,-5,o),
(490,-5,cs),
(395,-6,o),
(383,181,o),
(298,181,cs),
(278,181,o),
(256,172,o),
(243,165,cs),
(236,161,o),
(232,153,o),
(232,145,cs),
(232,133,o),
(242,123,o),
(254,123,cs),
(258,123,o),
(262,124,o),
(265,125,c),
(275,131,o),
(287,135,o),
(298,135,cs),
(349,136,o),
(365,-51,o),
(490,-51,cs),
(516,-51,o),
(546,-36,o),
(564,-24,cs),
(571,-20,o),
(575,-13,o),
(575,-5,cs),
(575,7,o),
(564,18,o),
(552,18,cs),
(547,18,o),
(543,16,o),
(540,14,cs)
);
}
);
width = 595;
}
);
unicode = 81;
},
{
glyphname = R;
lastChange = "2021-06-02 15:39:55 +0000";
layers = (
{
background = {
shapes = (
{
attr = {
strokeWidth = 1;
};
closed = 0;
nodes = (
(98,700,l),
(98,0,l)
);
},
{
attr = {
strokeWidth = 1;
};
closed = 0;
nodes = (
(102,372,l),
(402,372,l)
);
},
{
attr = {
strokeWidth = 1;
};
closed = 0;
nodes = (
(102,695,l),
(402,695,l)
);
},
{
attr = {
strokeWidth = 1;
};
closed = 0;
nodes = (
(402,695,l),
(491,695,o),
(564,623,o),
(564,534,c),
(564,444,o),
(491,372,o),
(402,372,c)
);
},
{
attr = {
strokeWidth = 1;
};
closed = 0;
nodes = (
(386,372,l),
(568,0,l)
);
}
);
};
layerId = m01;
shapes = (
{
closed = 1;
nodes = (
(138,660,ls),
(138,682,o),
(120,700,o),
(98,700,cs),
(76,700,o),
(58,682,o),
(58,660,cs),
(58,40,ls),
(58,18,o),
(76,0,o),
(98,0,cs),
(120,0,o),
(138,18,o),
(138,40,cs)
);
},
{
closed = 1;
nodes = (
(102,412,ls),
(80,412,o),
(62,394,o),
(62,372,cs),
(62,350,o),
(80,332,o),
(102,332,cs),
(402,332,ls),
(483,332,o),
(574,422,o),
(574,514,cs),
(574,610,o),
(483,700,o),
(402,700,cs),
(102,700,ls),
(80,700,o),
(62,682,o),
(62,660,cs),
(62,638,o),
(80,620,o),
(102,620,cs),
(402,620,ls),
(445,620,o),
(494,571,o),
(494,514,cs),
(494,461,o),
(445,412,o),
(402,412,cs)
);
},
{
closed = 1;
nodes = (
(422,390,ls),
(415,403,o),
(402,412,o),
(386,412,cs),
(364,412,o),
(346,394,o),
(346,372,cs),
(346,366,o),
(347,360,o),
(350,354,cs),
(532,22,ls),
(539,9,o),
(552,0,o),
(568,0,cs),
(590,0,o),
(608,18,o),
(608,40,cs),
(608,46,o),
(607,52,o),
(604,58,cs)
);
}
);
width = 600;
},
{
background = {
shapes = (
{
attr = {
strokeWidth = 1;
};
closed = 0;
nodes = (
(85,700,l),
(85,0,l)
);
},
{
attr = {
strokeWidth = 1;
};
closed = 0;
nodes = (
(89,372,l),
(389,372,l)
);
},
{
attr = {
strokeWidth = 1;
};
closed = 0;
nodes = (
(89,695,l),
(389,695,l)
);
},
{
attr = {
strokeWidth = 1;
};
closed = 0;
nodes = (
(389,695,l),
(478,695,o),
(551,623,o),
(551,534,c),
(551,444,o),
(478,372,o),
(389,372,c)
);
},
{
attr = {
strokeWidth = 1;
};
closed = 0;
nodes = (
(373,372,l),
(555,0,l)
);
}
);
};
layerId = m004;
shapes = (
{
closed = 1;
nodes = (
(180,635,ls),
(180,671,o),
(151,700,o),
(115,700,cs),
(79,700,o),
(50,671,o),
(50,635,cs),
(50,65,ls),
(50,29,o),
(79,0,o),
(115,0,cs),
(151,0,o),
(180,29,o),
(180,65,cs)
);
},
{
closed = 1;
nodes = (
(119,417,ls),
(83,417,o),
(54,388,o),
(54,352,cs),
(54,316,o),
(83,287,o),
(119,287,cs),
(379,287,ls),
(503,287,o),
(606,388,o),
(606,494,cs),
(606,599,o),
(503,700,o),
(379,700,cs),
(119,700,ls),
(83,700,o),
(54,671,o),
(54,635,cs),
(54,599,o),
(83,570,o),
(119,570,cs),
(379,570,ls),
(441,570,o),
(476,536,o),
(476,494,cs),
(476,451,o),
(441,417,o),
(379,417,cs)
);
},
{
closed = 1;
nodes = (
(451,381,ls),
(439,403,o),
(419,417,o),
(393,417,cs),
(357,417,o),
(328,388,o),
(328,352,cs),
(328,342,o),
(330,332,o),
(335,323,cs),
(487,36,ls),
(499,14,o),
(519,0,o),
(545,0,cs),
(581,0,o),
(610,29,o),
(610,65,cs),
(610,75,o),
(608,85,o),
(603,94,cs)
);
}
);
width = 660;
},
{
background = {
shapes = (
{
attr = {
strokeWidth = 1;
};
closed = 0;
nodes = (
(72,700,l),
(72,0,l)
);
},
{
attr = {
strokeWidth = 1;
};
closed = 0;
nodes = (
(76,372,l),
(376,372,l)
);
},
{
attr = {
strokeWidth = 1;
};
closed = 0;
nodes = (
(76,695,l),
(376,695,l)
);
},
{
attr = {
strokeWidth = 1;
};
closed = 0;
nodes = (
(376,695,l),
(465,695,o),
(538,623,o),
(538,534,c),
(538,444,o),
(465,372,o),
(376,372,c)
);
},
{
attr = {
strokeWidth = 1;
};
closed = 0;
nodes = (
(360,372,l),
(542,0,l)
);
}
);
};
layerId = "6E2DD877-F1E1-49A3-9E5D-7A76BAA67C2C";
shapes = (
{
closed = 1;
nodes = (
(105,677,ls),
(105,689,o),
(94,700,o),
(82,700,cs),
(70,700,o),
(60,689,o),
(60,677,cs),
(60,23,ls),
(60,11,o),
(70,0,o),
(82,0,cs),
(94,0,o),
(105,11,o),
(105,23,cs)
);
},
{
closed = 1;
nodes = (
(86,377,ls),
(74,377,o),
(64,366,o),
(64,354,cs),
(64,342,o),
(74,332,o),
(86,332,cs),
(356,332,ls),
(457,332,o),
(541,414,o),
(541,516,cs),
(541,617,o),
(457,700,o),
(356,700,cs),
(86,700,ls),
(74,700,o),
(64,689,o),
(64,677,cs),
(64,665,o),
(74,655,o),
(86,655,cs),
(356,655,ls),
(436,655,o),
(496,596,o),
(496,516,cs),
(496,435,o),
(436,377,o),
(356,377,cs)
);
},
{
closed = 1;
nodes = (
(360,364,l),
(356,371,o),
(349,377,o),
(340,377,c),
(328,377,o),
(318,366,o),
(318,354,c),
(318,350,o),
(318,347,o),
(320,344,c),
(502,13,l),
(506,6,o),
(513,0,o),
(522,0,c),
(534,0,o),
(545,11,o),
(545,23,c),
(545,27,o),
(544,30,o),
(542,33,c)
);
}
);
width = 574;
}
);
unicode = 82;
},
{
glyphname = S;
lastChange = "2021-06-03 18:02:15 +0000";
layers = (
{
background = {
shapes = (
{
attr = {
strokeWidth = 1;
};
closed = 0;
nodes = (
(536,553,l),
(536,553,o),
(520,704,o),
(323,704,c),
(156,704,o),
(98,606,o),
(98,536,c),
(98,273,o),
(572,456,o),
(572,176,c),
(572,102,o),
(524,-6,o),
(341,-6,c),
(126,-6,o),
(87,130,o),
(88,181,c),
(88,188,l)
);
}
);
};
layerId = m01;
shapes = (
{
closed = 1;
nodes = (
(50,141,o),
(92,-11,o),
(317,-11,cs),
(509,-11,o),
(564,108,o),
(564,191,cs),
(564,499,o),
(139,332,o),
(139,519,cs),
(139,574,o),
(169,630,o),
(301,630,cs),
(401,630,o),
(445,574,o),
(452,529,cs),
(455,512,o),
(473,493,o),
(495,493,cs),
(518,493,o),
(534,519,o),
(531,541,cs),
(516,621,o),
(450,709,o),
(301,709,cs),
(124,709,o),
(59,598,o),
(59,519,cs),
(59,227,o),
(484,413,o),
(484,191,cs),
(484,131,o),
(460,69,o),
(317,69,cs),
(162,69,o),
(130,154,o),
(130,203,cs),
(130,223,o),
(113,246,o),
(89,246,cs),
(69,246,o),
(50,223,o),
(50,203,cs)
);
}
);
width = 614;
},
{
background = {
shapes = (
{
attr = {
strokeWidth = 1;
};
closed = 0;
nodes = (
(519,553,l),
(519,553,o),
(503,704,o),
(306,704,c),
(139,704,o),
(81,606,o),
(81,536,c),
(81,273,o),
(555,456,o),
(555,176,c),
(555,102,o),
(507,-6,o),
(324,-6,c),
(109,-6,o),
(70,130,o),
(71,181,c),
(71,188,l)
);
}
);
};
layerId = m004;
shapes = (
{
closed = 1;
nodes = (
(50,143,o),
(99,-9,o),
(322,-9,cs),
(520,-9,o),
(575,120,o),
(576,203,cs),
(578,513,o),
(188,367,o),
(188,511,cs),
(188,556,o),
(215,581,o),
(307,581,cs),
(371,581,o),
(407,566,o),
(416,517,cs),
(420,490,o),
(443,459,o),
(490,459,cs),
(526,459,o),
(550,504,o),
(544,535,cs),
(530,620,o),
(460,711,o),
(307,711,cs),
(128,711,o),
(58,597,o),
(58,511,cs),
(58,204,o),
(446,361,o),
(446,203,cs),
(446,151,o),
(424,122,o),
(322,122,cs),
(209,122,o),
(181,171,o),
(181,213,cs),
(181,244,o),
(156,280,o),
(110,280,cs),
(70,280,o),
(50,244,o),
(50,213,cs)
);
}
);
width = 626;
},
{
layerId = "6E2DD877-F1E1-49A3-9E5D-7A76BAA67C2C";
shapes = (
{
closed = 1;
nodes = (
(48,139,o),
(91,-5,o),
(311,-5,cs),
(499,-5,o),
(550,112,o),
(550,188,cs),
(550,483,o),
(102,303,o),
(102,528,cs),
(102,588,o),
(148,665,o),
(293,665,cs),
(415,665,o),
(463,604,o),
(473,540,cs),
(475,530,o),
(484,523,o),
(495,523,cs),
(508,523,o),
(517,535,o),
(515,547,cs),
(502,625,o),
(437,707,o),
(293,707,cs),
(121,708,o),
(59,602,o),
(59,528,cs),
(59,248,o),
(507,440,o),
(507,188,cs),
(507,123,o),
(468,38,o),
(311,38,cs),
(124,38,o),
(94,148,o),
(94,199,cs),
(94,210,o),
(83,221,o),
(72,221,cs),
(60,221,o),
(50,210,o),
(50,199,cs)
);
}
);
width = 600;
}
);
unicode = 83;
},
{
glyphname = T;
lastChange = "2021-06-22 19:52:56 +0000";
layers = (
{
background = {
shapes = (
{
attr = {
lineCapEnd = "1";
lineCapStart = "1";
strokeHeight = 80;
strokeWidth = 80;
};
closed = 0;
nodes = (
(295,660,l),
(295,40,l)
);
},
{
attr = {
lineCapEnd = "1";
lineCapStart = "1";
strokeHeight = 80;
strokeWidth = 80;
};
closed = 0;
nodes = (
(70,660,l),
(520,660,l)
);
}
);
};
layerId = m01;
shapes = (
{
closed = 1;
nodes = (
(335,660,l),
(335,682.092,o),
(317.092,700,o),
(295,700,c),
(272.908,700,o),
(255,682.092,o),
(255,660,c),
(255,40,l),
(255,17.908,o),
(272.908,0,o),
(295,0,c),
(317.092,0,o),
(335,17.908,o),
(335,40,c)
);
},
{
closed = 1;
nodes = (
(70,700,l),
(47.908,700,o),
(30,682.092,o),
(30,660,c),
(30,637.908,o),
(47.908,620,o),
(70,620,c),
(520,620,l),
(542.092,620,o),
(560,637.908,o),
(560,660,c),
(560,682.092,o),
(542.092,700,o),
(520,700,c)
);
}
);
width = 590;
},
{
background = {
shapes = (
{
attr = {
lineCapEnd = "1";
lineCapStart = "1";
strokeHeight = 130;
strokeWidth = 130;
};
closed = 0;
nodes = (
(302,635,l),
(302,65,l)
);
},
{
attr = {
lineCapEnd = "1";
lineCapStart = "1";
strokeHeight = 130;
strokeWidth = 130;
};
closed = 0;
nodes = (
(95,635,l),
(509,635,l)
);
}
);
};
layerId = m004;
shapes = (
{
closed = 1;
nodes = (
(367,635,l),
(367,670.899,o),
(337.899,700,o),
(302,700,c),
(266.101,700,o),
(237,670.899,o),
(237,635,c),
(237,65,l),
(237,29.101,o),
(266.101,0,o),
(302,0,c),
(337.899,0,o),
(367,29.101,o),
(367,65,c)
);
},
{
closed = 1;
nodes = (
(95,700,l),
(59.101,700,o),
(30,670.899,o),
(30,635,c),
(30,599.101,o),
(59.101,570,o),
(95,570,c),
(509,570,l),
(544.899,570,o),
(574,599.101,o),
(574,635,c),
(574,670.899,o),
(544.899,700,o),
(509,700,c)
);
}
);
width = 604;
},
{
background = {
shapes = (
{
attr = {
lineCapEnd = "1";
lineCapStart = "1";
strokeHeight = 45;
strokeWidth = 45;
};
closed = 0;
nodes = (
(302,677,l),
(302,23,l)
);
},
{
attr = {
lineCapEnd = "1";
lineCapStart = "1";
strokeHeight = 45;
strokeWidth = 45;
};
closed = 0;
nodes = (
(64,677,l),
(540,677,l)
);
}
);
};
layerId = "6E2DD877-F1E1-49A3-9E5D-7A76BAA67C2C";
shapes = (
{
closed = 1;
nodes = (
(324.5,677,l),
(324.5,689.427,o),
(314.427,699.5,o),
(302,699.5,c),
(289.573,699.5,o),
(279.5,689.427,o),
(279.5,677,c),
(279.5,23,l),
(279.5,10.573,o),
(289.573,0.5,o),
(302,0.5,c),
(314.427,0.5,o),
(324.5,10.573,o),
(324.5,23,c)
);
},
{
closed = 1;
nodes = (
(64,699.5,l),
(51.573,699.5,o),
(41.5,689.427,o),
(41.5,677,c),
(41.5,664.573,o),
(51.573,654.5,o),
(64,654.5,c),
(540,654.5,l),
(552.427,654.5,o),
(562.5,664.573,o),
(562.5,677,c),
(562.5,689.427,o),
(552.427,699.5,o),
(540,699.5,c)
);
}
);
width = 600;
}
);
unicode = 84;
},
{
glyphname = U;
lastChange = "2021-06-02 18:49:58 +0000";
layers = (
{
background = {
shapes = (
{
attr = {
lineCapEnd = "1";
lineCapStart = "1";
strokeHeight = 80;
strokeWidth = 80;
};
closed = 0;
nodes = (
(70,660,l),
(70,237,l),
(70,124,o),
(164,32,o),
(277,32,cs),
(390,32,o),
(483,124,o),
(483,237,c),
(483,660,l)
);
}
);
};
layerId = m01;
shapes = (
{
closed = 1;
nodes = (
(443,237,l),
(443,140.695,o),
(373.558,72,o),
(277,72,c),
(180.317,72,o),
(110,140.821,o),
(110,237,c),
(110,660,l),
(110,682.092,o),
(92.092,700,o),
(70,700,c),
(47.908,700,o),
(30,682.092,o),
(30,660,c),
(30,237,l),
(30,101.579,o),
(142.083,-8,o),
(277,-8,c),
(412.042,-8,o),
(523,101.705,o),
(523,237,c),
(523,660,l),
(523,682.092,o),
(505.092,700,o),
(483,700,c),
(460.908,700,o),
(443,682.092,o),
(443,660,c)
);
}
);
width = 553;
},
{
background = {
shapes = (
{
attr = {
lineCapEnd = "1";
lineCapStart = "1";
strokeHeight = 130;
strokeWidth = 130;
};
closed = 0;
nodes = (
(115,636,l),
(115,247,l),
(115,142,o),
(200,58,o),
(305,58,cs),
(409,58,o),
(494,142,o),
(494,247,c),
(494,636,l)
);
}
);
};
layerId = m004;
shapes = (
{
closed = 1;
nodes = (
(429,247,l),
(429,169.149,o),
(382.301,123,o),
(305,123,c),
(226.699,123,o),
(180,169.149,o),
(180,247,c),
(180,636,l),
(180,671.899,o),
(150.899,701,o),
(115,701,c),
(79.101,701,o),
(50,671.899,o),
(50,636,c),
(50,247,l),
(50,106.051,o),
(164.501,-7,o),
(305,-7,c),
(444.499,-7,o),
(559,106.051,o),
(559,247,c),
(559,636,l),
(559,671.899,o),
(529.899,701,o),
(494,701,c),
(458.101,701,o),
(429,671.899,o),
(429,636,c)
);
}
);
width = 609;
},
{
background = {
shapes = (
{
attr = {
lineCapEnd = "1";
lineCapStart = "1";
strokeHeight = 45;
strokeWidth = 45;
};
closed = 0;
nodes = (
(72,677,l),
(72,233,l),
(72,113,o),
(171,16,o),
(290,16,cs),
(409,16,o),
(507,113,o),
(507,233,c),
(507,677,l)
);
}
);
};
layerId = "6E2DD877-F1E1-49A3-9E5D-7A76BAA67C2C";
shapes = (
{
closed = 1;
nodes = (
(484.5,233,l),
(484.5,122.387,o),
(399.748,38.5,o),
(290,38.5,c),
(180.186,38.5,o),
(94.5,122.455,o),
(94.5,233,c),
(94.5,677,l),
(94.5,689.427,o),
(84.427,699.5,o),
(72,699.5,c),
(59.573,699.5,o),
(49.5,689.427,o),
(49.5,677,c),
(49.5,233,l),
(49.5,100.545,o),
(158.814,-6.5,o),
(290,-6.5,c),
(421.252,-6.5,o),
(529.5,100.613,o),
(529.5,233,c),
(529.5,677,l),
(529.5,689.427,o),
(519.427,699.5,o),
(507,699.5,c),
(494.573,699.5,o),
(484.5,689.427,o),
(484.5,677,c)
);
}
);
width = 580;
}
);
unicode = 85;
},
{
glyphname = V;
kernRight = V;
lastChange = "2021-06-29 17:36:22 +0000";
layers = (
{
background = {
shapes = (
{
attr = {
lineCapEnd = "1";
lineCapStart = "1";
strokeHeight = 80;
strokeWidth = 80;
};
closed = 0;
nodes = (
(70,659,l),
(296,47,l),
(301,32,o),
(315,32,o),
(320,47,c),
(546,659,l)
);
}
);
};
layerId = m01;
shapes = (
{
closed = 1;
nodes = (
(277,-16,o),
(339,-16,o),
(357.699,33.618,cs),
(583.528,645.141,ls),
(593,670,o),
(575,699,o),
(546,699,cs),
(528.781,699,o),
(514,688,o),
(508.472,672.859,cs),
(292,88,l),
(324,88,l),
(107.528,672.859,ls),
(102,688,o),
(87.219,699,o),
(70,699,cs),
(35,699,o),
(25,661,o),
(32,645,cs),
(258.301,33.618,ls)
);
}
);
width = 616;
},
{
background = {
shapes = (
{
attr = {
lineCapEnd = "1";
lineCapStart = "1";
strokeHeight = 130;
strokeWidth = 130;
};
closed = 0;
nodes = (
(95,635,l),
(297,71,ls),
(302,56,o),
(314,56,o),
(319,70,cs),
(535,635,l)
);
}
);
};
layerId = m004;
shapes = (
{
closed = 1;
nodes = (
(261,-22,o),
(353,-23,o),
(379.903,47.282,cs),
(595.723,611.786,ls),
(610,649,o),
(585,700,o),
(535,700,cs),
(507.281,700,o),
(484,683,o),
(474.277,658.214,cs),
(289,174,l),
(329,174,l),
(156.202,656.92,ls),
(147.215,682.035,o),
(123.206,700,o),
(95,700,cs),
(42,700,o),
(21,647,o),
(33.798,613.08,cs),
(235.626,49.587,ls)
);
}
);
width = 630;
},
{
background = {
shapes = (
{
attr = {
lineCapEnd = "1";
lineCapStart = "1";
strokeHeight = 45;
strokeWidth = 45;
};
closed = 0;
nodes = (
(52,676,l),
(291,30,l),
(296,15,o),
(310,15,o),
(315,30,c),
(554,676,l)
);
}
);
};
layerId = "6E2DD877-F1E1-49A3-9E5D-7A76BAA67C2C";
shapes = (
{
closed = 1;
nodes = (
(283,-8,o),
(323,-8,o),
(336,27,cs),
(575,668,ls),
(582,688,o),
(568,699,o),
(556,699,cs),
(544.319,698.5,o),
(536,692,o),
(532.895,683.808,cs),
(294,41,l),
(312,41,l),
(73.105,683.808,ls),
(70,692,o),
(61.681,698.5,o),
(52,698.5,cs),
(33,699,o),
(26,680,o),
(33,662,cs),
(270,27,ls)
);
}
);
width = 607;
}
);
unicode = 86;
changeCount = 1;
},
{
glyphname = W;
kernRight = V;
lastChange = "2021-06-23 16:16:48 +0000";
layers = (
{
background = {
shapes = (
{
attr = {
lineCapEnd = "1";
lineCapStart = "1";
strokeHeight = 80;
strokeWidth = 80;
};
closed = 0;
nodes = (
(70,660,l),
(257,34,ls),
(258,29,o),
(262,30,o),
(263,34,cs),
(430,647,ls),
(431,651,o),
(435,652,o),
(436,648,cs),
(602,34,ls),
(603,30,o),
(607,31,o),
(608,35,cs),
(795,661,l)
);
}
);
};
layerId = m01;
shapes = (
{
closed = 1;
nodes = (
(229,-21,o),
(291,-19,o),
(302,24,c),
(443,542,l),
(423,542,l),
(563,24,l),
(574,-21,o),
(635,-17,o),
(646,24,c),
(833,650,l),
(841,675,o),
(822,701,o),
(795,701,c),
(777,701,o),
(762,689,o),
(757,672,c),
(598,142,l),
(614,142,l),
(475,658,l),
(463,703,o),
(402,699,o),
(391,657,c),
(251,144,l),
(266,144,l),
(108,671,l),
(103,688,o),
(88,700,o),
(70,700,c),
(43,700,o),
(24,674,o),
(32,649,c),
(218,24,l)
);
}
);
width = 865;
},
{
background = {
shapes = (
{
attr = {
lineCapEnd = "1";
lineCapStart = "1";
strokeHeight = 130;
strokeWidth = 130;
};
closed = 0;
nodes = (
(95,635,l),
(265,60,ls),
(268,51,o),
(274,52,o),
(277,61,cs),
(427,615,ls),
(430,624,o),
(437,623,o),
(438,615,cs),
(588,61,ls),
(589,53,o),
(596,52,o),
(599,61,cs),
(772,634,l)
);
}
);
};
layerId = m004;
shapes = (
{
closed = 1;
nodes = (
(225.032,-29.345,o),
(317.877,-28,o),
(339.401,42.755,c),
(446,438,l),
(419,438,l),
(524.477,46.902,l),
(538.604,-24.012,o),
(637.679,-31.711,o),
(661.039,41.594,c),
(834.234,615.21,l),
(847,657,o),
(815,699,o),
(772,699,c),
(742.635,699,o),
(717.819,679.528,o),
(709.766,652.79,c),
(580,224,l),
(611,224,l),
(501.523,629.098,l),
(487.322,700.384,o),
(387.279,707.79,o),
(364.6,633.245,c),
(256,233,l),
(282,233,l),
(157.341,653.431,l),
(149.403,680.354,o),
(124.496,700,o),
(95,700,c),
(52,700,o),
(20,658,o),
(32.659,616.569,c),
(202.886,40.83,l)
);
}
);
width = 867;
},
{
background = {
shapes = (
{
attr = {
lineCapEnd = "1";
lineCapStart = "1";
strokeHeight = 45;
strokeWidth = 45;
};
closed = 0;
nodes = (
(53,675,l),
(249,19,ls),
(250,14,o),
(254,15,o),
(255,19,cs),
(430,662,ls),
(431,666,o),
(435,667,o),
(436,663,cs),
(610,19,ls),
(611,15,o),
(615,16,o),
(616,20,cs),
(812,676,l)
);
}
);
};
layerId = "6E2DD877-F1E1-49A3-9E5D-7A76BAA67C2C";
shapes = (
{
closed = 1;
nodes = (
(234,-7,o),
(270,-6,o),
(277,20,c),
(441,617,l),
(425,617,l),
(588,20,l),
(595,-6,o),
(631,-5,o),
(638,21,c),
(834,670,l),
(838,684,o),
(827,699,o),
(812,699,c),
(802,699,o),
(793,692,o),
(790,682,c),
(606,67,l),
(620,67,l),
(458,669,l),
(451,695,o),
(415,694,o),
(408,668,c),
(246,72,l),
(257,72,l),
(75,681,l),
(72,691,o),
(63,698,o),
(53,698,c),
(38,698,o),
(27,683,o),
(31,669,c),
(227,20,l)
);
}
);
width = 865;
}
);
metricLeft = V;
metricRight = V;
unicode = 87;
},
{
glyphname = X;
lastChange = "2021-06-22 19:55:12 +0000";
layers = (
{
background = {
shapes = (
{
attr = {
lineCapEnd = "1";
lineCapStart = "1";
strokeHeight = 80;
strokeWidth = 80;
};
closed = 0;
nodes = (
(78,659,l),
(511,41,l)
);
},
{
attr = {
lineCapEnd = "1";
lineCapStart = "1";
strokeHeight = 80;
strokeWidth = 80;
};
closed = 0;
nodes = (
(499,659,l),
(70,41,l)
);
}
);
};
layerId = m01;
shapes = (
{
closed = 1;
nodes = (
(110.761,681.954,l),
(103.527,692.262,o),
(91.55,699,o),
(78,699,c),
(55.908,699,o),
(38,681.092,o),
(38,659,c),
(38,650.459,o),
(40.677,642.543,o),
(45.239,636.046,c),
(478.239,18.046,l),
(485.473,7.738,o),
(497.45,1,o),
(511,1,c),
(533.092,1,o),
(551,18.908,o),
(551,41,c),
(551,49.541,o),
(548.323,57.457,o),
(543.761,63.954,c)
);
},
{
closed = 1;
nodes = (
(531.86,636.189,l),
(536.362,642.659,o),
(539,650.521,o),
(539,659,c),
(539,681.092,o),
(521.092,699,o),
(499,699,c),
(485.387,699,o),
(473.363,692.2,o),
(466.14,681.811,c),
(37.14,63.811,l),
(32.638,57.341,o),
(30,49.479,o),
(30,41,c),
(30,18.908,o),
(47.908,1,o),
(70,1,c),
(83.613,1,o),
(95.637,7.8,o),
(102.86,18.189,c)
);
}
);
width = 581;
},
{
background = {
shapes = (
{
attr = {
lineCapEnd = "1";
lineCapStart = "1";
strokeHeight = 130;
strokeWidth = 130;
};
closed = 0;
nodes = (
(102,635,l),
(502,65,l)
);
},
{
attr = {
lineCapEnd = "1";
lineCapStart = "1";
strokeHeight = 130;
strokeWidth = 130;
};
closed = 0;
nodes = (
(491,635,l),
(95,65,l)
);
}
);
};
layerId = m004;
shapes = (
{
closed = 1;
nodes = (
(155.208,672.339,l),
(143.45,689.069,o),
(124.002,700,o),
(102,700,c),
(66.101,700,o),
(37,670.899,o),
(37,635,c),
(37,621.103,o),
(41.361,608.225,o),
(48.792,597.661,c),
(448.792,27.661,l),
(460.55,10.931,o),
(479.998,0,o),
(502,0,c),
(537.899,0,o),
(567,29.101,o),
(567,65,c),
(567,78.897,o),
(562.639,91.775,o),
(555.208,102.339,c)
);
},
{
closed = 1;
nodes = (
(544.384,597.912,l),
(551.708,608.429,o),
(556,621.213,o),
(556,635,c),
(556,670.899,o),
(526.899,700,o),
(491,700,c),
(468.888,700,o),
(449.355,688.959,o),
(437.616,672.088,c),
(41.616,102.088,l),
(34.292,91.571,o),
(30,78.787,o),
(30,65,c),
(30,29.101,o),
(59.101,0,o),
(95,0,c),
(117.112,0,o),
(136.645,11.041,o),
(148.384,27.912,c)
);
}
);
width = 597;
},
{
background = {
shapes = (
{
attr = {
lineCapEnd = "1";
lineCapStart = "1";
strokeHeight = 45;
strokeWidth = 45;
};
closed = 0;
nodes = (
(61,677,l),
(522,22,l)
);
},
{
attr = {
lineCapEnd = "1";
lineCapStart = "1";
strokeHeight = 45;
strokeWidth = 45;
};
closed = 0;
nodes = (
(509,677,l),
(53,22,l)
);
}
);
};
layerId = "6E2DD877-F1E1-49A3-9E5D-7A76BAA67C2C";
shapes = (
{
closed = 1;
nodes = (
(79.4,689.951,l),
(75.329,695.727,o),
(68.605,699.5,o),
(61,699.5,c),
(48.573,699.5,o),
(38.5,689.427,o),
(38.5,677,c),
(38.5,672.178,o),
(40.017,667.711,o),
(42.6,664.049,c),
(503.6,9.049,l),
(507.671,3.273,o),
(514.395,-0.5,o),
(522,-0.5,c),
(534.427,-0.5,o),
(544.5,9.573,o),
(544.5,22,c),
(544.5,26.822,o),
(542.983,31.289,o),
(540.4,34.951,c)
);
},
{
closed = 1;
nodes = (
(527.467,664.144,l),
(530.009,667.788,o),
(531.5,672.22,o),
(531.5,677,c),
(531.5,689.427,o),
(521.427,699.5,o),
(509,699.5,c),
(501.354,699.5,o),
(494.598,695.686,o),
(490.533,689.856,c),
(34.533,34.856,l),
(31.991,31.212,o),
(30.5,26.78,o),
(30.5,22,c),
(30.5,9.573,o),
(40.573,-0.5,o),
(53,-0.5,c),
(60.646,-0.5,o),
(67.402,3.314,o),
(71.467,9.144,c)
);
}
);
width = 575;
}
);
unicode = 88;
},
{
glyphname = Y;
lastChange = "2021-06-22 19:55:42 +0000";
layers = (
{
background = {
shapes = (
{
attr = {
lineCapEnd = "1";
lineCapStart = "1";
strokeHeight = 80;
strokeWidth = 80;
};
closed = 0;
nodes = (
(516,659,l),
(287,349,l),
(70,659,l)
);
},
{
attr = {
lineCapEnd = "1";
lineCapStart = "1";
strokeHeight = 80;
strokeWidth = 80;
};
closed = 0;
nodes = (
(287,349,l),
(287,41,l)
);
}
);
};
layerId = m01;
shapes = (
{
closed = 1;
nodes = (
(286.126,280.497,l),
(548.175,635.232,l),
(553.093,641.877,o),
(556,650.099,o),
(556,659,c),
(556,681.092,o),
(538.092,699,o),
(516,699,c),
(502.81,699,o),
(491.111,692.616,o),
(483.825,682.768,c),
(287.874,417.504,l),
(102.771,681.94,l),
(95.538,692.256,o),
(83.557,699,o),
(70,699,c),
(47.908,699,o),
(30,681.092,o),
(30,659,c),
(30,650.465,o),
(32.673,642.554,o),
(37.229,636.06,c)
);
},
{
closed = 1;
nodes = (
(327,349,l),
(327,371.092,o),
(309.092,389,o),
(287,389,c),
(264.908,389,o),
(247,371.092,o),
(247,349,c),
(247,41,l),
(247,18.908,o),
(264.908,1,o),
(287,1,c),
(309.092,1,o),
(327,18.908,o),
(327,41,c)
);
}
);
width = 586;
},
{
background = {
shapes = (
{
attr = {
lineCapEnd = "1";
lineCapStart = "1";
strokeHeight = 130;
strokeWidth = 130;
};
closed = 0;
nodes = (
(507,635,l),
(295,349,l),
(95,635,l)
);
},
{
attr = {
lineCapEnd = "1";
lineCapStart = "1";
strokeHeight = 130;
strokeWidth = 130;
};
closed = 0;
nodes = (
(295,349,l),
(295,65,l)
);
}
);
};
layerId = m004;
shapes = (
{
closed = 1;
nodes = (
(293.464,237.775,l),
(559.22,596.291,l),
(567.25,607.104,o),
(572,620.497,o),
(572,635,c),
(572,670.899,o),
(542.899,700,o),
(507,700,c),
(485.604,700,o),
(466.623,689.663,o),
(454.78,673.709,c),
(296.536,460.226,l),
(148.27,672.252,l),
(136.518,689.031,o),
(117.04,700,o),
(95,700,c),
(59.101,700,o),
(30,670.899,o),
(30,635,c),
(30,621.141,o),
(34.337,608.296,o),
(41.73,597.748,c)
);
},
{
closed = 1;
nodes = (
(360,349,l),
(360,384.899,o),
(330.899,414,o),
(295,414,c),
(259.101,414,o),
(230,384.899,o),
(230,349,c),
(230,65,l),
(230,29.101,o),
(259.101,0,o),
(295,0,c),
(330.899,0,o),
(360,29.101,o),
(360,65,c)
);
}
);
width = 602;
},
{
background = {
shapes = (
{
attr = {
lineCapEnd = "1";
lineCapStart = "1";
strokeHeight = 45;
strokeWidth = 45;
};
closed = 0;
nodes = (
(526,677,l),
(282,349,l),
(52,677,l)
);
},
{
attr = {
lineCapEnd = "1";
lineCapStart = "1";
strokeHeight = 45;
strokeWidth = 45;
};
closed = 0;
nodes = (
(282,349,l),
(282,23,l)
);
}
);
};
layerId = "6E2DD877-F1E1-49A3-9E5D-7A76BAA67C2C";
shapes = (
{
closed = 1;
nodes = (
(281.461,310.579,l),
(544.053,663.57,l),
(546.847,667.318,o),
(548.5,671.966,o),
(548.5,677,c),
(548.5,689.427,o),
(538.427,699.5,o),
(526,699.5,c),
(518.607,699.5,o),
(512.048,695.935,o),
(507.947,690.43,c),
(282.539,387.421,l),
(70.423,689.919,l),
(66.353,695.713,o),
(59.619,699.5,o),
(52,699.5,c),
(39.573,699.5,o),
(29.5,689.427,o),
(29.5,677,c),
(29.5,672.192,o),
(31.008,667.737,o),
(33.577,664.081,c)
);
},
{
closed = 1;
nodes = (
(304.5,349,l),
(304.5,361.427,o),
(294.427,371.5,o),
(282,371.5,c),
(269.573,371.5,o),
(259.5,361.427,o),
(259.5,349,c),
(259.5,23,l),
(259.5,10.573,o),
(269.573,0.5,o),
(282,0.5,c),
(294.427,0.5,o),
(304.5,10.573,o),
(304.5,23,c)
);
}
);
width = 579;
}
);
unicode = 89;
},
{
glyphname = Z;
lastChange = "2021-06-22 19:56:14 +0000";
layers = (
{
background = {
shapes = (
{
attr = {
lineCapEnd = "1";
lineCapStart = "1";
strokeHeight = 80;
strokeWidth = 80;
};
closed = 0;
nodes = (
(105,660,l),
(487,660,ls),
(491,660,o),
(492,658,o),
(490,654,cs),
(91,46,ls),
(89,42,o),
(90,40,o),
(94,40,cs),
(494,40,l)
);
}
);
};
layerId = m01;
shapes = (
{
closed = 1;
nodes = (
(94,80,l),
(98.062,80,o),
(110.06,69.893,o),
(135.457,40.838,c),
(524.31,633.377,l),
(542.303,664.754,o),
(521.808,700,o),
(487,700,c),
(105,700,l),
(82.908,700,o),
(65,682.092,o),
(65,660,c),
(65,637.908,o),
(82.908,620,o),
(105,620,c),
(487,620,l),
(482.938,620,o),
(470.94,630.107,o),
(445.543,659.162,c),
(56.69,66.623,l),
(38.697,35.246,o),
(59.192,0,o),
(94,0,c),
(494,0,l),
(516.092,0,o),
(534,17.908,o),
(534,40,c),
(534,62.092,o),
(516.092,80,o),
(494,80,c)
);
}
);
width = 584;
},
{
background = {
shapes = (
{
attr = {
lineCapEnd = "1";
lineCapStart = "1";
strokeHeight = 130;
strokeWidth = 130;
};
closed = 0;
nodes = (
(125,635,l),
(468,635,ls),
(476,635,o),
(478,630,o),
(474,623,cs),
(117,77,ls),
(113,70,o),
(115,65,o),
(123,65,cs),
(482,65,l)
);
}
);
};
layerId = m004;
shapes = (
{
closed = 1;
nodes = (
(123,130,l),
(136.861,130,o),
(161.579,118.629,o),
(201.814,87.939,c),
(529.122,588.528,l),
(560.217,639.416,o),
(526.855,700,o),
(468,700,c),
(125,700,l),
(89.101,700,o),
(60,670.899,o),
(60,635,c),
(60,599.101,o),
(89.101,570,o),
(125,570,c),
(468,570,l),
(454.139,570,o),
(429.421,581.371,o),
(389.186,612.061,c),
(61.878,111.472,l),
(30.783,60.584,o),
(64.145,0,o),
(123,0,c),
(482,0,l),
(517.899,0,o),
(547,29.101,o),
(547,65,c),
(547,100.899,o),
(517.899,130,o),
(482,130,c)
);
}
);
width = 597;
},
{
background = {
shapes = (
{
attr = {
lineCapEnd = "1";
lineCapStart = "1";
strokeHeight = 45;
strokeWidth = 45;
};
closed = 0;
nodes = (
(89,676,l),
(491,676,ls),
(495,676,o),
(496,674,o),
(494,670,cs),
(73,29,ls),
(71,25,o),
(72,23,o),
(76,23,cs),
(498,23,l)
);
}
);
};
layerId = "6E2DD877-F1E1-49A3-9E5D-7A76BAA67C2C";
shapes = (
{
closed = 1;
nodes = (
(76,45.5,l),
(77.697,45.5,o),
(83.556,40,o),
(96.651,24.024,c),
(513.346,658.469,l),
(524.164,677.746,o),
(512.136,698.5,o),
(491,698.5,c),
(89,698.5,l),
(76.573,698.5,o),
(66.5,688.427,o),
(66.5,676,c),
(66.5,663.573,o),
(76.573,653.5,o),
(89,653.5,c),
(491,653.5,l),
(489.303,653.5,o),
(483.444,659,o),
(470.349,674.976,c),
(53.654,40.531,l),
(42.836,21.254,o),
(54.864,0.5,o),
(76,0.5,c),
(498,0.5,l),
(510.427,0.5,o),
(520.5,10.573,o),
(520.5,23,c),
(520.5,35.427,o),
(510.427,45.5,o),
(498,45.5,c)
);
}
);
width = 571;
}
);
unicode = 90;
},
{
glyphname = a;
lastChange = "2021-06-03 19:15:40 +0000";
layers = (
{
background = {
shapes = (
{
attr = {
strokeWidth = 1;
};
closed = 0;
nodes = (
(115,400,l),
(115,418,o),
(137,514,o),
(286,514,c),
(423,514,o),
(458,436,o),
(458,359,c),
(458,358,o),
(460,149,o),
(460,68,c),
(460,8,o),
(514,8,o),
(514,8,c)
);
},
{
attr = {
strokeWidth = 1;
};
closed = 0;
nodes = (
(457,114,l),
(457,114,o),
(375,1,o),
(242,1,c),
(131,1,o),
(85,60,o),
(85,120,c),
(85,174,o),
(133,266,o),
(266,266,c),
(446,266,o),
(458,366,o),
(458,366,c)
);
}
);
};
layerId = m01;
shapes = (
{
closed = 1;
nodes = (
(312,-9,o),
(375,32,o),
(424,72,c),
(424,166,l),
(384,125,o),
(321,73,o),
(237,72,cs),
(155,71,o),
(130,106,o),
(130,152,cs),
(130,197,o),
(162,227,o),
(261,227,cs),
(327,227,o),
(378,239,o),
(415,259,c),
(415,91,ls),
(415,34,o),
(461,3,o),
(507,0,cs),
(530,-1,o),
(549,17,o),
(549,40,cs),
(549,61,o),
(533,79,o),
(512,80,cs),
(500,81,o),
(494,91,o),
(494,110,cs),
(494,327,ls),
(494,417,o),
(448,522,o),
(281,522,cs),
(111,522,o),
(80,398,o),
(80,368,cs),
(80,345,o),
(98,328,o),
(120,328,cs),
(142,328,o),
(160,345,o),
(160,368,cs),
(160,381,o),
(173,442,o),
(281,442,cs),
(386,442,o),
(413,401,o),
(413,357,cs),
(413,322,o),
(367,306,o),
(261,306,cs),
(113,306,o),
(50,225,o),
(50,152,cs),
(50,73,o),
(110,-7,o),
(237,-8,cs)
);
}
);
width = 599;
},
{
background = {
shapes = (
{
attr = {
strokeWidth = 1;
};
closed = 0;
nodes = (
(115,400,l),
(115,418,o),
(137,514,o),
(286,514,c),
(423,514,o),
(458,436,o),
(458,359,c),
(458,358,o),
(460,149,o),
(460,68,c),
(460,8,o),
(514,8,o),
(514,8,c)
);
},
{
attr = {
strokeWidth = 1;
};
closed = 0;
nodes = (
(457,114,l),
(457,114,o),
(375,1,o),
(242,1,c),
(131,1,o),
(85,60,o),
(85,120,c),
(85,174,o),
(133,266,o),
(266,266,c),
(446,266,o),
(458,366,o),
(458,366,c)
);
}
);
};
layerId = m004;
shapes = (
{
closed = 1;
nodes = (
(316,-8,o),
(370,21,o),
(421,58,c),
(395,172,l),
(357,144,o),
(317,124,o),
(246,123,cs),
(197,122,o),
(180,137,o),
(180,155,cs),
(180,185,o),
(203,201,o),
(266,201,cs),
(317,201,o),
(352,208,o),
(384,219,c),
(385,115,ls),
(386,44,o),
(443,3,o),
(501,0,cs),
(558,-2,o),
(589,28,o),
(589,65,cs),
(589,98,o),
(566,123,o),
(541,129,cs),
(520,134,o),
(513,147,o),
(513,169,cs),
(513,344,ls),
(513,440,o),
(453,521,o),
(286,521,cs),
(137,521,o),
(80,441,o),
(80,402,cs),
(80,366,o),
(99,337,o),
(135,337,cs),
(171,337,o),
(180,354,o),
(193,366,cs),
(201,373,o),
(228,391,o),
(286,391,cs),
(363,391,o),
(383,377,o),
(383,350,cs),
(383,326,o),
(352,319,o),
(266,319,cs),
(124,319,o),
(50,240,o),
(50,152,cs),
(50,70,o),
(119,-6,o),
(242,-7,cs)
);
}
);
width = 639;
},
{
background = {
shapes = (
{
attr = {
strokeWidth = 1;
};
closed = 0;
nodes = (
(92,400,l),
(92,418,o),
(114,514,o),
(263,514,c),
(400,514,o),
(435,436,o),
(435,359,c),
(435,358,o),
(437,164,o),
(437,83,c),
(437,23,o),
(491,23,o),
(491,23,c)
);
},
{
attr = {
strokeWidth = 1;
};
closed = 0;
nodes = (
(434,114,l),
(434,114,o),
(352,1,o),
(219,1,c),
(108,1,o),
(62,60,o),
(62,120,c),
(62,174,o),
(110,266,o),
(243,266,c),
(423,266,o),
(435,366,o),
(435,366,c)
);
}
);
};
layerId = "6E2DD877-F1E1-49A3-9E5D-7A76BAA67C2C";
shapes = (
{
closed = 1;
nodes = (
(304,-8,o),
(376,35,o),
(426,84,c),
(423,148,l),
(382,92,o),
(310,37,o),
(219,37,cs),
(129,37,o),
(95,82,o),
(95,134,cs),
(95,183,o),
(134,231,o),
(243,231,cs),
(323.532,231,o),
(380,250,o),
(414,277,c),
(414,88,ls),
(415,18,o),
(453,2,o),
(490,0,cs),
(503,-1,o),
(514,9,o),
(514,22,cs),
(514,34,o),
(504,44,o),
(493,45,cs),
(471,46,o),
(459,53,o),
(459,82,cs),
(459,343,ls),
(458,428,o),
(417,520,o),
(263,520,cs),
(107,520,o),
(79,410,o),
(79,384,cs),
(79,371,o),
(89,361,o),
(102,361,cs),
(114,361,o),
(124,371,o),
(124,384,cs),
(124,399,o),
(141,475,o),
(263,475,cs),
(379.751,475,o),
(413,422,o),
(412.782,354.012,cs),
(413,311,o),
(360.074,273,o),
(243,273,cs),
(105,273,o),
(50,198,o),
(50,134,cs),
(50,63,o),
(103,-8,o),
(219,-8,cs)
);
}
);
width = 564;
}
);
unicode = 97;
},
{
color = 0;
glyphname = a.ss01;
lastChange = "2021-06-03 18:45:45 +0000";
layers = (
{
background = {
shapes = (
{
attr = {
strokeWidth = 1;
};
closed = 0;
nodes = (
(115,400,l),
(115,418,o),
(137,514,o),
(286,514,c),
(423,514,o),
(458,436,o),
(458,359,c),
(458,358,o),
(460,149,o),
(460,68,c),
(460,8,o),
(514,8,o),
(514,8,c)
);
},
{
attr = {
strokeWidth = 1;
};
closed = 0;
nodes = (
(457,114,l),
(457,114,o),
(375,1,o),
(242,1,c),
(131,1,o),
(85,60,o),
(85,120,c),
(85,174,o),
(133,266,o),
(266,266,c),
(446,266,o),
(458,366,o),
(458,366,c)
);
}
);
};
layerId = m01;
shapes = (
{
closed = 1;
nodes = (
(316,-9,o),
(383,37,o),
(433,79,c),
(424,166,l),
(384,112,o),
(321,73,o),
(237,72,cs),
(155,71,o),
(130,106,o),
(130,152,cs),
(130,197,o),
(162,227,o),
(261,227,cs),
(327,227,o),
(377,239,o),
(414,259,c),
(415,91,ls),
(415,34,o),
(461,3,o),
(507,0,cs),
(530,-1,o),
(549,17,o),
(549,40,cs),
(549,61,o),
(533,79,o),
(512,80,cs),
(495,81,o),
(495,81,o),
(495,100,cs),
(493,327,ls),
(492,417,o),
(448,522,o),
(281,522,cs),
(111,522,o),
(80,398,o),
(80,368,cs),
(80,345,o),
(98,328,o),
(120,328,cs),
(142,328,o),
(160,345,o),
(160,368,cs),
(160,381,o),
(173,442,o),
(281,442,cs),
(386,442,o),
(413,401,o),
(413,357,cs),
(413,322,o),
(367,306,o),
(261,306,cs),
(113,306,o),
(50,225,o),
(50,152,cs),
(50,73,o),
(110,-7,o),
(237,-8,cs)
);
}
);
width = 599;
},
{
background = {
shapes = (
{
attr = {
strokeWidth = 1;
};
closed = 0;
nodes = (
(115,400,l),
(115,418,o),
(137,514,o),
(286,514,c),
(423,514,o),
(458,436,o),
(458,359,c),
(458,358,o),
(460,149,o),
(460,68,c),
(460,8,o),
(514,8,o),
(514,8,c)
);
},
{
attr = {
strokeWidth = 1;
};
closed = 0;
nodes = (
(457,114,l),
(457,114,o),
(375,1,o),
(242,1,c),
(131,1,o),
(85,60,o),
(85,120,c),
(85,174,o),
(133,266,o),
(266,266,c),
(446,266,o),
(458,366,o),
(458,366,c)
);
}
);
};
layerId = m004;
shapes = (
{
closed = 1;
nodes = (
(316,-8,o),
(370,21,o),
(421,58,c),
(395,172,l),
(357,144,o),
(313,126,o),
(242,125,cs),
(193,124,o),
(180,137,o),
(180,155,cs),
(180,173,o),
(203,187,o),
(266,187,cs),
(317,187,o),
(352,196,o),
(384,209,c),
(385,115,l),
(390,44,o),
(443,3,o),
(501,0,cs),
(558,-2,o),
(589,28,o),
(589,65,cs),
(589,98,o),
(566,129,o),
(535,129,cs),
(520,129,o),
(513,142,o),
(513,169,cs),
(513,344,ls),
(513,440,o),
(453,521,o),
(286,521,cs),
(117,521,o),
(80,421,o),
(80,382,cs),
(80,346,o),
(109,317,o),
(145,317,cs),
(181,317,o),
(210,336,o),
(210,372,cs),
(210,383,o),
(228,391,o),
(286,391,cs),
(363,391,o),
(383,377,o),
(383,350,cs),
(383,314,o),
(352,307,o),
(266,307,cs),
(124,307,o),
(50,228,o),
(50,140,cs),
(50,58,o),
(119,-6,o),
(242,-7,cs)
);
}
);
width = 639;
},
{
background = {
shapes = (
{
attr = {
strokeWidth = 1;
};
closed = 0;
nodes = (
(92,400,l),
(92,418,o),
(114,514,o),
(263,514,c),
(400,514,o),
(435,436,o),
(435,359,c),
(435,358,o),
(437,149,o),
(437,68,c),
(437,8,o),
(491,8,o),
(491,8,c)
);
},
{
attr = {
strokeWidth = 1;
};
closed = 0;
nodes = (
(434,114,l),
(434,114,o),
(352,1,o),
(219,1,c),
(108,1,o),
(62,60,o),
(62,120,c),
(62,174,o),
(110,266,o),
(243,266,c),
(423,266,o),
(435,366,o),
(435,366,c)
);
}
);
};
layerId = "6E2DD877-F1E1-49A3-9E5D-7A76BAA67C2C";
shapes = (
{
closed = 1;
nodes = (
(304,-8,o),
(376,35,o),
(426,84,c),
(423,148,l),
(382,92,o),
(310,37,o),
(219,37,cs),
(129,37,o),
(95,82,o),
(95,134,cs),
(95,183,o),
(134,231,o),
(243,231,cs),
(323.532,231,o),
(379.247,250.302,o),
(413.671,277.45,c),
(416,98,ls),
(417,28,o),
(453,2,o),
(490,0,cs),
(503,-1,o),
(514,9,o),
(514,22,cs),
(514,34,o),
(504,44,o),
(493,45,cs),
(471,46,o),
(460,53,o),
(460,82,cs),
(458,343,ls),
(457,428,o),
(417,520,o),
(263,520,cs),
(107,520,o),
(79,410,o),
(79,384,cs),
(79,371,o),
(89,361,o),
(102,361,cs),
(114,361,o),
(124,371,o),
(124,384,cs),
(124,399,o),
(141,475,o),
(263,475,cs),
(379.751,475,o),
(413,422,o),
(412.782,354.012,cs),
(413,311,o),
(360.074,273,o),
(243,273,cs),
(105,273,o),
(50,198,o),
(50,134,cs),
(50,63,o),
(103,-8,o),
(219,-8,cs)
);
}
);
width = 564;
}
);
},
{
glyphname = b;
lastChange = "2021-06-03 18:45:13 +0000";
layers = (
{
background = {
shapes = (
{
attr = {
strokeWidth = 1;
};
closed = 1;
nodes = (
(490,116,o),
(424,1,o),
(291,1,c),
(176,1,o),
(90,82,o),
(90,258,c),
(90,443,o),
(176,516,o),
(291,516,c),
(421,516,o),
(490,401,o),
(490,258,c)
);
},
{
attr = {
strokeWidth = 1;
};
closed = 0;
nodes = (
(90,701,l),
(90,1,l)
);
}
);
};
layerId = m01;
shapes = (
{
closed = 1;
nodes = (
(430,151,o),
(380,74,o),
(281,75,cs),
(192,76,o),
(130,133,o),
(130,258,cs),
(130,390,o),
(191,442,o),
(281,442,cs),
(378,442,o),
(430,366,o),
(430,258,cs)
);
},
{
closed = 1;
nodes = (
(510,394,o),
(428,522,o),
(281,522,cs),
(156,522,o),
(50,434,o),
(50,258,cs),
(50,92,o),
(155,-7,o),
(281,-6,cs),
(431,-5,o),
(510,123,o),
(510,258,cs)
);
},
{
closed = 1;
nodes = (
(130,680,ls),
(130,702,o),
(112,720,o),
(90,720,cs),
(68,720,o),
(50,702,o),
(50,680,cs),
(50,41,ls),
(50,18,o),
(68,0,o),
(90,0,cs),
(112,0,o),
(130,18,o),
(130,41,cs)
);
}
);
width = 540;
},
{
background = {
shapes = (
{
attr = {
strokeWidth = 1;
};
closed = 1;
nodes = (
(515,116,o),
(449,1,o),
(316,1,c),
(201,1,o),
(115,82,o),
(115,258,c),
(115,443,o),
(201,516,o),
(316,516,c),
(446,516,o),
(515,401,o),
(515,258,c)
);
},
{
attr = {
strokeWidth = 1;
};
closed = 0;
nodes = (
(115,701,l),
(115,1,l)
);
}
);
};
layerId = m004;
shapes = (
{
closed = 1;
nodes = (
(410,169,o),
(371,122,o),
(296,122,cs),
(227,122,o),
(180,166,o),
(180,258,cs),
(180,354,o),
(225,392,o),
(296,392,cs),
(369,392,o),
(410,344,o),
(410,258,cs)
);
},
{
closed = 1;
nodes = (
(540,388,o),
(461,522,o),
(326,522,cs),
(189,522,o),
(120,424,o),
(120,258,cs),
(120,100,o),
(177,-8,o),
(326,-8,cs),
(454,-8,o),
(540,111,o),
(540,258,cs)
);
},
{
closed = 1;
nodes = (
(180,655,ls),
(180,691,o),
(151,720,o),
(115,720,cs),
(79,720,o),
(50,691,o),
(50,655,cs),
(50,65,ls),
(50,29,o),
(79,0,o),
(115,0,cs),
(151,0,o),
(180,29,o),
(180,65,cs)
);
}
);
width = 570;
},
{
background = {
shapes = (
{
attr = {
strokeWidth = 1;
};
closed = 1;
nodes = (
(472,116,o),
(406,1,o),
(273,1,c),
(158,1,o),
(72,82,o),
(72,258,c),
(72,443,o),
(158,516,o),
(273,516,c),
(403,516,o),
(472,401,o),
(472,258,c)
);
},
{
attr = {
strokeWidth = 1;
};
closed = 0;
nodes = (
(72,701,l),
(72,1,l)
);
}
);
};
layerId = "6E2DD877-F1E1-49A3-9E5D-7A76BAA67C2C";
shapes = (
{
closed = 1;
nodes = (
(440,132,o),
(373,40,o),
(263,40,cs),
(167,40,o),
(95,102,o),
(95,258,cs),
(95,422,o),
(167,477,o),
(263,477,cs),
(370,477,o),
(440,384,o),
(440,258,cs)
);
},
{
closed = 1;
nodes = (
(485,400,o),
(399,522,o),
(263,522,cs),
(147,522,o),
(50,446,o),
(50,258,cs),
(50,79,o),
(146,-5,o),
(263,-5,cs),
(401,-5,o),
(485,117,o),
(485,258,cs)
);
},
{
closed = 1;
nodes = (
(95,698,ls),
(95,710,o),
(85,720,o),
(72,720,cs),
(60,720,o),
(50,710,o),
(50,698,cs),
(50,23,ls),
(50,10,o),
(60,0,o),
(72,0,cs),
(85,0,o),
(95,10,o),
(95,23,cs)
);
}
);
width = 515;
}
);
metricRight = o;
unicode = 98;
},
{
color = 0;
glyphname = b.ss01;
lastChange = "2021-06-03 18:45:48 +0000";
layers = (
{
background = {
shapes = (
{
attr = {
strokeWidth = 1;
};
closed = 1;
nodes = (
(490,116,o),
(424,1,o),
(291,1,c),
(176,1,o),
(90,82,o),
(90,258,c),
(90,443,o),
(176,516,o),
(291,516,c),
(421,516,o),
(490,401,o),
(490,258,c)
);
},
{
attr = {
strokeWidth = 1;
};
closed = 0;
nodes = (
(90,701,l),
(90,1,l)
);
}
);
};
layerId = m01;
shapes = (
{
closed = 1;
nodes = (
(430,151,o),
(380,74,o),
(281,75,cs),
(192,76,o),
(130,133,o),
(130,258,cs),
(130,390,o),
(191,442,o),
(281,442,cs),
(378,442,o),
(430,366,o),
(430,258,cs)
);
},
{
closed = 1;
nodes = (
(510,394,o),
(428,522,o),
(281,522,cs),
(156,522,o),
(50,434,o),
(50,258,cs),
(50,92,o),
(155,-7,o),
(281,-6,cs),
(431,-5,o),
(510,123,o),
(510,258,cs)
);
},
{
closed = 1;
nodes = (
(130,680,ls),
(130,702,o),
(112,720,o),
(90,720,cs),
(68,720,o),
(50,702,o),
(50,680,cs),
(50,41,ls),
(50,18,o),
(68,0,o),
(90,0,cs),
(112,0,o),
(130,18,o),
(130,41,cs)
);
}
);
width = 540;
},
{
background = {
shapes = (
{
attr = {
strokeWidth = 1;
};
closed = 1;
nodes = (
(515,116,o),
(449,1,o),
(316,1,c),
(201,1,o),
(115,82,o),
(115,258,c),
(115,443,o),
(201,516,o),
(316,516,c),
(446,516,o),
(515,401,o),
(515,258,c)
);
},
{
attr = {
strokeWidth = 1;
};
closed = 0;
nodes = (
(115,701,l),
(115,1,l)
);
}
);
};
layerId = m004;
shapes = (
{
closed = 1;
nodes = (
(410,169,o),
(371,122,o),
(296,122,cs),
(227,122,o),
(180,166,o),
(180,258,cs),
(180,354,o),
(225,392,o),
(296,392,cs),
(369,392,o),
(410,344,o),
(410,258,cs)
);
},
{
closed = 1;
nodes = (
(540,388,o),
(451,522,o),
(296,522,cs),
(169,522,o),
(50,424,o),
(50,258,cs),
(50,100,o),
(167,-8,o),
(296,-8,cs),
(454,-8,o),
(540,126,o),
(540,258,cs)
);
},
{
closed = 1;
nodes = (
(180,655,ls),
(180,691,o),
(151,720,o),
(115,720,cs),
(79,720,o),
(50,691,o),
(50,655,cs),
(50,65,ls),
(50,29,o),
(79,0,o),
(115,0,cs),
(151,0,o),
(180,29,o),
(180,65,cs)
);
}
);
width = 570;
},
{
background = {
shapes = (
{
attr = {
strokeWidth = 1;
};
closed = 1;
nodes = (
(472,116,o),
(406,1,o),
(273,1,c),
(158,1,o),
(72,82,o),
(72,258,c),
(72,443,o),
(158,516,o),
(273,516,c),
(403,516,o),
(472,401,o),
(472,258,c)
);
},
{
attr = {
strokeWidth = 1;
};
closed = 0;
nodes = (
(72,701,l),
(72,1,l)
);
}
);
};
layerId = "6E2DD877-F1E1-49A3-9E5D-7A76BAA67C2C";
shapes = (
{
closed = 1;
nodes = (
(440,132,o),
(373,40,o),
(263,40,cs),
(167,40,o),
(95,102,o),
(95,258,cs),
(95,422,o),
(167,477,o),
(263,477,cs),
(370,477,o),
(440,384,o),
(440,258,cs)
);
},
{
closed = 1;
nodes = (
(485,400,o),
(399,522,o),
(263,522,cs),
(147,522,o),
(50,446,o),
(50,258,cs),
(50,79,o),
(146,-5,o),
(263,-5,cs),
(401,-5,o),
(485,117,o),
(485,258,cs)
);
},
{
closed = 1;
nodes = (
(95,698,ls),
(95,710,o),
(85,720,o),
(72,720,cs),
(60,720,o),
(50,710,o),
(50,698,cs),
(50,23,ls),
(50,10,o),
(60,0,o),
(72,0,cs),
(85,0,o),
(95,10,o),
(95,23,cs)
);
}
);
width = 515;
}
);
metricRight = o;
},
{
color = 3;
glyphname = c;
lastChange = "2021-06-23 19:16:54 +0000";
layers = (
{
background = {
shapes = (
{
attr = {
strokeWidth = 1;
};
closed = 0;
nodes = (
(63,400,l),
(63,418,o),
(85,514,o),
(234,514,c),
(371,514,o),
(406,436,o),
(406,359,c),
(406,358,o),
(408,149,o),
(408,68,c),
(408,8,o),
(462,8,o),
(462,8,c)
);
},
{
attr = {
strokeWidth = 1;
};
closed = 0;
nodes = (
(405,114,l),
(405,114,o),
(323,1,o),
(190,1,c),
(79,1,o),
(33,60,o),
(33,120,c),
(33,174,o),
(81,266,o),
(214,266,c),
(394,266,o),
(406,366,o),
(406,366,c)
);
},
{
attr = {
lineCapEnd = "1";
lineCapStart = "1";
strokeHeight = 80;
strokeWidth = 80;
};
closed = 0;
nodes = (
(407,167,l),
(400,88,o),
(325,31,o),
(252,31,c),
(150,31,o),
(70,133,o),
(70,259,c),
(70,386,o),
(150,484,o),
(252,484,c),
(321,484,o),
(390,433,o),
(390,391,c)
);
}
);
};
layerId = m01;
shapes = (
{
closed = 1;
nodes = (
(430,464,o),
(347,524,o),
(252,524,cs),
(115,524,o),
(30,405.853,o),
(30,259,cs),
(30,109,o),
(108,-9,o),
(252,-9,cs),
(353,-9,o),
(447,62,o),
(446.845,163.469,cs),
(447,186,o),
(431.156,207,o),
(407,207,cs),
(386.098,207,o),
(367,191,o),
(367.155,170.531,cs),
(367,112,o),
(317,71,o),
(252,71,cs),
(159,71,o),
(110,146.815,o),
(110,259,cs),
(110,363,o),
(163,444,o),
(252,444,cs),
(307.822,444,o),
(350,412.825,o),
(350,391,cs),
(350,368.908,o),
(367.908,351,o),
(390,351,cs),
(412.092,351,o),
(430,368.908,o),
(430,391,cs)
);
}
);
width = 477;
},
{
background = {
shapes = (
{
attr = {
strokeWidth = 1;
};
closed = 0;
nodes = (
(70,400,l),
(70,418,o),
(92,514,o),
(241,514,c),
(378,514,o),
(413,436,o),
(413,359,c),
(413,358,o),
(415,149,o),
(415,68,c),
(415,8,o),
(469,8,o),
(469,8,c)
);
},
{
attr = {
strokeWidth = 1;
};
closed = 0;
nodes = (
(412,114,l),
(412,114,o),
(330,1,o),
(197,1,c),
(86,1,o),
(40,60,o),
(40,120,c),
(40,174,o),
(88,266,o),
(221,266,c),
(401,266,o),
(413,366,o),
(413,366,c)
);
},
{
attr = {
lineCapEnd = "1";
lineCapStart = "1";
strokeHeight = 130;
strokeWidth = 130;
};
closed = 0;
nodes = (
(396,176,l),
(389,106,o),
(322,55,o),
(257,55,c),
(167,55,o),
(95,146,o),
(95,258,c),
(95,371,o),
(167,459,o),
(257,459,c),
(310,459,o),
(381,414,o),
(381,376,c)
);
},
{
attr = {
lineCapEnd = "1";
lineCapStart = "1";
strokeHeight = 130;
strokeWidth = 130;
};
closed = 0;
nodes = (
(396,176,l),
(389,106,o),
(322,55,o),
(257,55,c),
(167,55,o),
(95,146,o),
(95,258,c),
(95,371,o),
(167,459,o),
(257,459,c),
(320,459,o),
(381,414,o),
(381,376,c)
);
}
);
};
layerId = m004;
shapes = (
{
closed = 1;
nodes = (
(446,457,o),
(359,525,o),
(257,524,cs),
(108,522,o),
(30,402,o),
(30,258,cs),
(30,102,o),
(121,-10,o),
(257,-10,cs),
(356,-10,o),
(459,57,o),
(459,170,cs),
(459,205,o),
(437.422,241,o),
(396,241,cs),
(362.284,241,o),
(335,215,o),
(331.32,182.468,cs),
(327,141,o),
(300.076,120,o),
(257,120,cs),
(198,120,o),
(160,169,o),
(160,258,cs),
(160,347.797,o),
(197.802,394,o),
(257,394,cs),
(298.619,394,o),
(316,381.178,o),
(316,376,cs),
(316,340.101,o),
(345.101,311,o),
(381,311,cs),
(416.899,311,o),
(446,340.101,o),
(446,376,cs)
);
}
);
width = 489;
},
{
background = {
shapes = (
{
attr = {
strokeWidth = 1;
};
closed = 0;
nodes = (
(87,400,l),
(87,418,o),
(109,514,o),
(258,514,c),
(395,514,o),
(430,436,o),
(430,359,c),
(430,358,o),
(432,164,o),
(432,83,c),
(432,23,o),
(486,23,o),
(486,23,c)
);
},
{
attr = {
strokeWidth = 1;
};
closed = 0;
nodes = (
(429,114,l),
(429,114,o),
(347,1,o),
(214,1,c),
(103,1,o),
(57,60,o),
(57,120,c),
(57,174,o),
(105,266,o),
(238,266,c),
(418,266,o),
(430,366,o),
(430,366,c)
);
},
{
attr = {
lineCapEnd = "1";
lineCapStart = "1";
strokeHeight = 45;
strokeWidth = 45;
};
closed = 0;
nodes = (
(415,160,l),
(407,75,o),
(327,13,o),
(248,13,c),
(138,13,o),
(52,123,o),
(52,259,c),
(52,396,o),
(138,502,o),
(248,502,c),
(332,502,o),
(397,447,o),
(397,401,c)
);
}
);
};
layerId = "6E2DD877-F1E1-49A3-9E5D-7A76BAA67C2C";
shapes = (
{
closed = 1;
nodes = (
(419.5,461.435,o),
(342,524,o),
(238,524,cs),
(114,525,o),
(29.5,406.979,o),
(29.5,259,cs),
(29.5,112.248,o),
(114,-10,o),
(248,-9.5,cs),
(337,-9,o),
(428,60,o),
(437.402,157.892,cs),
(439,171,o),
(428.074,182.5,o),
(415,182.5,cs),
(403.284,182.5,o),
(394,174,o),
(392.598,162.108,cs),
(386,87,o),
(319,35,o),
(248,35.5,cs),
(139,36,o),
(74.5,130.752,o),
(74.5,259,cs),
(74.5,388.021,o),
(139,480,o),
(238,479,cs),
(324,479,o),
(374.5,436.565,o),
(374.5,401,cs),
(374.5,388.573,o),
(384.573,378.5,o),
(397,378.5,cs),
(409.427,378.5,o),
(419.5,388.573,o),
(419.5,401,cs)
);
}
);
width = 467;
}
);
metricLeft = o;
metricRight = o;
unicode = 99;
},
{
glyphname = d;
lastChange = "2021-06-22 18:58:35 +0000";
layers = (
{
background = {
shapes = (
{
attr = {
strokeWidth = 1;
};
closed = 0;
nodes = (
(115,400,l),
(115,418,o),
(137,514,o),
(286,514,c),
(423,514,o),
(458,436,o),
(458,359,c),
(458,358,o),
(460,149,o),
(460,68,c),
(460,8,o),
(514,8,o),
(514,8,c)
);
},
{
attr = {
strokeWidth = 1;
};
closed = 0;
nodes = (
(457,114,l),
(457,114,o),
(375,1,o),
(242,1,c),
(131,1,o),
(85,60,o),
(85,120,c),
(85,174,o),
(133,266,o),
(266,266,c),
(446,266,o),
(458,366,o),
(458,366,c)
);
}
);
};
layerId = m01;
shapes = (
{
closed = 1;
nodes = (
(110,366,o),
(162,442,o),
(259,442,cs),
(349,442,o),
(410,390,o),
(410,258,cs),
(410,133,o),
(348,76,o),
(259,75,cs),
(160,74,o),
(110,151,o),
(110,258,cs)
);
},
{
closed = 1;
nodes = (
(30,123,o),
(109,-5,o),
(259,-6,cs),
(385,-7,o),
(490,92,o),
(490,258,cs),
(490,434,o),
(384,522,o),
(259,522,cs),
(112,522,o),
(30,394,o),
(30,258,cs)
);
},
{
closed = 1;
nodes = (
(410,18,o),
(428,0,o),
(450,0,cs),
(472,0,o),
(490,18,o),
(490,41,cs),
(490,680,ls),
(490,702,o),
(472,720,o),
(450,720,cs),
(428,720,o),
(410,702,o),
(410,680,cs),
(410,41,ls)
);
}
);
width = 540;
},
{
background = {
shapes = (
{
attr = {
strokeWidth = 1;
};
closed = 0;
nodes = (
(115,400,l),
(115,418,o),
(137,514,o),
(286,514,c),
(423,514,o),
(458,436,o),
(458,359,c),
(458,358,o),
(460,149,o),
(460,68,c),
(460,8,o),
(514,8,o),
(514,8,c)
);
},
{
attr = {
strokeWidth = 1;
};
closed = 0;
nodes = (
(457,114,l),
(457,114,o),
(375,1,o),
(242,1,c),
(131,1,o),
(85,60,o),
(85,120,c),
(85,174,o),
(133,266,o),
(266,266,c),
(446,266,o),
(458,366,o),
(458,366,c)
);
}
);
};
layerId = m004;
shapes = (
{
closed = 1;
nodes = (
(160,344,o),
(201,392,o),
(274,392,cs),
(345,392,o),
(390,354,o),
(390,258,cs),
(390,166,o),
(343,122,o),
(274,122,cs),
(199,122,o),
(160,169,o),
(160,258,cs)
);
},
{
closed = 1;
nodes = (
(30,111,o),
(116,-8,o),
(244,-8,cs),
(393,-8,o),
(450,100,o),
(450,258,cs),
(450,424,o),
(381,522,o),
(244,522,cs),
(109,522,o),
(30,388,o),
(30,258,cs)
);
},
{
closed = 1;
nodes = (
(390,29,o),
(419,0,o),
(455,0,cs),
(491,0,o),
(520,29,o),
(520,65,cs),
(520,655,ls),
(520,691,o),
(491,720,o),
(455,720,cs),
(419,720,o),
(390,691,o),
(390,655,cs),
(390,65,ls)
);
}
);
width = 570;
},
{
background = {
shapes = (
{
attr = {
strokeWidth = 1;
};
closed = 0;
nodes = (
(92,400,l),
(92,418,o),
(114,514,o),
(263,514,c),
(400,514,o),
(435,436,o),
(435,359,c),
(435,358,o),
(437,164,o),
(437,83,c),
(437,23,o),
(491,23,o),
(491,23,c)
);
},
{
attr = {
strokeWidth = 1;
};
closed = 0;
nodes = (
(434,114,l),
(434,114,o),
(352,1,o),
(219,1,c),
(108,1,o),
(62,60,o),
(62,120,c),
(62,174,o),
(110,266,o),
(243,266,c),
(423,266,o),
(435,366,o),
(435,366,c)
);
}
);
};
layerId = "6E2DD877-F1E1-49A3-9E5D-7A76BAA67C2C";
shapes = (
{
closed = 1;
nodes = (
(75,384,o),
(145,477,o),
(252,477,cs),
(348,477,o),
(420,422,o),
(420,258,cs),
(420,102,o),
(348,40,o),
(252,40,cs),
(142,40,o),
(75,132,o),
(75,258,cs)
);
},
{
closed = 1;
nodes = (
(30,117,o),
(114,-5,o),
(252,-5,cs),
(369,-5,o),
(465,79,o),
(465,258,cs),
(465,446,o),
(368,522,o),
(252,522,cs),
(116,522,o),
(30,400,o),
(30,258,cs)
);
},
{
closed = 1;
nodes = (
(420,10,o),
(430,0,o),
(443,0,cs),
(455,0,o),
(465,10,o),
(465,23,cs),
(465,698,ls),
(465,710,o),
(455,720,o),
(443,720,cs),
(430,720,o),
(420,710,o),
(420,698,cs),
(420,23,ls)
);
}
);
width = 515;
}
);
unicode = 100;
},
{
glyphname = e;
lastChange = "2021-06-23 16:43:16 +0000";
layers = (
{
background = {
shapes = (
{
attr = {
strokeWidth = 1;
};
closed = 0;
nodes = (
(466,111,l),
(466,77,o),
(378,1,o),
(268,1,c),
(146,1,o),
(50,94,o),
(50,260,c),
(50,406,o),
(145,521,o),
(267,521,c),
(389,521,o),
(485,418,o),
(485,280,c),
(51,280,l)
);
}
);
};
layerId = m01;
shapes = (
{
closed = 1;
nodes = (
(395,-10,o),
(496,84,o),
(496,140,cs),
(496,162,o),
(478,180,o),
(456,180,cs),
(433,180,o),
(416,162,o),
(416,140,cs),
(416,124,o),
(353,69,o),
(268,69,cs),
(182,69,o),
(110,120,o),
(110,260,cs),
(110,376,o),
(184,445,o),
(267,445,cs),
(360,445,o),
(406,386,o),
(423,313,c),
(94,313,l),
(94,233,l),
(445,233,ls),
(483,233,o),
(509,254,o),
(506,292,cs),
(496,416,o),
(406,525,o),
(267,525,cs),
(141,525,o),
(30,410,o),
(30,260,cs),
(30,81,o),
(144,-10,o),
(268,-10,cs)
);
}
);
width = 536;
},
{
background = {
shapes = (
{
attr = {
strokeWidth = 1;
};
closed = 0;
nodes = (
(461,111,l),
(461,77,o),
(373,1,o),
(263,1,c),
(141,1,o),
(45,94,o),
(45,260,c),
(45,406,o),
(140,521,o),
(262,521,c),
(384,521,o),
(480,418,o),
(480,280,c),
(46,280,l)
);
},
{
closed = 1;
nodes = (
(113,815,l),
(422,815,ls),
(485,815,o),
(531,848,o),
(523,912,cs),
(509,1019,o),
(391,1136,o),
(262,1136,cs),
(121,1136,o),
(0,988,o),
(0,860,cs),
(0,707,o),
(126,586,o),
(263,586,cs),
(389,586,o),
(506,687,o),
(506,761,cs),
(506,797,o),
(477,826,o),
(441,826,cs),
(405,826,o),
(376,797,o),
(376,761,cs),
(376,757,o),
(329,716,o),
(263,716,cs),
(187,716,o),
(130,772,o),
(130,860,cs),
(130,933,o),
(191,1006,o),
(262,1006,cs),
(316,1006,o),
(368,967,o),
(387,945,c),
(113,945,l)
);
}
);
};
layerId = m004;
shapes = (
{
closed = 1;
nodes = (
(367,-10,o),
(473,53,o),
(473,122,cs),
(473,158,o),
(448,185,o),
(412,185,cs),
(390,185,o),
(370,174,o),
(358,157,cs),
(346,138,o),
(311,120,o),
(263,120,cs),
(196,120,o),
(160,155,o),
(160,257,cs),
(160,348,o),
(199,395,o),
(262,395,cs),
(306,395,o),
(340,365,o),
(357,322,c),
(147,322,l),
(147,212,l),
(412,212,ls),
(475,212,o),
(500,240,o),
(493,303,cs),
(479,431,o),
(382,525,o),
(262,525,cs),
(130,525,o),
(30,404,o),
(30,257,cs),
(30,90,o),
(135,-10,o),
(263,-10,cs)
);
}
);
width = 524;
},
{
background = {
shapes = (
{
attr = {
strokeWidth = 1;
};
closed = 0;
nodes = (
(449,111,l),
(449,77,o),
(361,1,o),
(251,1,c),
(129,1,o),
(33,94,o),
(33,260,c),
(33,406,o),
(128,521,o),
(250,521,c),
(372,521,o),
(468,418,o),
(468,280,c),
(34,280,l)
);
}
);
};
layerId = "6E2DD877-F1E1-49A3-9E5D-7A76BAA67C2C";
shapes = (
{
closed = 1;
nodes = (
(370,-5,o),
(461,68,o),
(461,128,cs),
(461,140,o),
(451,150,o),
(439,150,cs),
(426,150,o),
(416,140,o),
(416,128,cs),
(416,95,o),
(353,40,o),
(261,40,cs),
(148,40,o),
(75,121,o),
(75,260,cs),
(75,376,o),
(149,477,o),
(250,477,cs),
(356,477,o),
(426,397,o),
(435,302,c),
(67,302,l),
(67,257,l),
(460,257,ls),
(472,257,o),
(481,264,o),
(481,277,cs),
(482,406,o),
(386,522,o),
(250,522,cs),
(125,522,o),
(30,395,o),
(30,260,cs),
(30,99,o),
(126,-5,o),
(261,-5,cs)
);
}
);
width = 511;
}
);
metricLeft = o;
metricRight = o;
unicode = 101;
},
{
glyphname = f;
lastChange = "2021-06-23 16:28:02 +0000";
layers = (
{
background = {
shapes = (
{
attr = {
lineCapEnd = "1";
lineCapStart = "1";
strokeHeight = 80;
strokeWidth = 80;
};
closed = 0;
nodes = (
(70,503,l),
(160,503,l)
);
},
{
attr = {
lineCapEnd = "1";
lineCapStart = "1";
strokeHeight = 80;
strokeWidth = 80;
};
closed = 0;
nodes = (
(169,679,l),
(124,679,o),
(101,653,o),
(101,621,c),
(101,40,l)
);
}
);
};
layerId = m01;
shapes = (
{
closed = 1;
nodes = (
(70,543,l),
(47.908,543,o),
(30,525.092,o),
(30,503,c),
(30,480.908,o),
(47.908,463,o),
(70,463,c),
(160,463,l),
(182.092,463,o),
(200,480.908,o),
(200,503,c),
(200,525.092,o),
(182.092,543,o),
(160,543,c)
);
},
{
closed = 1;
nodes = (
(141,621,l),
(141,637.847,o),
(142.02,639,o),
(169,639,c),
(191.092,639,o),
(209,656.908,o),
(209,679,c),
(209,701.092,o),
(191.092,719,o),
(169,719,c),
(96.38,719,o),
(61,669.6,o),
(61,621,c),
(61,40,l),
(61,17.908,o),
(78.908,0,o),
(101,0,c),
(123.092,0,o),
(141,17.908,o),
(141,40,c)
);
}
);
width = 239;
},
{
background = {
shapes = (
{
attr = {
lineCapEnd = "1";
lineCapStart = "1";
strokeHeight = 130;
strokeWidth = 130;
};
closed = 0;
nodes = (
(95,494,l),
(179,494,l)
);
},
{
attr = {
lineCapEnd = "1";
lineCapStart = "1";
strokeHeight = 130;
strokeWidth = 130;
};
closed = 0;
nodes = (
(188,657,l),
(145,657,o),
(124,633,o),
(124,603,c),
(124,64,l)
);
}
);
};
layerId = m004;
shapes = (
{
closed = 1;
nodes = (
(65,559,l),
(29,559,o),
(0,530,o),
(0,494,c),
(0,458,o),
(29,429,o),
(65,429,c),
(209,429,l),
(245,429,o),
(274,458,o),
(274,494,c),
(274,530,o),
(245,559,o),
(209,559,c)
);
},
{
closed = 1;
nodes = (
(189,570,l),
(189,587,o),
(195,590,o),
(210,590,c),
(246,590,o),
(275,619,o),
(275,655,c),
(275,691,o),
(246,720,o),
(188,720,c),
(111,720,o),
(59,669,o),
(59,601,c),
(59,64,l),
(59,28.101,o),
(88.101,-1,o),
(124,-1,c),
(159.899,-1,o),
(189,28.101,o),
(189,64,c)
);
}
);
width = 283;
},
{
background = {
shapes = (
{
attr = {
lineCapEnd = "1";
lineCapStart = "1";
strokeHeight = 45;
strokeWidth = 45;
};
closed = 0;
nodes = (
(52,513,l),
(147,513,l)
);
},
{
attr = {
lineCapEnd = "1";
lineCapStart = "1";
strokeHeight = 45;
strokeWidth = 45;
};
closed = 0;
nodes = (
(157,699,l),
(109,699,o),
(85,671,o),
(85,637,c),
(85,22,l)
);
}
);
};
layerId = "6E2DD877-F1E1-49A3-9E5D-7A76BAA67C2C";
shapes = (
{
closed = 1;
nodes = (
(52,535.5,l),
(39.573,535.5,o),
(29.5,525.427,o),
(29.5,513,c),
(29.5,500.573,o),
(39.573,490.5,o),
(52,490.5,c),
(147,490.5,l),
(159.427,490.5,o),
(169.5,500.573,o),
(169.5,513,c),
(169.5,525.427,o),
(159.427,535.5,o),
(147,535.5,c)
);
},
{
closed = 1;
nodes = (
(107.5,637,l),
(107.5,662.677,o),
(119.349,676.5,o),
(157,676.5,c),
(169.427,676.5,o),
(179.5,686.573,o),
(179.5,699,c),
(179.5,711.427,o),
(169.427,721.5,o),
(157,721.5,c),
(95.651,721.5,o),
(62.5,682.323,o),
(62.5,637,c),
(62.5,22,l),
(62.5,9.573,o),
(72.573,-0.5,o),
(85,-0.5,c),
(97.427,-0.5,o),
(107.5,9.573,o),
(107.5,22,c)
);
}
);
width = 210;
}
);
unicode = 102;
},
{
color = 3;
glyphname = g;
lastChange = "2021-06-23 16:41:27 +0000";
layers = (
{
background = {
shapes = (
{
attr = {
strokeHeight = 80;
strokeWidth = 80;
};
closed = 1;
nodes = (
(411,104,o),
(335,30,o),
(249,30,c),
(151,30,o),
(70,131,o),
(70,258,c),
(70,384,o),
(151,485,o),
(249,485,c),
(335,485,o),
(409,420,o),
(430,318,c),
(430,203,l)
);
},
{
attr = {
lineCapEnd = "1";
lineCapStart = "1";
strokeHeight = 80;
strokeWidth = 80;
};
closed = 0;
nodes = (
(430,476,l),
(430,43,l)
);
},
{
attr = {
lineCapEnd = "1";
lineCapStart = "1";
strokeHeight = 80;
strokeWidth = 80;
};
closed = 0;
nodes = (
(430,43,l),
(430,-59,o),
(347,-140,o),
(231,-140,c),
(154,-140,o),
(113,-97,o),
(113,-76,c)
);
}
);
};
layerId = m01;
shapes = (
{
closed = 1;
nodes = (
(369,-180,o),
(470,-81,o),
(470,43,cs),
(470,476,ls),
(470,498,o),
(452.092,516,o),
(430,516,cs),
(407.908,516,o),
(390,498.092,o),
(390,476,cs),
(390,43,ls),
(390,-42.145,o),
(330.716,-100,o),
(231,-100,cs),
(171.129,-100,o),
(153,-80.987,o),
(153,-76,cs),
(153,-53.908,o),
(135.092,-36,o),
(113,-36,cs),
(90.908,-36,o),
(73,-53.908,o),
(73,-76,cs),
(73,-119.6,o),
(129.271,-180,o),
(231,-180,cs)
);
},
{
closed = 1;
nodes = (
(357.047,-10,o),
(449.075,81.601,o),
(470,199.34,c),
(400,207,l),
(383,122,o),
(317.772,70,o),
(249,70,cs),
(170.195,70,o),
(110,148,o),
(110,258,cs),
(110,369.942,o),
(170.195,445,o),
(249,445,cs),
(318.893,445,o),
(363,400,o),
(400,315,c),
(470,322,l),
(447,444,o),
(355.885,525,o),
(249,525,cs),
(118,525,o),
(30,405,o),
(30,258,cs),
(30,98,o),
(128,-10,o),
(249,-10,cs)
);
}
);
width = 520;
},
{
layerId = m004;
shapes = (
{
closed = 1;
nodes = (
(363.264,-179,o),
(478,-80.263,o),
(478,68,cs),
(478,451,ls),
(478,486.899,o),
(448.899,516,o),
(413,516,cs),
(377.101,516,o),
(348,487,o),
(348,451,cs),
(348,68,ls),
(348,-12,o),
(305.736,-49,o),
(247,-49,cs),
(217,-49,o),
(197,-49,o),
(195.459,-43.898,cs),
(187,-15,o),
(163.056,7,o),
(132,7,cs),
(87.87,7,o),
(60.125,-34.093,o),
(68.541,-72.102,cs),
(79,-120,o),
(127,-179,o),
(247,-179,cs)
);
},
{
closed = 1;
nodes = (
(365.524,-9,o),
(457.915,85.644,o),
(478,204.18,c),
(354,217,l),
(340,152,o),
(300.922,121,o),
(252,121,cs),
(196.79,121,o),
(160,168.302,o),
(160,259,cs),
(160,348.501,o),
(196.572,395,o),
(252,395,cs),
(302.635,395,o),
(340,369,o),
(355,304,c),
(478,317,l),
(455.126,440.719,o),
(363.698,525,o),
(252,525,cs),
(124.628,525,o),
(30,402.299,o),
(30,259,cs),
(30,113,o),
(126,-9,o),
(252,-9,cs)
);
}
);
width = 528;
},
{
background = {
shapes = (
{
attr = {
strokeHeight = 45;
strokeWidth = 45;
};
closed = 1;
nodes = (
(417,93,o),
(336,14,o),
(244,14,c),
(138,14,o),
(52,123,o),
(52,257,c),
(52,393,o),
(138,502,o),
(244,502,c),
(335,502,o),
(415,432,o),
(438,322,c),
(438,200,l)
);
},
{
attr = {
lineCapEnd = "1";
lineCapStart = "1";
strokeHeight = 45;
strokeWidth = 45;
};
closed = 0;
nodes = (
(438,492,l),
(438,28,l)
);
},
{
attr = {
lineCapEnd = "1";
lineCapStart = "1";
strokeHeight = 45;
strokeWidth = 45;
};
closed = 0;
nodes = (
(438,28,l),
(438,-70,o),
(349,-157,o),
(224,-157,c),
(142,-157,o),
(98,-111,o),
(98,-88,c)
);
}
);
};
layerId = "6E2DD877-F1E1-49A3-9E5D-7A76BAA67C2C";
shapes = (
{
closed = 1;
nodes = (
(361,-180,o),
(461,-82,o),
(461,28,cs),
(461,492,ls),
(461,504,o),
(450,515,o),
(438,515,cs),
(426,515,o),
(416,504,o),
(416,492,cs),
(416,28,ls),
(416,-61,o),
(340,-135,o),
(224,-135,cs),
(152,-135,o),
(121,-102,o),
(121,-88,cs),
(121,-76,o),
(110,-66,o),
(98,-66,cs),
(86,-66,o),
(76,-76,o),
(76,-88,cs),
(76,-124,o),
(129,-180,o),
(224,-180,cs)
);
},
{
closed = 1;
nodes = (
(348,-9,o),
(438,80,o),
(460,198,c),
(416,202,l),
(395,103,o),
(326,37,o),
(244,37,cs),
(149,37,o),
(75,131,o),
(75,257,cs),
(75,385,o),
(149,480,o),
(244,480,cs),
(326,480,o),
(394,421,o),
(416,320,c),
(461,324,l),
(436,446,o),
(347,525,o),
(244,525,cs),
(124,525,o),
(30,404,o),
(30,257,cs),
(30,112,o),
(124,-9,o),
(244,-9,cs)
);
}
);
width = 508;
}
);
metricLeft = o;
metricRight = i;
unicode = 103;
},
{
glyphname = h;
lastChange = "2021-06-22 16:40:44 +0000";
layers = (
{
background = {
shapes = (
{
attr = {
lineCapEnd = "1";
lineCapStart = "1";
strokeHeight = 80;
strokeWidth = 80;
};
closed = 0;
nodes = (
(179,262,l),
(179,447,o),
(267,516,o),
(379,516,cs),
(509,516,o),
(536,400,o),
(536,258,c),
(536,0,l)
);
},
{
attr = {
lineCapEnd = "1";
lineCapStart = "1";
strokeHeight = 80;
strokeWidth = 80;
};
closed = 0;
nodes = (
(179,762,l),
(179,0,l)
);
},
{
attr = {
strokeWidth = 1;
};
closed = 0;
nodes = (
(90,262,l),
(90,447,o),
(178,516,o),
(290,516,c),
(420,516,o),
(447,400,o),
(447,258,c),
(447,0,l)
);
},
{
attr = {
strokeWidth = 1;
};
closed = 0;
nodes = (
(90,700,l),
(90,0,l)
);
}
);
};
layerId = m01;
shapes = (
{
closed = 1;
nodes = (
(130,680,ls),
(130,702,o),
(112,720,o),
(90,720,cs),
(67,720,o),
(50,702,o),
(50,680,cs),
(50,40,ls),
(50,18,o),
(67,0,o),
(90,0,cs),
(112,0,o),
(130,18,o),
(130,40,cs)
);
},
{
closed = 1;
nodes = (
(120,200,l),
(126,207,o),
(130,217,o),
(130,227,cs),
(130,392,o),
(191,441,o),
(290,441,cs),
(378,441,o),
(397,381,o),
(397,243,cs),
(397,40,ls),
(397,18,o),
(415,0,o),
(437,0,cs),
(459,0,o),
(477,18,o),
(477,40,cs),
(477,243,ls),
(477,394,o),
(444,521,o),
(290,521,cs),
(224,521,o),
(163,500,o),
(120,452,c)
);
}
);
width = 537;
},
{
background = {
shapes = (
{
attr = {
lineCapEnd = "1";
lineCapStart = "1";
strokeHeight = 190;
strokeWidth = 190;
};
closed = 0;
nodes = (
(249,262,l),
(249,447,o),
(337,516,o),
(449,516,cs),
(579,516,o),
(606,400,o),
(606,258,c),
(606,55,l)
);
},
{
attr = {
lineCapEnd = "1";
lineCapStart = "1";
strokeHeight = 190;
strokeWidth = 190;
};
closed = 0;
nodes = (
(249,705,l),
(249,55,l)
);
}
);
};
layerId = m004;
shapes = (
{
closed = 1;
nodes = (
(180,655,ls),
(180,691,o),
(151,720,o),
(115,720,cs),
(79,720,o),
(50,691,o),
(50,655,cs),
(50,65,ls),
(50,29,o),
(79,0,o),
(115,0,cs),
(151,0,o),
(180,29,o),
(180,65,cs)
);
},
{
closed = 1;
nodes = (
(167,161,l),
(175,172,o),
(180,186,o),
(180,201,cs),
(180,354,o),
(215,390,o),
(285,390,cs),
(363,390,o),
(377,342,o),
(377,227,cs),
(377,65,ls),
(377,29,o),
(406,0,o),
(442,0,cs),
(478,0,o),
(507,29,o),
(507,65,cs),
(507,257,ls),
(507,392,o),
(470,520,o),
(305,520,cs),
(250,520,o),
(209,507,o),
(167,478,c)
);
}
);
width = 557;
},
{
background = {
shapes = (
{
attr = {
lineCapEnd = "1";
lineCapStart = "1";
strokeHeight = 45;
strokeWidth = 45;
};
closed = 0;
nodes = (
(-438,262,l),
(-438,447,o),
(-350,516,o),
(-238,516,cs),
(-108,516,o),
(-81,400,o),
(-81,258,c),
(-81,-17,l)
);
},
{
attr = {
lineCapEnd = "1";
lineCapStart = "1";
strokeHeight = 45;
strokeWidth = 45;
};
closed = 0;
nodes = (
(-438,776,l),
(-438,-17,l)
);
},
{
attr = {
strokeWidth = 1;
};
closed = 0;
nodes = (
(73,262,l),
(73,447,o),
(161,516,o),
(273,516,c),
(403,516,o),
(430,400,o),
(430,258,c),
(430,0,l)
);
},
{
attr = {
strokeWidth = 1;
};
closed = 0;
nodes = (
(73,700,l),
(73,0,l)
);
}
);
};
layerId = "6E2DD877-F1E1-49A3-9E5D-7A76BAA67C2C";
shapes = (
{
closed = 1;
nodes = (
(95,697,ls),
(95,709,o),
(85,720,o),
(73,720,cs),
(60,720,o),
(50,709,o),
(50,697,cs),
(50,23,ls),
(50,11,o),
(60,0,o),
(73,0,cs),
(85,0,o),
(95,11,o),
(95,23,cs)
);
},
{
closed = 1;
nodes = (
(87,224,l),
(92,228,o),
(95,234,o),
(95,241,cs),
(95,415,o),
(163,472,o),
(268,472,cs),
(378,472,o),
(400,377,o),
(400,237,cs),
(400,22,ls),
(400,10,o),
(410,0,o),
(423,0,cs),
(435,0,o),
(445,10,o),
(445,22,cs),
(445,237,ls),
(445,385,o),
(415,517,o),
(268,517,cs),
(191,517,o),
(127,487,o),
(87,414,c)
);
}
);
width = 495;
}
);
unicode = 104;
},
{
glyphname = i;
lastChange = "2021-06-22 19:31:04 +0000";
layers = (
{
background = {
shapes = (
{
attr = {
lineCapEnd = "1";
lineCapStart = "1";
strokeHeight = 80;
strokeWidth = 80;
};
closed = 0;
nodes = (
(90,475,l),
(90,40,l)
);
},
{
attr = {
lineCapEnd = "1";
lineCapStart = "1";
strokeHeight = 80;
strokeWidth = 80;
};
closed = 0;
nodes = (
(90,700,l),
(90,681,l)
);
}
);
};
layerId = m01;
shapes = (
{
closed = 1;
nodes = (
(130,475,l),
(130,497.092,o),
(112.092,515,o),
(90,515,c),
(67.908,515,o),
(50,497.092,o),
(50,475,c),
(50,40,l),
(50,17.908,o),
(67.908,0,o),
(90,0,c),
(112.092,0,o),
(130,17.908,o),
(130,40,c)
);
},
{
ref = dotaccentcomb;
}
);
width = 180;
},
{
background = {
shapes = (
{
attr = {
lineCapEnd = "1";
lineCapStart = "1";
strokeHeight = 130;
strokeWidth = 130;
};
closed = 0;
nodes = (
(115,450,l),
(115,65,l)
);
},
{
attr = {
lineCapEnd = "1";
lineCapStart = "1";
strokeHeight = 130;
strokeWidth = 130;
};
closed = 0;
nodes = (
(115,700,l),
(115,681,l)
);
}
);
};
layerId = m004;
shapes = (
{
closed = 1;
nodes = (
(180,450,l),
(180,485.899,o),
(150.899,515,o),
(115,515,c),
(79.101,515,o),
(50,485.899,o),
(50,450,c),
(50,65,l),
(50,29.101,o),
(79.101,0,o),
(115,0,c),
(150.899,0,o),
(180,29.101,o),
(180,65,c)
);
},
{
ref = dotaccentcomb;
}
);
width = 230;
},
{
background = {
shapes = (
{
attr = {
lineCapEnd = "1";
lineCapStart = "1";
strokeHeight = 45;
strokeWidth = 45;
};
closed = 0;
nodes = (
(73,492,l),
(73,22,l)
);
},
{
attr = {
lineCapEnd = "1";
lineCapStart = "1";
strokeHeight = 45;
strokeWidth = 45;
};
closed = 0;
nodes = (
(73,700,l),
(73,681,l)
);
}
);
};
layerId = "6E2DD877-F1E1-49A3-9E5D-7A76BAA67C2C";
shapes = (
{
closed = 1;
nodes = (
(95.5,492,l),
(95.5,504.427,o),
(85.427,514.5,o),
(73,514.5,c),
(60.573,514.5,o),
(50.5,504.427,o),
(50.5,492,c),
(50.5,22,l),
(50.5,9.573,o),
(60.573,-0.5,o),
(73,-0.5,c),
(85.427,-0.5,o),
(95.5,9.573,o),
(95.5,22,c)
);
},
{
ref = dotaccentcomb;
}
);
width = 146;
}
);
unicode = 105;
},
{
glyphname = j;
lastChange = "2021-06-22 20:25:23 +0000";
layers = (
{
background = {
shapes = (
{
attr = {
lineCapEnd = "1";
lineCapStart = "1";
strokeHeight = 80;
strokeWidth = 80;
};
closed = 0;
nodes = (
(60,-140,l),
(110,-140,o),
(112,-112,o),
(112,-89,cs),
(112,475,l)
);
}
);
};
layerId = m01;
shapes = (
{
closed = 1;
nodes = (
(72,-89,l),
(72,-100,o),
(72,-100,o),
(60,-100,c),
(37.908,-100,o),
(20,-117.908,o),
(20,-140,c),
(20,-162.092,o),
(37.908,-180,o),
(60,-180,c),
(132,-180,o),
(152,-135.427,o),
(152,-89,c),
(152,475,l),
(152,497.092,o),
(134.092,515,o),
(112,515,c),
(89.908,515,o),
(72,497.092,o),
(72,475,c)
);
},
{
pos = (20,0);
ref = dotaccentcomb;
}
);
width = 202;
},
{
background = {
shapes = (
{
attr = {
lineCapEnd = "1";
lineCapStart = "1";
strokeHeight = 130;
strokeWidth = 130;
};
closed = 0;
nodes = (
(85,-115,l),
(137,-115,o),
(139,-86,o),
(139,-61,c),
(139,451,l)
);
}
);
};
layerId = m004;
shapes = (
{
closed = 1;
nodes = (
(74,-61,l),
(74,-83.761,o),
(76.328,-50,o),
(85,-50,c),
(49.101,-50,o),
(20,-79.101,o),
(20,-115,c),
(20,-150.899,o),
(49.101,-180,o),
(85,-180,c),
(156.6,-180,o),
(204,-140.639,o),
(204,-61,c),
(204,451,l),
(204,486.899,o),
(174.899,516,o),
(139,516,c),
(103.101,516,o),
(74,486.899,o),
(74,451,c)
);
},
{
pos = (23,0);
ref = dotaccentcomb;
}
);
width = 254;
},
{
background = {
shapes = (
{
attr = {
lineCapEnd = "1";
lineCapStart = "1";
strokeHeight = 45;
strokeWidth = 45;
};
closed = 0;
nodes = (
(42,-157,l),
(94,-157,o),
(96,-128,o),
(96,-103,cs),
(96,482,l)
);
}
);
};
layerId = "6E2DD877-F1E1-49A3-9E5D-7A76BAA67C2C";
shapes = (
{
closed = 1;
nodes = (
(73.5,-103,l),
(73.5,-127.225,o),
(72.998,-134.5,o),
(42,-134.5,c),
(29.573,-134.5,o),
(19.5,-144.573,o),
(19.5,-157,c),
(19.5,-169.427,o),
(29.573,-179.5,o),
(42,-179.5,c),
(115.402,-179.5,o),
(118.5,-129.175,o),
(118.5,-103,c),
(118.5,482,l),
(118.5,494.427,o),
(108.427,504.5,o),
(96,504.5,c),
(83.573,504.5,o),
(73.5,494.427,o),
(73.5,482,c)
);
},
{
pos = (22,0);
ref = dotaccentcomb;
}
);
width = 168;
}
);
metricRight = i;
unicode = 106;
},
{
glyphname = k;
lastChange = "2021-06-03 18:08:51 +0000";
layers = (
{
background = {
shapes = (
{
attr = {
strokeWidth = 1;
};
closed = 0;
nodes = (
(50,700,l),
(50,0,l)
);
},
{
attr = {
strokeWidth = 1;
};
closed = 0;
nodes = (
(365,495,l),
(365,495,o),
(50,235,o),
(50,222,c)
);
},
{
attr = {
strokeWidth = 1;
};
closed = 0;
nodes = (
(184,343,l),
(431,0,l)
);
}
);
};
layerId = m01;
shapes = (
{
closed = 1;
nodes = (
(130,680,ls),
(130,702,o),
(112,720,o),
(90,720,cs),
(68,720,o),
(50,702,o),
(50,680,cs),
(50,40,ls),
(50,18,o),
(68,0,o),
(90,0,cs),
(112,0,o),
(130,18,o),
(130,40,cs)
);
},
{
closed = 1;
nodes = (
(123,200,l),
(411,444,l),
(419,452,o),
(425,463,o),
(425,475,cs),
(425,497,o),
(407,515,o),
(385,515,cs),
(375,515,o),
(366,512,o),
(359,506,c),
(123,311,l)
);
},
{
closed = 1;
nodes = (
(433,0,o),
(451,18,o),
(451,40,cs),
(451,49,o),
(447,57,o),
(443,63,cs),
(236,352,l),
(175,302,l),
(379,17,ls),
(386,7,o),
(398,0,o),
(411,0,cs)
);
}
);
width = 501;
},
{
background = {
shapes = (
{
attr = {
strokeWidth = 1;
};
closed = 0;
nodes = (
(115,700,l),
(115,0,l)
);
},
{
attr = {
strokeWidth = 1;
};
closed = 0;
nodes = (
(430,495,l),
(430,495,o),
(115,235,o),
(115,222,c)
);
},
{
attr = {
strokeWidth = 1;
};
closed = 0;
nodes = (
(249,343,l),
(496,0,l)
);
}
);
};
layerId = m004;
shapes = (
{
closed = 1;
nodes = (
(170,655,ls),
(170,691,o),
(141,720,o),
(105,720,cs),
(69,720,o),
(40,691,o),
(40,655,cs),
(40,65,ls),
(40,29,o),
(69,0,o),
(105,0,cs),
(141,0,o),
(170,29,o),
(170,65,cs)
);
},
{
closed = 1;
nodes = (
(163,196,l),
(431,405,ls),
(446,417,o),
(455,435,o),
(455,455,cs),
(455,491,o),
(426,520,o),
(390,520,cs),
(374,520,o),
(361,514,o),
(349,505,cs),
(163,357,l)
);
},
{
closed = 1;
nodes = (
(448,0,o),
(477,29,o),
(477,65,cs),
(477,79,o),
(473,92,o),
(465,103,cs),
(301,349,l),
(198,269,l),
(359,27,ls),
(371,10,o),
(390,0,o),
(412,0,cs)
);
}
);
width = 527;
},
{
background = {
shapes = (
{
attr = {
strokeWidth = 1;
};
closed = 0;
nodes = (
(72,700,l),
(72,0,l)
);
},
{
attr = {
strokeWidth = 1;
};
closed = 0;
nodes = (
(387,495,l),
(387,495,o),
(72,235,o),
(72,222,c)
);
},
{
attr = {
strokeWidth = 1;
};
closed = 0;
nodes = (
(206,343,l),
(453,0,l)
);
}
);
};
layerId = "6E2DD877-F1E1-49A3-9E5D-7A76BAA67C2C";
shapes = (
{
closed = 1;
nodes = (
(110,697,ls),
(110,709,o),
(99,720,o),
(87,720,cs),
(75,720,o),
(65,709,o),
(65,697,cs),
(65,23,ls),
(65,11,o),
(75,0,o),
(87,0,cs),
(99,0,o),
(110,11,o),
(110,23,cs)
);
},
{
closed = 1;
nodes = (
(87,211,l),
(401,478,l),
(406,482,o),
(410,488,o),
(410,495,cs),
(410,507,o),
(399,518,o),
(387,518,cs),
(382,518,o),
(377,516,o),
(373,512,c),
(87,268,l)
);
},
{
closed = 1;
nodes = (
(425,0,o),
(436,11,o),
(436,23,cs),
(436,28,o),
(434,32,o),
(431,36,cs),
(201,346,l),
(167,317,l),
(395,10,ls),
(399,4,o),
(405,0,o),
(413,0,cs)
);
}
);
width = 496;
}
);
unicode = 107;
},
{
glyphname = l;
lastChange = "2021-06-22 17:03:24 +0000";
layers = (
{
layerId = m01;
shapes = (
{
closed = 1;
nodes = (
(130,680,ls),
(130,702,o),
(112,720,o),
(90,720,cs),
(67,720,o),
(50,702,o),
(50,680,cs),
(50,40,ls),
(50,18,o),
(67,0,o),
(90,0,cs),
(112,0,o),
(130,18,o),
(130,40,cs)
);
}
);
width = 180;
},
{
layerId = m004;
shapes = (
{
closed = 1;
nodes = (
(180,655,ls),
(180,691,o),
(151,720,o),
(115,720,cs),
(79,720,o),
(50,691,o),
(50,655,cs),
(50,65,ls),
(50,29,o),
(79,0,o),
(115,0,cs),
(151,0,o),
(180,29,o),
(180,65,cs)
);
}
);
width = 230;
},
{
layerId = "6E2DD877-F1E1-49A3-9E5D-7A76BAA67C2C";
shapes = (
{
closed = 1;
nodes = (
(95,697,ls),
(95,709,o),
(85,720,o),
(73,720,cs),
(60,720,o),
(50,709,o),
(50,697,cs),
(50,23,ls),
(50,11,o),
(60,0,o),
(73,0,cs),
(85,0,o),
(95,11,o),
(95,23,cs)
);
}
);
width = 145;
}
);
unicode = 108;
},
{
glyphname = m;
lastChange = "2021-06-03 19:13:58 +0000";
layers = (
{
background = {
shapes = (
{
attr = {
strokeWidth = 1;
};
closed = 0;
nodes = (
(90,511,l),
(90,0,l)
);
},
{
attr = {
strokeWidth = 1;
};
closed = 0;
nodes = (
(426,382,l),
(426,0,l)
);
},
{
attr = {
strokeWidth = 1;
};
closed = 0;
nodes = (
(760,388,l),
(760,0,l)
);
},
{
attr = {
strokeWidth = 1;
};
closed = 0;
nodes = (
(90,403,l),
(90,453,o),
(211,524,o),
(267,524,c),
(346,524,o),
(426,457,o),
(426,385,c)
);
},
{
attr = {
strokeWidth = 1;
};
closed = 0;
nodes = (
(426,382,l),
(426,442,o),
(536,524,o),
(599,524,c),
(693,524,o),
(760,447,o),
(760,388,c)
);
}
);
};
layerId = m01;
shapes = (
{
closed = 1;
nodes = (
(130,475,ls),
(130,498,o),
(112,515,o),
(90,515,cs),
(68,515,o),
(50,498,o),
(50,475,cs),
(50,40,ls),
(50,18,o),
(68,0,o),
(90,0,cs),
(112,0,o),
(130,18,o),
(130,40,cs)
);
},
{
closed = 1;
nodes = (
(791,352,ls),
(791,432,o),
(716,528,o),
(599,528,cs),
(497,528,o),
(386,432,o),
(386,346,cs),
(386,324,o),
(403,306,o),
(426,306,cs),
(448,306,o),
(466,324,o),
(466,346,cs),
(466,385,o),
(529,448,o),
(599,448,cs),
(675,448,o),
(711,396,o),
(711,352,cs),
(711,40,ls),
(711,18,o),
(729,0,o),
(751,0,cs),
(773,0,o),
(791,18,o),
(791,40,cs)
);
},
{
closed = 1;
nodes = (
(117,337,l),
(125,345,o),
(130,355,o),
(130,367,cs),
(130,394,o),
(192,448,o),
(267,448,cs),
(332,448,o),
(386,403,o),
(386,349,cs),
(386,348,o),
(386,348,o),
(386,347,cs),
(386,346,l),
(386,40,ls),
(386,18,o),
(404,0,o),
(426,0,cs),
(448,0,o),
(466,18,o),
(466,40,cs),
(466,346,ls),
(466,347,o),
(466,347,o),
(466,347,cs),
(466,349,ls),
(466,446,o),
(367,528,o),
(267,528,cs),
(195,528,o),
(164,502,o),
(117,466,c)
);
}
);
width = 850;
},
{
background = {
shapes = (
{
attr = {
strokeWidth = 1;
};
closed = 0;
nodes = (
(115,511,l),
(115,0,l)
);
},
{
attr = {
strokeWidth = 1;
};
closed = 0;
nodes = (
(451,382,l),
(451,0,l)
);
},
{
attr = {
strokeWidth = 1;
};
closed = 0;
nodes = (
(785,388,l),
(785,0,l)
);
},
{
attr = {
strokeWidth = 1;
};
closed = 0;
nodes = (
(115,403,l),
(115,453,o),
(236,524,o),
(292,524,c),
(371,524,o),
(451,457,o),
(451,385,c)
);
},
{
attr = {
strokeWidth = 1;
};
closed = 0;
nodes = (
(451,382,l),
(451,442,o),
(561,524,o),
(624,524,c),
(718,524,o),
(785,447,o),
(785,388,c)
);
}
);
};
layerId = m004;
shapes = (
{
closed = 1;
nodes = (
(180,450,ls),
(180,486,o),
(151,515,o),
(115,515,cs),
(79,515,o),
(50,486,o),
(50,450,cs),
(50,65,ls),
(50,29,o),
(79,0,o),
(115,0,cs),
(151,0,o),
(180,29,o),
(180,65,cs)
);
},
{
closed = 1;
nodes = (
(830,327,ls),
(830,421,o),
(735,528,o),
(616,528,cs),
(499,528,o),
(376,422,o),
(376,321,cs),
(376,285,o),
(405,256,o),
(441,256,cs),
(477,256,o),
(506,285,o),
(506,321,cs),
(506,348,o),
(553,398,o),
(612,398,cs),
(668,398,o),
(700,362,o),
(700,327,cs),
(700,65,ls),
(700,29,o),
(729,0,o),
(765,0,cs),
(801,0,o),
(830,29,o),
(830,65,cs)
);
},
{
closed = 1;
nodes = (
(156,292,l),
(171,303,o),
(180,322,o),
(180,332,cs),
(180,355,o),
(234,398,o),
(282,398,cs),
(337,398,o),
(376,366,o),
(376,324,cs),
(376,323,o),
(376,323,o),
(376,323,cs),
(376,321,l),
(376,65,ls),
(376,29,o),
(405,0,o),
(441,0,cs),
(477,0,o),
(506,29,o),
(506,65,cs),
(506,321,ls),
(506,322,o),
(506,322,o),
(506,322,cs),
(506,324,ls),
(506,432,o),
(397,528,o),
(289,528,cs),
(234,528,o),
(185,500,o),
(156,462,c)
);
}
);
width = 880;
},
{
background = {
shapes = (
{
attr = {
strokeWidth = 1;
};
closed = 0;
nodes = (
(73,511,l),
(73,0,l)
);
},
{
attr = {
strokeWidth = 1;
};
closed = 0;
nodes = (
(409,382,l),
(409,0,l)
);
},
{
attr = {
strokeWidth = 1;
};
closed = 0;
nodes = (
(743,388,l),
(743,0,l)
);
},
{
attr = {
strokeWidth = 1;
};
closed = 0;
nodes = (
(73,403,l),
(73,453,o),
(194,524,o),
(250,524,c),
(329,524,o),
(409,457,o),
(409,385,c)
);
},
{
attr = {
strokeWidth = 1;
};
closed = 0;
nodes = (
(409,382,l),
(409,442,o),
(519,524,o),
(582,524,c),
(676,524,o),
(743,447,o),
(743,388,c)
);
}
);
};
layerId = "6E2DD877-F1E1-49A3-9E5D-7A76BAA67C2C";
shapes = (
{
closed = 1;
nodes = (
(95,492,ls),
(95,505,o),
(85,515,o),
(73,515,cs),
(60,515,o),
(50,505,o),
(50,492,cs),
(50,22,ls),
(50,10,o),
(60,0,o),
(73,0,cs),
(85,0,o),
(95,10,o),
(95,22,cs)
);
},
{
closed = 1;
nodes = (
(766,369,ls),
(766,439,o),
(688.951,527,o),
(582,527,cs),
(490,527,o),
(386,438,o),
(386,363,cs),
(386,351,o),
(396,341,o),
(409,341,cs),
(421,341,o),
(431,351,o),
(431,363,cs),
(431,411,o),
(507,482,o),
(582,482,cs),
(666,482,o),
(721,419,o),
(721,369,cs),
(721,23,ls),
(721,11,o),
(731,0,o),
(743,0,cs),
(756,0,o),
(766,11,o),
(766,23,cs)
);
},
{
closed = 1;
nodes = (
(88,368,l),
(92,372,o),
(95,377,o),
(95,384,cs),
(95,421,o),
(180,482,o),
(250,482,cs),
(321,482,o),
(386,428,o),
(386,366,cs),
(386,365.495,o),
(386,365,o),
(386.045,364.5,cs),
(386,363,l),
(386,22,ls),
(386,10,o),
(396,0,o),
(409,0,cs),
(421,0,o),
(431,10,o),
(431,22,cs),
(431,363,ls),
(431,363.505,o),
(431,364,o),
(430.955,364.5,cs),
(431,366,ls),
(434,452,o),
(341,527,o),
(250,527,cs),
(196,527,o),
(130,496,o),
(88,456,c)
);
}
);
width = 816;
}
);
unicode = 109;
},
{
color = 0;
glyphname = m.ss01;
lastChange = "2021-06-03 18:45:54 +0000";
layers = (
{
background = {
shapes = (
{
attr = {
strokeWidth = 1;
};
closed = 0;
nodes = (
(90,511,l),
(90,0,l)
);
},
{
attr = {
strokeWidth = 1;
};
closed = 0;
nodes = (
(426,382,l),
(426,0,l)
);
},
{
attr = {
strokeWidth = 1;
};
closed = 0;
nodes = (
(760,388,l),
(760,0,l)
);
},
{
attr = {
strokeWidth = 1;
};
closed = 0;
nodes = (
(90,403,l),
(90,453,o),
(211,524,o),
(267,524,c),
(346,524,o),
(426,457,o),
(426,385,c)
);
},
{
attr = {
strokeWidth = 1;
};
closed = 0;
nodes = (
(426,382,l),
(426,442,o),
(536,524,o),
(599,524,c),
(693,524,o),
(760,447,o),
(760,388,c)
);
}
);
};
layerId = m01;
shapes = (
{
closed = 1;
nodes = (
(130,475,ls),
(130,498,o),
(112,515,o),
(90,515,cs),
(68,515,o),
(50,498,o),
(50,475,cs),
(50,40,ls),
(50,18,o),
(68,0,o),
(90,0,cs),
(112,0,o),
(130,18,o),
(130,40,cs)
);
},
{
closed = 1;
nodes = (
(791,352,ls),
(791,432,o),
(716,528,o),
(599,528,cs),
(497,528,o),
(386,432,o),
(386,346,cs),
(386,324,o),
(403,306,o),
(426,306,cs),
(448,306,o),
(466,324,o),
(466,346,cs),
(466,385,o),
(529,448,o),
(599,448,cs),
(675,448,o),
(711,396,o),
(711,352,cs),
(711,40,ls),
(711,18,o),
(729,0,o),
(751,0,cs),
(773,0,o),
(791,18,o),
(791,40,cs)
);
},
{
closed = 1;
nodes = (
(117,337,l),
(125,345,o),
(130,355,o),
(130,367,cs),
(130,394,o),
(192,448,o),
(267,448,cs),
(332,448,o),
(386,403,o),
(386,349,cs),
(386,348,o),
(386,348,o),
(386,347,cs),
(386,346,l),
(386,40,ls),
(386,18,o),
(404,0,o),
(426,0,cs),
(448,0,o),
(466,18,o),
(466,40,cs),
(466,346,ls),
(466,347,o),
(466,347,o),
(466,347,cs),
(466,349,ls),
(466,446,o),
(367,528,o),
(267,528,cs),
(195,528,o),
(164,502,o),
(117,466,c)
);
}
);
width = 850;
},
{
background = {
shapes = (
{
attr = {
strokeWidth = 1;
};
closed = 0;
nodes = (
(115,511,l),
(115,0,l)
);
},
{
attr = {
strokeWidth = 1;
};
closed = 0;
nodes = (
(451,382,l),
(451,0,l)
);
},
{
attr = {
strokeWidth = 1;
};
closed = 0;
nodes = (
(785,388,l),
(785,0,l)
);
},
{
attr = {
strokeWidth = 1;
};
closed = 0;
nodes = (
(115,403,l),
(115,453,o),
(236,524,o),
(292,524,c),
(371,524,o),
(451,457,o),
(451,385,c)
);
},
{
attr = {
strokeWidth = 1;
};
closed = 0;
nodes = (
(451,382,l),
(451,442,o),
(561,524,o),
(624,524,c),
(718,524,o),
(785,447,o),
(785,388,c)
);
}
);
};
layerId = m004;
shapes = (
{
closed = 1;
nodes = (
(180,450,ls),
(180,486,o),
(151,515,o),
(115,515,cs),
(79,515,o),
(50,486,o),
(50,450,cs),
(50,65,ls),
(50,29,o),
(79,0,o),
(115,0,cs),
(151,0,o),
(180,29,o),
(180,65,cs)
);
},
{
closed = 1;
nodes = (
(830,327,ls),
(830,421,o),
(735,528,o),
(616,528,cs),
(519,528,o),
(376,422,o),
(376,321,cs),
(376,285,o),
(405,256,o),
(441,256,cs),
(477,256,o),
(506,285,o),
(506,321,cs),
(506,348,o),
(573,398,o),
(612,398,cs),
(668,398,o),
(700,362,o),
(700,327,cs),
(700,65,ls),
(700,29,o),
(729,0,o),
(765,0,cs),
(801,0,o),
(830,29,o),
(830,65,cs)
);
},
{
closed = 1;
nodes = (
(156,292,l),
(171,303,o),
(180,322,o),
(180,332,cs),
(180,355,o),
(234,398,o),
(282,398,cs),
(337,398,o),
(376,366,o),
(376,324,cs),
(376,323,o),
(376,323,o),
(376,323,cs),
(376,321,l),
(376,65,ls),
(376,29,o),
(405,0,o),
(441,0,cs),
(477,0,o),
(506,29,o),
(506,65,cs),
(506,321,ls),
(506,322,o),
(506,322,o),
(506,322,cs),
(506,324,ls),
(506,432,o),
(397,528,o),
(289,528,cs),
(234,528,o),
(195,510,o),
(156,472,c)
);
}
);
width = 880;
},
{
background = {
shapes = (
{
attr = {
strokeWidth = 1;
};
closed = 0;
nodes = (
(73,511,l),
(73,0,l)
);
},
{
attr = {
strokeWidth = 1;
};
closed = 0;
nodes = (
(409,382,l),
(409,0,l)
);
},
{
attr = {
strokeWidth = 1;
};
closed = 0;
nodes = (
(743,388,l),
(743,0,l)
);
},
{
attr = {
strokeWidth = 1;
};
closed = 0;
nodes = (
(73,403,l),
(73,453,o),
(194,524,o),
(250,524,c),
(329,524,o),
(409,457,o),
(409,385,c)
);
},
{
attr = {
strokeWidth = 1;
};
closed = 0;
nodes = (
(409,382,l),
(409,442,o),
(519,524,o),
(582,524,c),
(676,524,o),
(743,447,o),
(743,388,c)
);
}
);
};
layerId = "6E2DD877-F1E1-49A3-9E5D-7A76BAA67C2C";
shapes = (
{
closed = 1;
nodes = (
(95,492,ls),
(95,505,o),
(85,515,o),
(73,515,cs),
(60,515,o),
(50,505,o),
(50,492,cs),
(50,22,ls),
(50,10,o),
(60,0,o),
(73,0,cs),
(85,0,o),
(95,10,o),
(95,22,cs)
);
},
{
closed = 1;
nodes = (
(766,369,ls),
(766,439,o),
(688.951,527,o),
(582,527,cs),
(490,527,o),
(386,438,o),
(386,363,cs),
(386,351,o),
(396,341,o),
(409,341,cs),
(421,341,o),
(431,351,o),
(431,363,cs),
(431,411,o),
(507,482,o),
(582,482,cs),
(666,482,o),
(721,419,o),
(721,369,cs),
(721,23,ls),
(721,11,o),
(731,0,o),
(743,0,cs),
(756,0,o),
(766,11,o),
(766,23,cs)
);
},
{
closed = 1;
nodes = (
(88,368,l),
(92,372,o),
(95,377,o),
(95,384,cs),
(95,421,o),
(180,482,o),
(250,482,cs),
(321,482,o),
(386,428,o),
(386,366,cs),
(386,365.495,o),
(386,365,o),
(386.045,364.5,cs),
(386,363,l),
(386,22,ls),
(386,10,o),
(396,0,o),
(409,0,cs),
(421,0,o),
(431,10,o),
(431,22,cs),
(431,363,ls),
(431,363.505,o),
(431,364,o),
(430.955,364.5,cs),
(431,366,ls),
(434,452,o),
(341,527,o),
(250,527,cs),
(196,527,o),
(130,496,o),
(88,456,c)
);
}
);
width = 816;
}
);
},
{
glyphname = n;
lastChange = "2021-06-03 18:45:20 +0000";
layers = (
{
layerId = m01;
shapes = (
{
closed = 1;
nodes = (
(130,477,l),
(130,499,o),
(112,517,o),
(90,517,c),
(68,517,o),
(50,499,o),
(50,477,c),
(50,39,l),
(50,17,o),
(68,-1,o),
(90,-1,c),
(112,-1,o),
(130,17,o),
(130,39,c)
);
},
{
closed = 1;
nodes = (
(119,308,l),
(126,315,o),
(130,325,o),
(130,335,c),
(130,380,o),
(188,447,o),
(263,447,cs),
(324,447,o),
(375,410,o),
(375,351,c),
(375,39,l),
(375,17,o),
(393,-1,o),
(415,-1,c),
(437,-1,o),
(455,17,o),
(455,39,c),
(455,351,l),
(455,455,o),
(356,527,o),
(272,527,cs),
(203,527,o),
(145,491,o),
(119,454,c)
);
}
);
width = 505;
},
{
layerId = m004;
shapes = (
{
closed = 1;
nodes = (
(161,450,ls),
(161,485.899,o),
(131.899,515,o),
(96,515,cs),
(60.101,515,o),
(31,485.899,o),
(31,450,cs),
(31,65,ls),
(31,29,o),
(60,0,o),
(96,0,cs),
(132,0,o),
(161,29,o),
(161,65,cs)
);
},
{
closed = 1;
nodes = (
(141,266,l),
(153,278,o),
(161,295,o),
(161,313,c),
(161,349.473,o),
(213.456,393,o),
(258,393,cs),
(297,393,o),
(335,371,o),
(335,329,cs),
(335,65,ls),
(335,29,o),
(364,0,o),
(400,0,cs),
(436,0,o),
(465,29,o),
(465,65,cs),
(465,329,ls),
(465,442.6,o),
(367,523,o),
(275,523,cs),
(220,523,o),
(168,498,o),
(141,454,c)
);
}
);
width = 496;
},
{
layerId = "6E2DD877-F1E1-49A3-9E5D-7A76BAA67C2C";
shapes = (
{
closed = 1;
nodes = (
(95.5,491,l),
(95.5,503.427,o),
(85.427,513.5,o),
(73,513.5,c),
(60.573,513.5,o),
(50.5,503.427,o),
(50.5,491,c),
(50.5,23,l),
(50.5,10.573,o),
(60.573,0.5,o),
(73,0.5,c),
(85.427,0.5,o),
(95.5,10.573,o),
(95.5,23,c)
);
},
{
closed = 1;
nodes = (
(88,322,l),
(93,326,o),
(96,332,o),
(95.5,339,c),
(95.5,397.699,o),
(165.372,479.5,o),
(247,479.5,c),
(311.324,479.5,o),
(375.5,429.947,o),
(375.5,357,c),
(375.5,23,l),
(375.5,10.573,o),
(385.573,0.5,o),
(398,0.5,c),
(410.427,0.5,o),
(420.5,10.573,o),
(420.5,23,c),
(420.5,357,l),
(420.5,455.053,o),
(329.676,524.5,o),
(247,524.5,c),
(183,525,o),
(124,485,o),
(88,436,c)
);
}
);
width = 471;
}
);
unicode = 110;
},
{
color = 0;
glyphname = n.ss01;
lastChange = "2021-06-03 18:45:57 +0000";
layers = (
{
layerId = m01;
shapes = (
{
closed = 1;
nodes = (
(119,477,l),
(119,499.092,o),
(101.092,517,o),
(79,517,c),
(56.908,517,o),
(39,499.092,o),
(39,477,c),
(39,39,l),
(39,16.908,o),
(56.908,-1,o),
(79,-1,c),
(101.092,-1,o),
(119,16.908,o),
(119,39,c)
);
},
{
closed = 1;
nodes = (
(108,308,l),
(115,315,o),
(119,325,o),
(119,335,c),
(119,380.302,o),
(186.439,447,o),
(252,447,c),
(312.942,447,o),
(364,409.688,o),
(364,351,c),
(364,39,l),
(364,16.908,o),
(381.908,-1,o),
(404,-1,c),
(426.092,-1,o),
(444,16.908,o),
(444,39,c),
(444,351,l),
(444,454.712,o),
(345.258,527,o),
(252,527,c),
(201,527,o),
(148,501,o),
(108,464,c)
);
}
);
width = 483;
},
{
layerId = m004;
shapes = (
{
closed = 1;
nodes = (
(161,450,ls),
(161,485.899,o),
(131.899,515,o),
(96,515,cs),
(60.101,515,o),
(31,485.899,o),
(31,450,cs),
(31,65,ls),
(31,29,o),
(60,0,o),
(96,0,cs),
(132,0,o),
(161,29,o),
(161,65,cs)
);
},
{
closed = 1;
nodes = (
(141,266,l),
(153,278,o),
(161,295,o),
(161,313,c),
(161,349.473,o),
(213.456,393,o),
(258,393,cs),
(297,393,o),
(335,371,o),
(335,329,cs),
(335,65,ls),
(335,29,o),
(364,0,o),
(400,0,cs),
(436,0,o),
(465,29,o),
(465,65,cs),
(465,329,ls),
(465,442.6,o),
(366.82,523,o),
(258,523,cs),
(220,523,o),
(178,508,o),
(141,484,c)
);
}
);
width = 496;
},
{
layerId = "6E2DD877-F1E1-49A3-9E5D-7A76BAA67C2C";
shapes = (
{
closed = 1;
nodes = (
(95.5,491,l),
(95.5,503.427,o),
(85.427,513.5,o),
(73,513.5,c),
(60.573,513.5,o),
(50.5,503.427,o),
(50.5,491,c),
(50.5,23,l),
(50.5,10.573,o),
(60.573,0.5,o),
(73,0.5,c),
(85.427,0.5,o),
(95.5,10.573,o),
(95.5,23,c)
);
},
{
closed = 1;
nodes = (
(88,322,l),
(93,326,o),
(96,332,o),
(95.5,339,c),
(95.5,397.699,o),
(165.372,479.5,o),
(247,479.5,c),
(311.324,479.5,o),
(375.5,429.947,o),
(375.5,357,c),
(375.5,23,l),
(375.5,10.573,o),
(385.573,0.5,o),
(398,0.5,c),
(410.427,0.5,o),
(420.5,10.573,o),
(420.5,23,c),
(420.5,357,l),
(420.5,455.053,o),
(329.676,524.5,o),
(247,524.5,c),
(183,525,o),
(124,485,o),
(88,436,c)
);
}
);
width = 471;
}
);
},
{
glyphname = o;
kernLeft = o;
kernRight = o;
lastChange = "2021-06-22 16:41:01 +0000";
layers = (
{
background = {
shapes = (
{
attr = {
strokeWidth = 1;
};
closed = 1;
nodes = (
(491,118,o),
(393,1,o),
(271,1,c),
(149,1,o),
(50,118,o),
(50,262,c),
(50,407,o),
(149,524,o),
(271,524,c),
(393,524,o),
(491,407,o),
(491,262,c)
);
}
);
};
layerId = m01;
shapes = (
{
closed = 1;
nodes = (
(431,156,o),
(364,74,o),
(271,74,cs),
(168,74,o),
(110,156,o),
(110,262,cs),
(110,362,o),
(168,444,o),
(271,444,cs),
(364,444,o),
(431,362,o),
(431,262,cs)
);
},
{
closed = 1;
nodes = (
(511,397,o),
(407,524,o),
(271,524,cs),
(125,524,o),
(30,397,o),
(30,262,cs),
(30,121,o),
(125,-5,o),
(271,-5,cs),
(407,-5,o),
(511,121,o),
(511,262,cs)
);
}
);
width = 541;
},
{
background = {
shapes = (
{
attr = {
strokeWidth = 1;
};
closed = 1;
nodes = (
(486,118,o),
(388,1,o),
(266,1,c),
(144,1,o),
(45,118,o),
(45,262,c),
(45,407,o),
(144,524,o),
(266,524,c),
(388,524,o),
(486,407,o),
(486,262,c)
);
}
);
};
layerId = m004;
shapes = (
{
closed = 1;
nodes = (
(381,201,o),
(358,125,o),
(268,125,cs),
(184,125,o),
(160,201,o),
(160,262,cs),
(160,317,o),
(184,393,o),
(268,393,cs),
(358,393,o),
(381,317,o),
(381,262,cs)
);
},
{
closed = 1;
nodes = (
(511,373,o),
(427,523,o),
(268,523,cs),
(105,523,o),
(30,374,o),
(30,262,cs),
(30,144,o),
(105,-5,o),
(268,-5,cs),
(427,-5,o),
(511,145,o),
(511,262,cs)
);
}
);
width = 541;
},
{
background = {
shapes = (
{
attr = {
strokeWidth = 1;
};
closed = 1;
nodes = (
(477,118,o),
(379,1,o),
(257,1,c),
(135,1,o),
(36,118,o),
(36,262,c),
(36,407,o),
(135,524,o),
(257,524,c),
(379,524,o),
(477,407,o),
(477,262,c)
);
}
);
};
layerId = "6E2DD877-F1E1-49A3-9E5D-7A76BAA67C2C";
shapes = (
{
closed = 1;
nodes = (
(439,133,o),
(359,39,o),
(257,39,cs),
(155,39,o),
(75,133,o),
(75,258,cs),
(75,384,o),
(155,476,o),
(257,476,cs),
(359,476,o),
(439,384,o),
(439,258,cs)
);
},
{
closed = 1;
nodes = (
(484,403,o),
(383,522,o),
(257,522,cs),
(131,522,o),
(30,403,o),
(30,258,cs),
(30,113,o),
(131,-6,o),
(257,-6,cs),
(383,-6,o),
(484,113,o),
(484,258,cs)
);
}
);
width = 514;
}
);
unicode = 111;
},
{
glyphname = p;
lastChange = "2021-06-22 18:58:59 +0000";
layers = (
{
layerId = m01;
shapes = (
{
closed = 1;
nodes = (
(435,154,o),
(381,73,o),
(291,73,cs),
(207,73,o),
(130,128,o),
(130,258,cs),
(130,384,o),
(203,442,o),
(287,442,cs),
(361,442,o),
(435,374,o),
(435,268,cs)
);
},
{
closed = 1;
nodes = (
(515,415,o),
(398,522,o),
(287,522,cs),
(169,522,o),
(50,428,o),
(50,258,cs),
(50,77,o),
(180,-7,o),
(291,-7,cs),
(433,-7,o),
(515,128,o),
(515,268,cs)
);
},
{
closed = 1;
nodes = (
(130,497,o),
(112,515,o),
(90,515,cs),
(68,515,o),
(50,497,o),
(50,475,cs),
(50,-130,ls),
(50,-152,o),
(68,-170,o),
(90,-170,cs),
(112,-170,o),
(130,-152,o),
(130,-130,cs),
(130,475,ls)
);
}
);
width = 545;
},
{
layerId = m004;
shapes = (
{
closed = 1;
nodes = (
(405,176,o),
(367,125,o),
(296,125,cs),
(243,125,o),
(180,161,o),
(180,258,cs),
(180,344,o),
(237,389,o),
(296,389,cs),
(357,389,o),
(405,344,o),
(405,257,cs)
);
},
{
closed = 1;
nodes = (
(535,411,o),
(416,519,o),
(310,519,cs),
(182,519,o),
(110,415,o),
(110,258,cs),
(110,92,o),
(209,-5,o),
(310,-5,cs),
(466,-5,o),
(535,135,o),
(535,257,cs)
);
},
{
closed = 1;
nodes = (
(180,486,o),
(151,515,o),
(115,515,cs),
(79,515,o),
(50,486,o),
(50,450,cs),
(50,-105,ls),
(50,-141,o),
(79,-170,o),
(115,-170,cs),
(151,-170,o),
(180,-141,o),
(180,-105,cs),
(180,450,ls)
);
}
);
width = 565;
},
{
layerId = "6E2DD877-F1E1-49A3-9E5D-7A76BAA67C2C";
shapes = (
{
closed = 1;
nodes = (
(445,135,o),
(389,41,o),
(278,41,cs),
(179,41,o),
(95,103,o),
(95,258,cs),
(95,409,o),
(165,477,o),
(265,477,cs),
(356,477,o),
(445,399,o),
(445,268,cs)
);
},
{
closed = 1;
nodes = (
(490,422,o),
(377,522,o),
(265,522,cs),
(146,522,o),
(50,434,o),
(50,258,cs),
(50,74,o),
(164,-5,o),
(278,-5,cs),
(418,-5,o),
(490,121,o),
(490,268,cs)
);
},
{
closed = 1;
nodes = (
(95,504,o),
(85,515,o),
(73,515,cs),
(61,515,o),
(50,504,o),
(50,492,cs),
(50,-147,ls),
(50,-159,o),
(61,-170,o),
(73,-170,cs),
(85,-170,o),
(95,-159,o),
(95,-147,cs),
(95,492,ls)
);
}
);
width = 520;
}
);
unicode = 112;
},
{
glyphname = q;
lastChange = "2021-06-23 16:42:41 +0000";
layers = (
{
background = {
shapes = (
{
attr = {
strokeWidth = 1;
};
closed = 1;
nodes = (
(40,424,o),
(138,514,o),
(248,514,c),
(356,514,o),
(455,435,o),
(455,258,c),
(455,74,o),
(318,3,o),
(234,3,c),
(100,3,o),
(40,114,o),
(40,268,c)
);
},
{
attr = {
strokeWidth = 1;
};
closed = 0;
nodes = (
(455,-145,l),
(455,493,l)
);
}
);
};
layerId = m01;
shapes = (
{
closed = 1;
nodes = (
(110,374,o),
(184,442,o),
(256,442,cs),
(342,442,o),
(415,384,o),
(415,263,cs),
(415,128,o),
(338,73,o),
(256,73,cs),
(164,73,o),
(110,154,o),
(110,263,cs)
);
},
{
closed = 1;
nodes = (
(30,121,o),
(107,-7,o),
(256,-7,cs),
(361,-7,o),
(495,72,o),
(495,263,cs),
(495,428,o),
(376,522,o),
(256,522,cs),
(140,522,o),
(30,419,o),
(30,263,cs)
);
},
{
closed = 1;
nodes = (
(415,-130,ls),
(415,-152,o),
(433,-170,o),
(455,-170,cs),
(477,-170,o),
(495,-152,o),
(495,-130,cs),
(495,475,ls),
(495,497,o),
(477,515,o),
(455,515,cs),
(433,515,o),
(415,497,o),
(415,475,cs)
);
}
);
width = 545;
},
{
background = {
shapes = (
{
attr = {
strokeWidth = 1;
};
closed = 1;
nodes = (
(35,424,o),
(133,514,o),
(243,514,c),
(351,514,o),
(450,435,o),
(450,258,c),
(450,74,o),
(313,3,o),
(229,3,c),
(95,3,o),
(35,114,o),
(35,268,c)
);
},
{
attr = {
strokeWidth = 1;
};
closed = 0;
nodes = (
(450,-145,l),
(450,493,l)
);
}
);
};
layerId = m004;
shapes = (
{
closed = 1;
nodes = (
(160,344,o),
(208,389,o),
(269,389,cs),
(328,389,o),
(385,344,o),
(385,258,cs),
(385,161,o),
(322,125,o),
(269,125,cs),
(198,125,o),
(160,176,o),
(160,257,cs)
);
},
{
closed = 1;
nodes = (
(30,135,o),
(99,-5,o),
(255,-5,cs),
(356,-5,o),
(455,92,o),
(455,258,cs),
(455,415,o),
(383,519,o),
(255,519,cs),
(149,519,o),
(30,411,o),
(30,257,cs)
);
},
{
closed = 1;
nodes = (
(385,-105,ls),
(385,-141,o),
(414,-170,o),
(450,-170,cs),
(486,-170,o),
(515,-141,o),
(515,-105,cs),
(515,450,ls),
(515,486,o),
(486,515,o),
(450,515,cs),
(414,515,o),
(385,486,o),
(385,450,cs)
);
}
);
width = 565;
},
{
background = {
shapes = (
{
attr = {
strokeWidth = 1;
};
closed = 1;
nodes = (
(32,424,o),
(130,514,o),
(240,514,c),
(348,514,o),
(447,435,o),
(447,258,c),
(447,74,o),
(310,3,o),
(226,3,c),
(92,3,o),
(32,114,o),
(32,268,c)
);
},
{
attr = {
strokeWidth = 1;
};
closed = 0;
nodes = (
(447,-145,l),
(447,493,l)
);
}
);
};
layerId = "6E2DD877-F1E1-49A3-9E5D-7A76BAA67C2C";
shapes = (
{
closed = 1;
nodes = (
(75,399,o),
(164,477,o),
(255,477,cs),
(355,477,o),
(425,409,o),
(425,258,cs),
(425,103,o),
(341,41,o),
(242,41,cs),
(131,41,o),
(75,135,o),
(75,268,cs)
);
},
{
closed = 1;
nodes = (
(30,121,o),
(102,-5,o),
(242,-5,cs),
(356,-5,o),
(470,74,o),
(470,258,cs),
(470,434,o),
(374,522,o),
(255,522,cs),
(143,522,o),
(30,422,o),
(30,268,cs)
);
},
{
closed = 1;
nodes = (
(425,-147,ls),
(425,-159,o),
(435,-170,o),
(447,-170,cs),
(459,-170,o),
(470,-159,o),
(470,-147,cs),
(470,492,ls),
(470,504,o),
(459,515,o),
(447,515,cs),
(435,515,o),
(425,504,o),
(425,492,cs)
);
}
);
width = 520;
}
);
metricLeft = o;
unicode = 113;
},
{
color = 0;
glyphname = q.ss01;
lastChange = "2021-06-03 18:46:02 +0000";
layers = (
{
background = {
shapes = (
{
attr = {
strokeWidth = 1;
};
closed = 1;
nodes = (
(40,424,o),
(138,514,o),
(248,514,c),
(356,514,o),
(455,435,o),
(455,258,c),
(455,74,o),
(318,3,o),
(234,3,c),
(100,3,o),
(40,114,o),
(40,268,c)
);
},
{
attr = {
strokeWidth = 1;
};
closed = 0;
nodes = (
(455,-145,l),
(455,493,l)
);
}
);
};
layerId = m01;
shapes = (
{
closed = 1;
nodes = (
(110,374,o),
(184,442,o),
(258,442,cs),
(342,442,o),
(415,384,o),
(415,258,cs),
(415,128,o),
(338,73,o),
(254,73,cs),
(164,73,o),
(110,154,o),
(110,268,cs)
);
},
{
closed = 1;
nodes = (
(30,128,o),
(112,-7,o),
(254,-7,cs),
(365,-7,o),
(495,77,o),
(495,258,cs),
(495,428,o),
(376,522,o),
(258,522,cs),
(147,522,o),
(30,415,o),
(30,268,cs)
);
},
{
closed = 1;
nodes = (
(415,-130,ls),
(415,-152,o),
(433,-170,o),
(455,-170,cs),
(477,-170,o),
(495,-152,o),
(495,-130,cs),
(495,475,ls),
(495,497,o),
(477,515,o),
(455,515,cs),
(433,515,o),
(415,497,o),
(415,475,cs)
);
}
);
width = 545;
},
{
background = {
shapes = (
{
attr = {
strokeWidth = 1;
};
closed = 1;
nodes = (
(35,424,o),
(133,514,o),
(243,514,c),
(351,514,o),
(450,435,o),
(450,258,c),
(450,74,o),
(313,3,o),
(229,3,c),
(95,3,o),
(35,114,o),
(35,268,c)
);
},
{
attr = {
strokeWidth = 1;
};
closed = 0;
nodes = (
(450,-145,l),
(450,493,l)
);
}
);
};
layerId = m004;
shapes = (
{
closed = 1;
nodes = (
(160,335,o),
(208,389,o),
(263,389,cs),
(328,389,o),
(385,344,o),
(385,258,cs),
(385,161,o),
(322,125,o),
(263,125,cs),
(198,125,o),
(160,187,o),
(160,268,cs)
);
},
{
closed = 1;
nodes = (
(30,146,o),
(99,-5,o),
(259,-5,cs),
(356,-5,o),
(515,92,o),
(515,258,cs),
(515,415,o),
(383,519,o),
(263,519,cs),
(149,519,o),
(30,402,o),
(30,268,cs)
);
},
{
closed = 1;
nodes = (
(385,-105,ls),
(385,-141,o),
(414,-170,o),
(450,-170,cs),
(486,-170,o),
(515,-141,o),
(515,-105,cs),
(515,450,ls),
(515,486,o),
(486,515,o),
(450,515,cs),
(414,515,o),
(385,486,o),
(385,450,cs)
);
}
);
width = 565;
},
{
background = {
shapes = (
{
attr = {
strokeWidth = 1;
};
closed = 1;
nodes = (
(32,424,o),
(130,514,o),
(240,514,c),
(348,514,o),
(447,435,o),
(447,258,c),
(447,74,o),
(310,3,o),
(226,3,c),
(92,3,o),
(32,114,o),
(32,268,c)
);
},
{
attr = {
strokeWidth = 1;
};
closed = 0;
nodes = (
(447,-145,l),
(447,493,l)
);
}
);
};
layerId = "6E2DD877-F1E1-49A3-9E5D-7A76BAA67C2C";
shapes = (
{
closed = 1;
nodes = (
(75,399,o),
(164,477,o),
(255,477,cs),
(355,477,o),
(425,409,o),
(425,258,cs),
(425,103,o),
(341,41,o),
(242,41,cs),
(131,41,o),
(75,135,o),
(75,268,cs)
);
},
{
closed = 1;
nodes = (
(30,121,o),
(102,-5,o),
(242,-5,cs),
(356,-5,o),
(470,74,o),
(470,258,cs),
(470,434,o),
(374,522,o),
(255,522,cs),
(143,522,o),
(30,422,o),
(30,268,cs)
);
},
{
closed = 1;
nodes = (
(425,-147,ls),
(425,-159,o),
(435,-170,o),
(447,-170,cs),
(459,-170,o),
(470,-159,o),
(470,-147,cs),
(470,492,ls),
(470,504,o),
(459,515,o),
(447,515,cs),
(435,515,o),
(425,504,o),
(425,492,cs)
);
}
);
width = 520;
}
);
metricLeft = o;
},
{
glyphname = r;
lastChange = "2021-06-03 18:45:29 +0000";
layers = (
{
background = {
shapes = (
{
attr = {
strokeWidth = 1;
};
closed = 0;
nodes = (
(90,493,l),
(90,0,l)
);
},
{
attr = {
strokeWidth = 1;
};
closed = 0;
nodes = (
(257,490,l),
(191,490,o),
(180,470,o),
(167,456,c),
(137,425,o),
(90,353,o),
(90,353,c)
);
}
);
};
layerId = m01;
shapes = (
{
closed = 1;
nodes = (
(130,475,ls),
(130,497,o),
(112,515,o),
(90,515,cs),
(67,515,o),
(50,497,o),
(50,475,cs),
(50,40,ls),
(50,18,o),
(67,0,o),
(90,0,cs),
(112,0,o),
(130,18,o),
(130,40,cs)
);
},
{
closed = 1;
nodes = (
(121,301,l),
(142,338,o),
(188,432,o),
(277,432,cs),
(299,432,o),
(317,450,o),
(317,472,cs),
(317,494,o),
(299,512,o),
(277,512,cs),
(190,512,o),
(151,483,o),
(121,437,c)
);
}
);
width = 317;
},
{
background = {
shapes = (
{
attr = {
strokeWidth = 1;
};
closed = 0;
nodes = (
(115,493,l),
(115,0,l)
);
},
{
attr = {
strokeWidth = 1;
};
closed = 0;
nodes = (
(282,490,l),
(216,490,o),
(205,470,o),
(192,456,c),
(162,425,o),
(115,353,o),
(115,353,c)
);
}
);
};
layerId = m004;
shapes = (
{
closed = 1;
nodes = (
(180,450,ls),
(180,486,o),
(151,515,o),
(115,515,cs),
(79,515,o),
(50,486,o),
(50,450,cs),
(50,65,ls),
(50,29,o),
(79,0,o),
(115,0,cs),
(151,0,o),
(180,29,o),
(180,65,cs)
);
},
{
closed = 1;
nodes = (
(154,238,l),
(180,299,o),
(212,382,o),
(292,382,cs),
(328,382,o),
(357,411,o),
(357,447,cs),
(357,483,o),
(328,512,o),
(280,512,cs),
(210,512,o),
(165,475,o),
(154,447,c)
);
}
);
width = 367;
},
{
background = {
shapes = (
{
attr = {
strokeWidth = 1;
};
closed = 0;
nodes = (
(73,493,l),
(73,0,l)
);
},
{
attr = {
strokeWidth = 1;
};
closed = 0;
nodes = (
(240,490,l),
(174,490,o),
(163,470,o),
(150,456,c),
(120,425,o),
(73,353,o),
(73,353,c)
);
}
);
};
layerId = "6E2DD877-F1E1-49A3-9E5D-7A76BAA67C2C";
shapes = (
{
closed = 1;
nodes = (
(95,493,ls),
(95,505,o),
(85,515,o),
(73,515,cs),
(60,515,o),
(50,505,o),
(50,493,cs),
(50,23,ls),
(50,11,o),
(60,0,o),
(73,0,cs),
(85,0,o),
(95,11,o),
(95,23,cs)
);
},
{
closed = 1;
nodes = (
(89,331,l),
(110,366,o),
(162,468,o),
(250,468,cs),
(262,468,o),
(272,478,o),
(272,490,cs),
(272,503,o),
(262,513,o),
(250,513,cs),
(164,513,o),
(134,476,o),
(89,416,c)
);
}
);
width = 282;
}
);
unicode = 114;
},
{
color = 0;
glyphname = r.ss01;
lastChange = "2021-06-03 18:46:05 +0000";
layers = (
{
background = {
shapes = (
{
attr = {
strokeWidth = 1;
};
closed = 0;
nodes = (
(90,493,l),
(90,0,l)
);
},
{
attr = {
strokeWidth = 1;
};
closed = 0;
nodes = (
(257,490,l),
(191,490,o),
(180,470,o),
(167,456,c),
(137,425,o),
(90,353,o),
(90,353,c)
);
}
);
};
layerId = m01;
shapes = (
{
closed = 1;
nodes = (
(130,475,ls),
(130,497,o),
(112,515,o),
(90,515,cs),
(67,515,o),
(50,497,o),
(50,475,cs),
(50,40,ls),
(50,18,o),
(67,0,o),
(90,0,cs),
(112,0,o),
(130,18,o),
(130,40,cs)
);
},
{
closed = 1;
nodes = (
(121,301,l),
(142,338,o),
(188,432,o),
(277,432,cs),
(299,432,o),
(317,450,o),
(317,472,cs),
(317,494,o),
(299,512,o),
(277,512,cs),
(190,512,o),
(151,483,o),
(121,437,c)
);
}
);
width = 317;
},
{
background = {
shapes = (
{
attr = {
strokeWidth = 1;
};
closed = 0;
nodes = (
(115,493,l),
(115,0,l)
);
},
{
attr = {
strokeWidth = 1;
};
closed = 0;
nodes = (
(282,490,l),
(216,490,o),
(205,470,o),
(192,456,c),
(162,425,o),
(115,353,o),
(115,353,c)
);
}
);
};
layerId = m004;
shapes = (
{
closed = 1;
nodes = (
(180,450,ls),
(180,486,o),
(151,515,o),
(115,515,cs),
(79,515,o),
(50,486,o),
(50,450,cs),
(50,65,ls),
(50,29,o),
(79,0,o),
(115,0,cs),
(151,0,o),
(180,29,o),
(180,65,cs)
);
},
{
closed = 1;
nodes = (
(154,248,l),
(180,309,o),
(202,382,o),
(282,382,cs),
(318,382,o),
(347,411,o),
(347,447,cs),
(347,483,o),
(318,512,o),
(282,512,cs),
(220,512,o),
(175,474,o),
(154,457,c)
);
}
);
width = 367;
},
{
background = {
shapes = (
{
attr = {
strokeWidth = 1;
};
closed = 0;
nodes = (
(73,493,l),
(73,0,l)
);
},
{
attr = {
strokeWidth = 1;
};
closed = 0;
nodes = (
(240,490,l),
(174,490,o),
(163,470,o),
(150,456,c),
(120,425,o),
(73,353,o),
(73,353,c)
);
}
);
};
layerId = "6E2DD877-F1E1-49A3-9E5D-7A76BAA67C2C";
shapes = (
{
closed = 1;
nodes = (
(95,493,ls),
(95,505,o),
(85,515,o),
(73,515,cs),
(60,515,o),
(50,505,o),
(50,493,cs),
(50,23,ls),
(50,11,o),
(60,0,o),
(73,0,cs),
(85,0,o),
(95,11,o),
(95,23,cs)
);
},
{
closed = 1;
nodes = (
(89,336,l),
(110,366,o),
(162,468,o),
(250,468,cs),
(262,468,o),
(272,478,o),
(272,490,cs),
(272,503,o),
(262,513,o),
(250,513,cs),
(164,513,o),
(134,476,o),
(89,416,c)
);
}
);
width = 282;
}
);
},
{
glyphname = s;
lastChange = "2021-06-03 19:13:33 +0000";
layers = (
{
background = {
shapes = (
{
attr = {
strokeWidth = 1;
};
closed = 0;
nodes = (
(401,453,l),
(401,453,o),
(379,532,o),
(255,532,c),
(187,532,o),
(75,510,o),
(75,400,c),
(75,235,o),
(429,334,o),
(429,137,c),
(429,83,o),
(380,0,o),
(262,0,c),
(94,0,o),
(75,117,o),
(75,117,c)
);
}
);
};
layerId = m01;
shapes = (
{
closed = 1;
nodes = (
(68,73,o),
(116,-3,o),
(262,-3,cs),
(400,-3,o),
(454,81,o),
(454,144,cs),
(454,364,o),
(134,265,o),
(134,367,cs),
(134,424,o),
(186,439,o),
(255,439,cs),
(322,439,o),
(348,426,o),
(358,397,cs),
(364,381,o),
(379,370,o),
(396,370,cs),
(418,370,o),
(436,388,o),
(436,410,cs),
(436,483,o),
(337,519,o),
(255,519,cs),
(176,519,o),
(54,492,o),
(54,367,cs),
(54,166,o),
(374,288,o),
(374,144,cs),
(374,111,o),
(352,77,o),
(262,77,cs),
(156,77,o),
(140,116,o),
(129,163,cs),
(125,181,o),
(109,194,o),
(90,194,cs),
(64,194,o),
(45,170,o),
(51,145,cs)
);
}
);
width = 504;
},
{
background = {
shapes = (
{
attr = {
strokeWidth = 1;
};
closed = 0;
nodes = (
(405,453,l),
(405,453,o),
(383,532,o),
(259,532,c),
(191,532,o),
(79,510,o),
(79,400,c),
(79,235,o),
(433,334,o),
(433,137,c),
(433,83,o),
(384,0,o),
(266,0,c),
(98,0,o),
(79,117,o),
(79,117,c)
);
},
{
closed = 1;
nodes = (
(-465,20,o),
(-388,-65,o),
(-234,-65,cs),
(-77,-65,o),
(-2,50,o),
(-2,137,cs),
(-2,334,o),
(-356,321,o),
(-356,400,cs),
(-356,457,o),
(-303,467,o),
(-241,467,cs),
(-178,467,o),
(-165,455,o),
(-156,431,cs),
(-147,406,o),
(-123,388,o),
(-95,388,cs),
(-59,388,o),
(-30,417,o),
(-30,453,cs),
(-30,461,o),
(-31,468,o),
(-34,475,cs),
(-55,535,o),
(-121,597,o),
(-241,597,cs),
(-349,597,o),
(-486,549,o),
(-486,400,cs),
(-486,183,o),
(-132,260,o),
(-132,137,cs),
(-132,101,o),
(-153,65,o),
(-234,65,cs),
(-324,65,o),
(-348,91,o),
(-358,132,cs),
(-364,161,o),
(-390,182,o),
(-421,182,cs),
(-465,182,o),
(-493,141,o),
(-484,102,cs)
);
},
{
attr = {
lineCapEnd = "1";
lineCapStart = "1";
strokeWidth = 130;
};
closed = 0;
nodes = (
(877,396,l),
(869,411,o),
(829,455,o),
(759,455,c),
(707,455,o),
(625,438,o),
(625,357,c),
(625,234,o),
(887,307,o),
(887,161,c),
(887,121,o),
(851,60,o),
(764,60,c),
(639,60,o),
(625,147,o),
(625,147,c)
);
}
);
};
layerId = m004;
shapes = (
{
closed = 1;
nodes = (
(69,52,o),
(130,-5,o),
(264,-5,cs),
(397,-5,o),
(462,85,o),
(462,161,cs),
(462,337,o),
(180,311,o),
(180,372,cs),
(180,390,o),
(204,400,o),
(245,400,cs),
(310,400,o),
(325,373,o),
(330,365,cs),
(341,345,o),
(362,331,o),
(387,331,cs),
(423,331,o),
(452,360,o),
(452,396,cs),
(452,456,o),
(368,520,o),
(259,520,cs),
(155,520,o),
(50,474,o),
(50,357,cs),
(50,174,o),
(332,219,o),
(332,146,cs),
(332,131,o),
(324,115,o),
(264,115,cs),
(223,115,o),
(185,123,o),
(180,149,cs),
(175,174,o),
(148,199,o),
(113,199,cs),
(73,199,o),
(45,158,o),
(54,119,cs)
);
}
);
width = 512;
},
{
background = {
shapes = (
{
attr = {
strokeWidth = 1;
};
closed = 0;
nodes = (
(386,453,l),
(386,453,o),
(364,532,o),
(240,532,c),
(172,532,o),
(60,510,o),
(60,400,c),
(60,235,o),
(414,334,o),
(414,137,c),
(414,83,o),
(365,0,o),
(247,0,c),
(79,0,o),
(60,117,o),
(60,117,c)
);
}
);
};
layerId = "6E2DD877-F1E1-49A3-9E5D-7A76BAA67C2C";
shapes = (
{
closed = 1;
nodes = (
(64,57,o),
(122,-5,o),
(246,-5,cs),
(372,-5,o),
(424,82,o),
(424,139,cs),
(424,347,o),
(95,257,o),
(95,380,cs),
(95,462,o),
(175,479,o),
(240,479,cs),
(317,479,o),
(341,451,o),
(355,420,cs),
(358,413,o),
(365,405,o),
(379,405,cs),
(394,405,o),
(402,423,o),
(397,435,cs),
(382,476,o),
(335,519,o),
(240,520,cs),
(168,521,o),
(51,497,o),
(51,380,cs),
(51,201,o),
(380,310,o),
(380,139,cs),
(380,96,o),
(347,38,o),
(246,38,cs),
(142,38,o),
(104,79,o),
(94,126,cs),
(92,136,o),
(84,145,o),
(70,145,cs),
(58,145,o),
(48,130,o),
(51,117,cs)
);
}
);
width = 474;
}
);
unicode = 115;
},
{
color = 0;
glyphname = s.ss01;
lastChange = "2021-06-03 18:46:09 +0000";
layers = (
{
background = {
shapes = (
{
attr = {
strokeWidth = 1;
};
closed = 0;
nodes = (
(396,453,l),
(396,453,o),
(374,532,o),
(250,532,c),
(182,532,o),
(70,510,o),
(70,400,c),
(70,235,o),
(424,334,o),
(424,137,c),
(424,83,o),
(375,0,o),
(257,0,c),
(89,0,o),
(70,117,o),
(70,117,c)
);
}
);
};
layerId = m01;
shapes = (
{
closed = 1;
nodes = (
(68,73,o),
(116,-3,o),
(257,-3,cs),
(390,-3,o),
(444,81,o),
(444,144,cs),
(444,364,o),
(130,265,o),
(130,377,cs),
(130,424,o),
(186,439,o),
(250,439,cs),
(312,439,o),
(338,426,o),
(348,397,cs),
(354,381,o),
(369,370,o),
(386,370,cs),
(408,370,o),
(426,388,o),
(426,410,cs),
(426,483,o),
(327,519,o),
(250,519,cs),
(176,519,o),
(50,492,o),
(50,377,cs),
(50,166,o),
(364,288,o),
(364,144,cs),
(364,111,o),
(342,77,o),
(257,77,cs),
(156,77,o),
(140,116,o),
(129,163,cs),
(125,181,o),
(109,194,o),
(90,194,cs),
(64,194,o),
(45,170,o),
(51,145,cs)
);
}
);
width = 494;
},
{
background = {
shapes = (
{
attr = {
strokeWidth = 1;
};
closed = 0;
nodes = (
(405,453,l),
(405,453,o),
(383,532,o),
(259,532,c),
(191,532,o),
(79,510,o),
(79,400,c),
(79,235,o),
(433,334,o),
(433,137,c),
(433,83,o),
(384,0,o),
(266,0,c),
(98,0,o),
(79,117,o),
(79,117,c)
);
},
{
closed = 1;
nodes = (
(-465,20,o),
(-388,-65,o),
(-234,-65,cs),
(-77,-65,o),
(-2,50,o),
(-2,137,cs),
(-2,334,o),
(-356,321,o),
(-356,400,cs),
(-356,457,o),
(-303,467,o),
(-241,467,cs),
(-178,467,o),
(-165,455,o),
(-156,431,cs),
(-147,406,o),
(-123,388,o),
(-95,388,cs),
(-59,388,o),
(-30,417,o),
(-30,453,cs),
(-30,461,o),
(-31,468,o),
(-34,475,cs),
(-55,535,o),
(-121,597,o),
(-241,597,cs),
(-349,597,o),
(-486,549,o),
(-486,400,cs),
(-486,183,o),
(-132,260,o),
(-132,137,cs),
(-132,101,o),
(-153,65,o),
(-234,65,cs),
(-324,65,o),
(-348,91,o),
(-358,132,cs),
(-364,161,o),
(-390,182,o),
(-421,182,cs),
(-465,182,o),
(-493,141,o),
(-484,102,cs)
);
},
{
attr = {
lineCapEnd = "1";
lineCapStart = "1";
strokeWidth = 130;
};
closed = 0;
nodes = (
(877,396,l),
(869,411,o),
(829,455,o),
(759,455,c),
(707,455,o),
(625,438,o),
(625,357,c),
(625,234,o),
(887,307,o),
(887,161,c),
(887,121,o),
(851,60,o),
(764,60,c),
(639,60,o),
(625,147,o),
(625,147,c)
);
}
);
};
layerId = m004;
shapes = (
{
closed = 1;
nodes = (
(67,65,o),
(130,-5,o),
(264,-5,cs),
(397,-5,o),
(462,85,o),
(462,161,cs),
(462,327,o),
(180,300,o),
(180,357,cs),
(180,385,o),
(204,390,o),
(259,390,cs),
(310,390,o),
(325,373,o),
(330,365,cs),
(341,345,o),
(362,331,o),
(387,331,cs),
(423,331,o),
(452,360,o),
(452,396,cs),
(452,447,o),
(368,520,o),
(259,520,cs),
(155,520,o),
(50,474,o),
(50,357,cs),
(50,164,o),
(332,229,o),
(332,161,cs),
(332,139,o),
(324,125,o),
(264,125,cs),
(194,125,o),
(184,136,o),
(178,162,cs),
(172,191,o),
(146,212,o),
(115,212,cs),
(71,212,o),
(43,171,o),
(52,132,cs)
);
}
);
width = 512;
},
{
background = {
shapes = (
{
attr = {
strokeWidth = 1;
};
closed = 0;
nodes = (
(381,453,l),
(381,453,o),
(359,532,o),
(235,532,c),
(167,532,o),
(55,510,o),
(55,400,c),
(55,235,o),
(409,334,o),
(409,137,c),
(409,83,o),
(360,0,o),
(242,0,c),
(74,0,o),
(55,117,o),
(55,117,c)
);
}
);
};
layerId = "6E2DD877-F1E1-49A3-9E5D-7A76BAA67C2C";
shapes = (
{
closed = 1;
nodes = (
(64,57,o),
(122,-5,o),
(241,-5,cs),
(362,-6,o),
(414,82,o),
(414,139,cs),
(414,347,o),
(95,257,o),
(95,380,cs),
(95,462,o),
(175,479,o),
(235,479,cs),
(307,479,o),
(335,451,o),
(345,420,cs),
(348,413,o),
(355,405,o),
(369,405,cs),
(384,405,o),
(392,423,o),
(387,435,cs),
(372,476,o),
(325,520,o),
(235,520,cs),
(168,521,o),
(51,497,o),
(51,380,cs),
(51,201,o),
(370,310,o),
(370,139,cs),
(370,96,o),
(337,39,o),
(241,38,cs),
(142,38,o),
(104,79,o),
(94,126,cs),
(92,136,o),
(84,145,o),
(70,145,cs),
(58,145,o),
(48,130,o),
(51,117,cs)
);
}
);
width = 464;
}
);
},
{
color = 3;
glyphname = germandbls;
lastChange = "2021-06-22 20:38:45 +0000";
layers = (
{
background = {
shapes = (
{
attr = {
lineCapEnd = "1";
lineCapStart = "1";
strokeHeight = 45;
strokeWidth = 45;
};
closed = 0;
nodes = (
(52,23,l),
(52,23,o),
(106,23,o),
(106,83,c),
(106,549,ls),
(106,677,o),
(198,700,o),
(266,700,cs),
(370,700,o),
(412,635,o),
(412,586,cs),
(412,524,o),
(368,492,o),
(331,464,cs),
(304,444,o),
(280,420,o),
(280,375,cs),
(280,317,o),
(327,287,o),
(374,258,cs),
(422,228,o),
(469,200,o),
(469,136,cs),
(469,76,o),
(431,23,o),
(331,23,cs),
(251,23,o),
(216,46,o),
(195,72,c)
);
}
);
};
layerId = "6E2DD877-F1E1-49A3-9E5D-7A76BAA67C2C";
shapes = (
{
closed = 1;
nodes = (
(201.711,27.883,o),
(242.669,0.5,o),
(331,0.5,c),
(445.554,0.5,o),
(491.5,65.767,o),
(491.5,136,c),
(491.5,212.986,o),
(433.891,247.101,o),
(385.87,277.114,c),
(338.961,306.058,o),
(302.5,329.331,o),
(302.5,375,c),
(302.5,410.68,o),
(318.732,426.912,o),
(344.485,445.989,c),
(381.566,474.05,o),
(434.5,512.342,o),
(434.5,586,c),
(434.5,644.637,o),
(385.25,722.5,o),
(266,722.5,c),
(192.83,722.5,o),
(83.5,695.167,o),
(83.5,549,c),
(83.5,83,l),
(83.5,53.451,o),
(71.806,46.635,o),
(50.752,45.466,c),
(38.906,44.818,o),
(29.5,35.008,o),
(29.5,23,c),
(29.5,10.296,o),
(40.563,-0.16,o),
(53.248,0.534,c),
(87.71,2.449,o),
(128.5,24.995,o),
(128.5,83,c),
(128.5,549,l),
(128.5,659.433,o),
(200.77,677.5,o),
(266,677.5,c),
(357.75,677.5,o),
(389.5,628.363,o),
(389.5,586,c),
(389.5,535.458,o),
(354.593,510.071,o),
(317.515,482.011,c),
(288.465,460.493,o),
(257.5,430.32,o),
(257.5,375,c),
(257.5,304.269,o),
(314.699,268.152,o),
(362.13,238.886,c),
(410.278,208.793,o),
(446.5,187.214,o),
(446.5,136,c),
(446.5,83.233,o),
(419.446,45.5,o),
(331,45.5,c),
(257.731,45.5,o),
(231.295,62.873,o),
(212.504,86.138,c),
(208.38,91.239,o),
(202.071,94.5,o),
(195,94.5,c),
(182.573,94.5,o),
(172.5,84.427,o),
(172.5,72,c),
(172.5,66.644,o),
(174.371,61.725,o),
(177.496,57.862,c)
);
}
);
width = 522;
},
{
background = {
shapes = (
{
attr = {
lineCapEnd = "1";
lineCapStart = "1";
strokeHeight = 80;
strokeWidth = 80;
};
closed = 0;
nodes = (
(70,23,l),
(70,23,o),
(123,23,o),
(123,81,c),
(123,534,ls),
(123,659,o),
(212,681,o),
(278,681,cs),
(377,681,o),
(411,618,o),
(411,570,cs),
(411,510,o),
(376,479,o),
(345,452,cs),
(323,432,o),
(292,409,o),
(292,365,cs),
(292,309,o),
(348,280,o),
(398,251,cs),
(449,222,o),
(500,195,o),
(500,133,cs),
(500,75,o),
(459,23,o),
(352,23,cs),
(303,23,o),
(272,35,o),
(254,50,c)
);
}
);
};
layerId = m01;
shapes = (
{
closed = 1;
nodes = (
(253.127,-1.341,o),
(293.328,-17,o),
(352,-17,c),
(484.399,-17,o),
(540,55.127,o),
(540,133,c),
(540,219.483,o),
(468.596,256.872,o),
(417.92,285.686,c),
(367.242,315.08,o),
(332,333.331,o),
(332,365,c),
(332,388.87,o),
(348.433,401.063,o),
(371.589,422.12,c),
(402.849,449.34,o),
(451,491.395,o),
(451,570,c),
(451,635.705,o),
(403.266,721,o),
(278,721,c),
(204.929,721,o),
(83,692.516,o),
(83,534,c),
(83,81,l),
(83,63.771,o),
(83,63.771,o),
(67.815,62.941,c),
(46.739,61.807,o),
(30,44.358,o),
(30,23,c),
(30,0.31,o),
(49.529,-18.161,o),
(72.185,-16.941,c),
(120.026,-14.323,o),
(163,19.539,o),
(163,81,c),
(163,534,l),
(163,627.684,o),
(216.871,641,o),
(278,641,c),
(353.134,641,o),
(371,607.895,o),
(371,570,c),
(371,528.005,o),
(349.604,509.054,o),
(318.411,481.88,c),
(287.06,453.385,o),
(252,423.2,o),
(252,365,c),
(252,290.6,o),
(312.841,254.151,o),
(378.08,216.314,c),
(429.752,186.931,o),
(460,170.917,o),
(460,133,c),
(460,88.873,o),
(439.601,63,o),
(352,63,c),
(310.472,63,o),
(292.563,69.932,o),
(279.608,80.729,c),
(272.67,86.518,o),
(263.742,90,o),
(254,90,c),
(231.908,90,o),
(214,72.092,o),
(214,50,c),
(214,37.65,o),
(219.597,26.608,o),
(228.392,19.271,c)
);
}
);
width = 570;
},
{
background = {
shapes = (
{
attr = {
lineCapEnd = "1";
lineCapStart = "1";
strokeHeight = 130;
strokeWidth = 130;
};
closed = 0;
nodes = (
(95,65,l),
(95,65,o),
(142,65,o),
(142,118,c),
(142,524,ls),
(142,635,o),
(223,656,o),
(284,656,cs),
(360,656,o),
(416,614,o),
(416,556,cs),
(416,501,o),
(386,474,o),
(359,450,cs),
(341,433,o),
(315,406,o),
(315,368,cs),
(315,317,o),
(362,296,o),
(403,271,cs),
(452,244,o),
(503,216,o),
(503,160,cs),
(503,116,o),
(452,65,o),
(408,65,cs),
(362,65,o),
(329,76,o),
(310,90,c)
);
}
);
};
layerId = m004;
shapes = (
{
closed = 1;
nodes = (
(298.332,17.858,o),
(343.452,0,o),
(408,0,c),
(488,0,o),
(568,80,o),
(568,160,c),
(568,248.031,o),
(500.318,291.514,o),
(435.624,327.237,c),
(392.076,353.756,o),
(380,359.232,o),
(380,368,c),
(380,379.63,o),
(386.568,386.61,o),
(402.944,402.095,c),
(445.454,440.005,o),
(481,482.239,o),
(481,556,c),
(481,646,o),
(401.667,721,o),
(284,721,c),
(180.511,721,o),
(77,667.4,o),
(77,524,c),
(77,118,l),
(77,113.148,o),
(96.366,130.18,o),
(91.341,129.898,c),
(57.144,128.001,o),
(30,99.671,o),
(30,65,c),
(30,27.733,o),
(61.449,-1.964,o),
(98.659,0.102,c),
(156.035,3.338,o),
(207,46.079,o),
(207,118,c),
(207,524,l),
(207,584.703,o),
(231.289,591,o),
(284,591,c),
(338.333,591,o),
(351,581.5,o),
(351,556,c),
(351,529.724,o),
(342.522,522.32,o),
(315.118,497.961,c),
(281.914,466.774,o),
(250,425.432,o),
(250,368,c),
(250,281.955,o),
(316.99,247.404,o),
(370.363,214.769,c),
(420.377,187.208,o),
(438,177.685,o),
(438,160,c),
(438,142.924,o),
(425.076,130,o),
(408,130,c),
(372.548,130,o),
(359.294,134.418,o),
(348.559,142.33,c),
(337.773,150.294,o),
(324.436,155,o),
(310,155,c),
(274.101,155,o),
(245,125.899,o),
(245,90,c),
(245,68.537,o),
(255.402,49.505,o),
(271.441,37.67,c)
);
}
);
width = 598;
}
);
unicode = 223;
},
{
glyphname = t;
lastChange = "2021-06-22 20:22:39 +0000";
layers = (
{
background = {
shapes = (
{
attr = {
lineCapEnd = "1";
lineCapStart = "1";
strokeHeight = 80;
strokeWidth = 80;
};
closed = 0;
nodes = (
(168,33,l),
(125,33,o),
(128,61,o),
(128,82,c),
(128,567,l)
);
},
{
attr = {
lineCapEnd = "1";
lineCapStart = "1";
strokeHeight = 80;
strokeWidth = 80;
};
closed = 0;
nodes = (
(183,474,l),
(88,474,l)
);
}
);
};
layerId = m01;
shapes = (
{
closed = 1;
nodes = (
(73,85,l),
(73,27.6,o),
(93.521,-7,o),
(175,-7,c),
(197.092,-7,o),
(215,10.908,o),
(215,33,c),
(215,55.092,o),
(197.092,73,o),
(175,73,c),
(153,73,o),
(153,73,o),
(153,85,c),
(153,567,l),
(153,589.092,o),
(135.092,607,o),
(113,607,c),
(90.908,607,o),
(73,589.092,o),
(73,567,c)
);
},
{
closed = 1;
nodes = (
(181,435,l),
(203.092,435,o),
(221,452.908,o),
(221,475,c),
(221,497.092,o),
(203.092,515,o),
(181,515,c),
(70,515,l),
(47.908,515,o),
(30,497.092,o),
(30,475,c),
(30,452.908,o),
(47.908,435,o),
(70,435,c)
);
}
);
width = 251;
},
{
background = {
shapes = (
{
closed = 1;
nodes = (
(87,116,l),
(87,44,o),
(135,-8,o),
(228,-8,c),
(274,-8,o),
(303,21,o),
(303,57,c),
(303,93,o),
(274,122,o),
(238,122,c),
(222,122,o),
(217,126,o),
(217,156,c),
(217,543,l),
(217,579,o),
(188,608,o),
(152,608,c),
(116,608,o),
(87,579,o),
(87,543,c)
);
},
{
closed = 1;
nodes = (
(232,386,ls),
(268,386,o),
(297,415,o),
(297,451,cs),
(297,487,o),
(268,516,o),
(232,516,cs),
(95,516,l),
(59,516,o),
(30,487,o),
(30,451,c),
(30,415,o),
(59,386,o),
(95,386,c)
);
}
);
};
layerId = m004;
shapes = (
{
closed = 1;
nodes = (
(87,116,l),
(87,44,o),
(135,-8,o),
(228,-8,c),
(274,-8,o),
(303,21,o),
(303,57,c),
(303,93,o),
(274,122,o),
(238,122,c),
(222,122,o),
(217,126,o),
(217,156,c),
(217,543,l),
(217,579,o),
(188,608,o),
(152,608,c),
(116,608,o),
(87,579,o),
(87,543,c)
);
},
{
closed = 1;
nodes = (
(232,386,ls),
(268,386,o),
(297,415,o),
(297,451,cs),
(297,487,o),
(268,516,o),
(232,516,cs),
(95,516,l),
(59,516,o),
(30,487,o),
(30,451,c),
(30,415,o),
(59,386,o),
(95,386,c)
);
}
);
width = 297;
},
{
background = {
shapes = (
{
attr = {
lineCapEnd = "1";
lineCapStart = "1";
strokeHeight = 45;
strokeWidth = 45;
};
closed = 0;
nodes = (
(157,16,l),
(106,16,o),
(95,25,o),
(95,68,c),
(95,584,l)
);
},
{
attr = {
lineCapEnd = "1";
lineCapStart = "1";
strokeHeight = 45;
strokeWidth = 45;
};
closed = 0;
nodes = (
(163,492,l),
(52,492,l)
);
}
);
};
layerId = "6E2DD877-F1E1-49A3-9E5D-7A76BAA67C2C";
shapes = (
{
closed = 1;
nodes = (
(72.5,68,l),
(72.5,11.738,o),
(93.568,-6.5,o),
(157,-6.5,c),
(169.427,-6.5,o),
(179.5,3.573,o),
(179.5,16,c),
(179.5,28.427,o),
(169.427,38.5,o),
(157,38.5,c),
(117.5,38.5,o),
(117.5,38.5,o),
(117.5,68,c),
(117.5,584,l),
(117.5,596.427,o),
(107.427,606.5,o),
(95,606.5,c),
(82.573,606.5,o),
(72.5,596.427,o),
(72.5,584,c)
);
},
{
closed = 1;
nodes = (
(163,469.5,l),
(175.427,469.5,o),
(185.5,479.573,o),
(185.5,492,c),
(185.5,504.427,o),
(175.427,514.5,o),
(163,514.5,c),
(52,514.5,l),
(39.573,514.5,o),
(29.5,504.427,o),
(29.5,492,c),
(29.5,479.573,o),
(39.573,469.5,o),
(52,469.5,c)
);
}
);
width = 206;
}
);
unicode = 116;
},
{
glyphname = u;
lastChange = "2021-06-03 18:45:35 +0000";
layers = (
{
background = {
shapes = (
{
attr = {
lineCapEnd = "1";
lineCapStart = "1";
strokeHeight = 80;
strokeWidth = 80;
};
closed = 0;
nodes = (
(427,40,l),
(427,475,l)
);
},
{
attr = {
lineCapEnd = "1";
lineCapStart = "1";
strokeHeight = 80;
strokeWidth = 80;
};
closed = 0;
nodes = (
(90,183,l),
(90,475,l)
);
},
{
attr = {
lineCapEnd = "1";
lineCapStart = "1";
strokeHeight = 80;
strokeWidth = 80;
};
closed = 0;
nodes = (
(427,159,l),
(427,113,o),
(331,34,o),
(242,34,cs),
(143,34,o),
(90,115,o),
(90,177,c)
);
}
);
};
layerId = m01;
shapes = (
{
closed = 1;
nodes = (
(387,40,l),
(387,17.908,o),
(404.908,0,o),
(427,0,c),
(449.092,0,o),
(467,17.908,o),
(467,40,c),
(467,475,l),
(467,497.092,o),
(449.092,515,o),
(427,515,c),
(404.908,515,o),
(387,497.092,o),
(387,475,c)
);
},
{
closed = 1;
nodes = (
(397,186,l),
(391,179,o),
(387,169,o),
(387,159,c),
(387,131.886,o),
(316.658,74,o),
(242,74,c),
(164.629,74,o),
(130,126.924,o),
(130,177,c),
(130,475,l),
(130,497.092,o),
(112.092,515,o),
(90,515,c),
(67.908,515,o),
(50,497.092,o),
(50,475,c),
(50,177,l),
(50,95.476,o),
(118.771,-6,o),
(242,-6,c),
(297,-6,o),
(368,28,o),
(397,61,c)
);
}
);
width = 517;
},
{
background = {
shapes = (
{
attr = {
lineCapEnd = "1";
lineCapStart = "1";
strokeHeight = 130;
strokeWidth = 130;
};
closed = 0;
nodes = (
(449,65,l),
(449,450,l)
);
},
{
attr = {
lineCapEnd = "1";
lineCapStart = "1";
strokeHeight = 130;
strokeWidth = 130;
};
closed = 0;
nodes = (
(449,171,l),
(449,130,o),
(364,59,o),
(276,59,cs),
(177,59,o),
(115,111,o),
(115,207,cs),
(115,450,l)
);
}
);
};
layerId = m004;
shapes = (
{
closed = 1;
nodes = (
(384,65,ls),
(384,29.101,o),
(413.101,0,o),
(449,0,cs),
(484.899,0,o),
(514,29.101,o),
(514,65,cs),
(514,450,ls),
(514,485.899,o),
(484.899,515,o),
(449,515,cs),
(413.101,515,o),
(384,485.899,o),
(384,450,cs)
);
},
{
closed = 1;
nodes = (
(417,227,l),
(397,216,o),
(384,195,o),
(384,171,c),
(384,160.399,o),
(340.424,124,o),
(276,124,cs),
(212,124,o),
(180,151,o),
(180,207,cs),
(180,450,ls),
(180,485.899,o),
(150.899,515,o),
(115,515,cs),
(79.101,515,o),
(50,485.899,o),
(50,450,cs),
(50,207,ls),
(50,73.481,o),
(142.95,-6,o),
(246,-6,cs),
(327,-6,o),
(386,30,o),
(417,75,c)
);
}
);
width = 564;
},
{
background = {
shapes = (
{
attr = {
lineCapEnd = "1";
lineCapStart = "1";
strokeHeight = 45;
strokeWidth = 45;
};
closed = 0;
nodes = (
(415,22,l),
(415,492,l)
);
},
{
attr = {
lineCapEnd = "1";
lineCapStart = "1";
strokeHeight = 45;
strokeWidth = 45;
};
closed = 0;
nodes = (
(72,174,l),
(72,492,l)
);
},
{
attr = {
lineCapEnd = "1";
lineCapStart = "1";
strokeHeight = 45;
strokeWidth = 45;
};
closed = 0;
nodes = (
(415,154,l),
(415,104,o),
(317,18,o),
(226,18,cs),
(127,18,o),
(72,106,o),
(72,174,c)
);
}
);
};
layerId = "6E2DD877-F1E1-49A3-9E5D-7A76BAA67C2C";
shapes = (
{
closed = 1;
nodes = (
(393,22,l),
(393,10,o),
(403,-1,o),
(415,-1,c),
(427,-1,o),
(438,10,o),
(438,22,c),
(438,492,l),
(438,504,o),
(427,515,o),
(415,515,c),
(403,515,o),
(393,504,o),
(393,492,c)
);
},
{
closed = 1;
nodes = (
(397,167,l),
(394,164,o),
(393,159,o),
(393,154,c),
(393,114,o),
(309,41,o),
(226,41,c),
(140,41,o),
(95,113,o),
(95,175,c),
(95,492,l),
(95,504,o),
(84,515,o),
(72,515,c),
(60,515,o),
(50,504,o),
(50,492,c),
(50,175,l),
(50,98,o),
(112,-5,o),
(226,-5,c),
(289,-5,o),
(356,32,o),
(397,75,c)
);
}
);
width = 488;
}
);
unicode = 117;
},
{
color = 0;
glyphname = u.ss01;
lastChange = "2021-06-03 18:46:12 +0000";
layers = (
{
background = {
shapes = (
{
attr = {
lineCapEnd = "1";
lineCapStart = "1";
strokeHeight = 80;
strokeWidth = 80;
};
closed = 0;
nodes = (
(427,40,l),
(427,475,l)
);
},
{
attr = {
lineCapEnd = "1";
lineCapStart = "1";
strokeHeight = 80;
strokeWidth = 80;
};
closed = 0;
nodes = (
(90,183,l),
(90,475,l)
);
},
{
attr = {
lineCapEnd = "1";
lineCapStart = "1";
strokeHeight = 80;
strokeWidth = 80;
};
closed = 0;
nodes = (
(427,159,l),
(427,113,o),
(331,34,o),
(242,34,cs),
(143,34,o),
(90,115,o),
(90,177,c)
);
}
);
};
layerId = m01;
shapes = (
{
closed = 1;
nodes = (
(387,40,l),
(387,17.908,o),
(404.908,0,o),
(427,0,c),
(449.092,0,o),
(467,17.908,o),
(467,40,c),
(467,475,l),
(467,497.092,o),
(449.092,515,o),
(427,515,c),
(404.908,515,o),
(387,497.092,o),
(387,475,c)
);
},
{
closed = 1;
nodes = (
(397,186,l),
(391,179,o),
(387,169,o),
(387,159,c),
(387,131.886,o),
(316.658,74,o),
(242,74,c),
(164.629,74,o),
(130,126.924,o),
(130,177,c),
(130,475,l),
(130,497.092,o),
(112.092,515,o),
(90,515,c),
(67.908,515,o),
(50,497.092,o),
(50,475,c),
(50,177,l),
(50,95.476,o),
(118.771,-6,o),
(242,-6,c),
(297,-6,o),
(354,18,o),
(397,51,c)
);
}
);
width = 517;
},
{
background = {
shapes = (
{
attr = {
lineCapEnd = "1";
lineCapStart = "1";
strokeHeight = 130;
strokeWidth = 130;
};
closed = 0;
nodes = (
(449,65,l),
(449,450,l)
);
},
{
attr = {
lineCapEnd = "1";
lineCapStart = "1";
strokeHeight = 130;
strokeWidth = 130;
};
closed = 0;
nodes = (
(449,171,l),
(449,130,o),
(364,59,o),
(276,59,cs),
(177,59,o),
(115,111,o),
(115,207,cs),
(115,450,l)
);
}
);
};
layerId = m004;
shapes = (
{
closed = 1;
nodes = (
(384,65,ls),
(384,29.101,o),
(413.101,0,o),
(449,0,cs),
(484.899,0,o),
(514,29.101,o),
(514,65,cs),
(514,450,ls),
(514,485.899,o),
(484.899,515,o),
(449,515,cs),
(413.101,515,o),
(384,485.899,o),
(384,450,cs)
);
},
{
closed = 1;
nodes = (
(417,227,l),
(397,216,o),
(384,195,o),
(384,171,c),
(384,160.399,o),
(340.424,124,o),
(276,124,cs),
(212,124,o),
(180,151,o),
(180,207,cs),
(180,450,ls),
(180,485.899,o),
(150.899,515,o),
(115,515,cs),
(79.101,515,o),
(50,485.899,o),
(50,450,cs),
(50,207,ls),
(50,73.481,o),
(142.95,-6,o),
(276,-6,cs),
(327,-6,o),
(376,10,o),
(417,35,c)
);
}
);
width = 564;
},
{
background = {
shapes = (
{
attr = {
lineCapEnd = "1";
lineCapStart = "1";
strokeHeight = 45;
strokeWidth = 45;
};
closed = 0;
nodes = (
(415,22,l),
(415,492,l)
);
},
{
attr = {
lineCapEnd = "1";
lineCapStart = "1";
strokeHeight = 45;
strokeWidth = 45;
};
closed = 0;
nodes = (
(72,174,l),
(72,492,l)
);
},
{
attr = {
lineCapEnd = "1";
lineCapStart = "1";
strokeHeight = 45;
strokeWidth = 45;
};
closed = 0;
nodes = (
(415,154,l),
(415,104,o),
(317,18,o),
(226,18,cs),
(127,18,o),
(72,106,o),
(72,174,c)
);
}
);
};
layerId = "6E2DD877-F1E1-49A3-9E5D-7A76BAA67C2C";
shapes = (
{
closed = 1;
nodes = (
(393,22,l),
(393,10,o),
(403,-1,o),
(415,-1,c),
(427,-1,o),
(438,10,o),
(438,22,c),
(438,492,l),
(438,504,o),
(427,515,o),
(415,515,c),
(403,515,o),
(393,504,o),
(393,492,c)
);
},
{
closed = 1;
nodes = (
(397,167,l),
(394,164,o),
(393,159,o),
(393,154,c),
(393,114,o),
(309,41,o),
(226,41,c),
(140,41,o),
(95,113,o),
(95,175,c),
(95,492,l),
(95,504,o),
(84,515,o),
(72,515,c),
(60,515,o),
(50,504,o),
(50,492,c),
(50,175,l),
(50,98,o),
(112,-5,o),
(226,-5,c),
(289,-5,o),
(356,32,o),
(397,75,c)
);
}
);
width = 488;
}
);
},
{
glyphname = v;
lastChange = "2021-06-22 20:26:25 +0000";
layers = (
{
background = {
shapes = (
{
attr = {
lineCapEnd = "1";
lineCapStart = "1";
strokeHeight = 80;
strokeWidth = 80;
};
closed = 0;
nodes = (
(70,476,l),
(249,40,ls),
(253,32,o),
(259,32,o),
(262,40,cs),
(441,476,l)
);
}
);
};
layerId = m01;
shapes = (
{
closed = 1;
nodes = (
(231.216,-16.83,o),
(283.392,-15.222,o),
(299.173,25.223,c),
(478.008,460.806,l),
(488,486,o),
(470,516,o),
(441,516,c),
(424.288,516,o),
(409.969,505.751,o),
(403.992,491.194,c),
(224.763,54.622,l),
(278.653,73.094,l),
(107.008,491.194,l),
(101.031,505.751,o),
(86.712,516,o),
(70,516,c),
(41,516,o),
(23,486,o),
(32.992,460.806,c),
(212.415,23.79,l)
);
}
);
width = 511;
},
{
background = {
shapes = (
{
attr = {
lineCapEnd = "1";
lineCapStart = "1";
strokeWidth = 130;
};
closed = 0;
nodes = (
(95,450,l),
(255,62,ls),
(258,56,o),
(263,55,o),
(266,62,cs),
(426,450,l)
);
}
);
};
layerId = m004;
shapes = (
{
closed = 1;
nodes = (
(221.928,-22.462,o),
(300.578,-22.325,o),
(325.918,36.808,c),
(486.099,425.217,l),
(503,466,o),
(474,515,o),
(426,515,c),
(398.878,515,o),
(375.637,498.39,o),
(365.901,474.783,c),
(206.082,87.192,l),
(296.436,132.019,l),
(155.099,474.783,l),
(145.363,498.39,o),
(122.122,515,o),
(95,515,c),
(47,515,o),
(18,466,o),
(34.901,425.217,c),
(195.49,35.811,l)
);
}
);
width = 521;
},
{
background = {
shapes = (
{
attr = {
lineCapEnd = "1";
lineCapStart = "1";
strokeHeight = 45;
strokeWidth = 45;
};
closed = 0;
nodes = (
(52,491,l),
(244,25,ls),
(247,18,o),
(254,16,o),
(257,25,cs),
(449,491,l)
);
}
);
};
layerId = "6E2DD877-F1E1-49A3-9E5D-7A76BAA67C2C";
shapes = (
{
closed = 1;
nodes = (
(234.318,-9.527,o),
(268.12,-10.637,o),
(278.041,17.006,c),
(469.806,482.428,l),
(475.212,495.527,o),
(466.771,513.5,o),
(449,513.5,c),
(439.609,513.5,o),
(431.562,507.747,o),
(428.194,499.572,c),
(235.9,32.853,l),
(264.742,33.717,l),
(72.806,499.572,l),
(69.438,507.747,o),
(61.391,513.5,o),
(52,513.5,c),
(34.229,513.5,o),
(25.788,495.527,o),
(31.194,482.428,c),
(223.258,16.283,l)
);
}
);
width = 501;
}
);
unicode = 118;
},
{
glyphname = w;
lastChange = "2021-06-22 20:29:16 +0000";
layers = (
{
background = {
shapes = (
{
attr = {
lineCapEnd = "1";
lineCapStart = "1";
strokeHeight = 80;
strokeWidth = 80;
};
closed = 0;
nodes = (
(70,475,l),
(215,45,ls),
(216,40,o),
(221,39,o),
(222,45,cs),
(353,464,ls),
(354,471,o),
(358,471,o),
(359,464,cs),
(490,45,ls),
(491,39,o),
(496,40,o),
(497,45,cs),
(641,476,l)
);
}
);
};
layerId = m01;
shapes = (
{
closed = 1;
nodes = (
(191,-9,o),
(247,-9,o),
(260.742,34.869,cs),
(362,359,l),
(350,359,l),
(451.258,34.869,ls),
(465,-9,o),
(521,-9,o),
(535.467,33.906,cs),
(678.944,463.323,ls),
(687,487,o),
(671,516,o),
(641,516,cs),
(623.34,516,o),
(608,505,o),
(603.056,488.677,cs),
(489,148,l),
(500,148,l),
(397.876,473.702,ls),
(383,520,o),
(328,520,o),
(314.124,473.702,cs),
(210,140,l),
(225,140,l),
(107.908,487.783,ls),
(102.58,503.607,o),
(87.621,515,o),
(70,515,cs),
(40,515,o),
(24,486,o),
(32.092,462.217,cs),
(176.553,33.833,ls)
);
}
);
width = 711;
},
{
background = {
shapes = (
{
attr = {
lineCapEnd = "1";
lineCapStart = "1";
strokeHeight = 130;
strokeWidth = 130;
};
closed = 0;
nodes = (
(95,448,l),
(220,74,ls),
(223,65,o),
(230,64,o),
(233,74,cs),
(344,428,ls),
(347,438,o),
(353,439,o),
(356,429,cs),
(467,74,ls),
(470,64,o),
(477,64,o),
(480,74,cs),
(604,449,l)
);
}
);
};
layerId = m004;
shapes = (
{
closed = 1;
nodes = (
(181,-15,o),
(273,-15,o),
(295.141,54.937,cs),
(361,265,l),
(339,265,l),
(404.852,54.962,ls),
(427,-16,o),
(519,-16,o),
(541.913,54.197,cs),
(665.722,428.591,ls),
(678,465,o),
(654,514,o),
(604,514,cs),
(575.232,514,o),
(551,495,o),
(542.278,469.409,cs),
(460,222,l),
(489,222,l),
(418.148,448.038,ls),
(396,519,o),
(304,518,o),
(281.859,447.063,cs),
(210,217,l),
(241,217,l),
(156.656,468.607,ls),
(148,494,o),
(123.695,513,o),
(95,513,cs),
(45,513,o),
(21,464,o),
(33.344,427.393,cs),
(158.344,53.42,ls)
);
}
);
width = 699;
},
{
background = {
shapes = (
{
attr = {
lineCapEnd = "1";
lineCapStart = "1";
strokeHeight = 45;
strokeWidth = 45;
};
closed = 0;
nodes = (
(52,489,l),
(208,24,ls),
(209,19,o),
(214,18,o),
(215,24,cs),
(356,478,ls),
(358,484,o),
(363,484,o),
(364,478,cs),
(505,24,ls),
(506,18,o),
(511,19,o),
(512,24,cs),
(667,490,l)
);
}
);
};
layerId = "6E2DD877-F1E1-49A3-9E5D-7A76BAA67C2C";
shapes = (
{
closed = 1;
nodes = (
(195,-9,o),
(228,-9,o),
(236.828,18.423,cs),
(365,432,l),
(355,432,l),
(483.172,18.423,ls),
(492,-9,o),
(525,-9,o),
(533.67,17.86,cs),
(688.353,482.898,ls),
(692.604,495.677,o),
(684.068,512.5,o),
(667,512.5,cs),
(657.056,512.5,o),
(648.618,506.049,o),
(645.647,497.102,cs),
(503,69,l),
(515,69,l),
(385.828,483.577,ls),
(378,510,o),
(343,513,o),
(334.584,484.894,cs),
(206,71,l),
(216,71,l),
(73.334,496.157,ls),
(70.347,505.075,o),
(61.924,511.5,o),
(52,511.5,cs),
(34.921,511.5,o),
(26.377,494.621,o),
(30.666,481.843,cs),
(186.34,17.824,ls)
);
}
);
width = 719;
}
);
metricLeft = v;
metricRight = v;
unicode = 119;
},
{
glyphname = x;
lastChange = "2021-06-22 20:22:15 +0000";
layers = (
{
background = {
shapes = (
{
attr = {
lineCapEnd = "1";
lineCapStart = "1";
strokeHeight = 80;
strokeWidth = 80;
};
closed = 0;
nodes = (
(87,475,l),
(407,40,l)
);
},
{
attr = {
lineCapEnd = "1";
lineCapStart = "1";
strokeHeight = 80;
strokeWidth = 80;
};
closed = 0;
nodes = (
(407,475,l),
(70,40,l)
);
}
);
};
layerId = m01;
shapes = (
{
closed = 1;
nodes = (
(119.222,498.703,l),
(111.94,508.588,o),
(100.219,515,o),
(87,515,c),
(64.908,515,o),
(47,497.092,o),
(47,475,c),
(47,466.127,o),
(49.889,457.93,o),
(54.778,451.297,c),
(374.778,16.297,l),
(382.06,6.412,o),
(393.781,0,o),
(407,0,c),
(429.092,0,o),
(447,17.908,o),
(447,40,c),
(447,48.873,o),
(444.111,57.07,o),
(439.222,63.703,c)
);
},
{
closed = 1;
nodes = (
(438.622,450.502,l),
(443.874,457.27,o),
(447,465.77,o),
(447,475,c),
(447,497.092,o),
(429.092,515,o),
(407,515,c),
(394.138,515,o),
(382.695,508.93,o),
(375.378,499.498,c),
(38.378,64.498,l),
(33.126,57.73,o),
(30,49.23,o),
(30,40,c),
(30,17.908,o),
(47.908,0,o),
(70,0,c),
(82.862,0,o),
(94.305,6.07,o),
(101.622,15.502,c)
);
}
);
width = 477;
},
{
background = {
shapes = (
{
attr = {
lineCapEnd = "1";
lineCapStart = "1";
strokeHeight = 130;
strokeWidth = 130;
};
closed = 0;
nodes = (
(110,450,l),
(394,65,l)
);
},
{
attr = {
lineCapEnd = "1";
lineCapStart = "1";
strokeHeight = 130;
strokeWidth = 130;
};
closed = 0;
nodes = (
(394,450,l),
(95,65,l)
);
},
{
closed = 1;
nodes = (
(162.31,488.587,l),
(150.473,504.61,o),
(131.45,515,o),
(110,515,c),
(74.101,515,o),
(45,485.899,o),
(45,450,c),
(45,435.551,o),
(49.714,422.204,o),
(57.69,411.413,c),
(341.69,26.413,l),
(353.527,10.39,o),
(372.55,0,o),
(394,0,c),
(429.899,0,o),
(459,29.101,o),
(459,65,c),
(459,79.449,o),
(454.286,92.796,o),
(446.31,103.587,c)
);
},
{
closed = 1;
nodes = (
(445.338,410.13,l),
(453.901,421.138,o),
(459,434.973,o),
(459,450,c),
(459,485.899,o),
(429.899,515,o),
(394,515,c),
(373.128,515,o),
(354.554,505.163,o),
(342.662,489.87,c),
(43.662,104.87,l),
(35.099,93.862,o),
(30,80.027,o),
(30,65,c),
(30,29.101,o),
(59.101,0,o),
(95,0,c),
(115.872,0,o),
(134.446,9.837,o),
(146.338,25.13,c)
);
}
);
};
layerId = m004;
shapes = (
{
closed = 1;
nodes = (
(162.31,488.587,l),
(150.473,504.61,o),
(131.45,515,o),
(110,515,c),
(74.101,515,o),
(45,485.899,o),
(45,450,c),
(45,435.551,o),
(49.714,422.204,o),
(57.69,411.413,c),
(341.69,26.413,l),
(353.527,10.39,o),
(372.55,0,o),
(394,0,c),
(429.899,0,o),
(459,29.101,o),
(459,65,c),
(459,79.449,o),
(454.286,92.796,o),
(446.31,103.587,c)
);
},
{
closed = 1;
nodes = (
(445.338,410.13,l),
(453.901,421.138,o),
(459,434.973,o),
(459,450,c),
(459,485.899,o),
(429.899,515,o),
(394,515,c),
(373.128,515,o),
(354.554,505.163,o),
(342.662,489.87,c),
(43.662,104.87,l),
(35.099,93.862,o),
(30,80.027,o),
(30,65,c),
(30,29.101,o),
(59.101,0,o),
(95,0,c),
(115.872,0,o),
(134.446,9.837,o),
(146.338,25.13,c)
);
}
);
width = 489;
},
{
background = {
shapes = (
{
attr = {
lineCapEnd = "1";
lineCapStart = "1";
strokeHeight = 45;
strokeWidth = 45;
};
closed = 0;
nodes = (
(72,492,l),
(417,23,l)
);
},
{
attr = {
lineCapEnd = "1";
lineCapStart = "1";
strokeHeight = 45;
strokeWidth = 45;
};
closed = 0;
nodes = (
(417,492,l),
(52,23,l)
);
}
);
};
layerId = "6E2DD877-F1E1-49A3-9E5D-7A76BAA67C2C";
shapes = (
{
closed = 1;
nodes = (
(90.125,505.333,l),
(86.029,510.893,o),
(79.436,514.5,o),
(72,514.5,c),
(59.573,514.5,o),
(49.5,504.427,o),
(49.5,492,c),
(49.5,487.009,o),
(51.125,482.398,o),
(53.875,478.667,c),
(398.875,9.667,l),
(402.971,4.107,o),
(409.564,0.5,o),
(417,0.5,c),
(429.427,0.5,o),
(439.5,10.573,o),
(439.5,23,c),
(439.5,27.991,o),
(437.875,32.602,o),
(435.125,36.333,c)
);
},
{
closed = 1;
nodes = (
(434.757,478.181,l),
(437.729,481.994,o),
(439.5,486.79,o),
(439.5,492,c),
(439.5,504.427,o),
(429.427,514.5,o),
(417,514.5,c),
(409.783,514.5,o),
(403.36,511.102,o),
(399.243,505.819,c),
(34.243,36.819,l),
(31.271,33.006,o),
(29.5,28.21,o),
(29.5,23,c),
(29.5,10.573,o),
(39.573,0.5,o),
(52,0.5,c),
(59.217,0.5,o),
(65.64,3.898,o),
(69.757,9.181,c)
);
}
);
width = 470;
}
);
unicode = 120;
},
{
glyphname = y;
lastChange = "2021-06-22 20:30:41 +0000";
layers = (
{
background = {
shapes = (
{
attr = {
lineCapEnd = "1";
lineCapStart = "1";
strokeHeight = 80;
strokeWidth = 80;
};
closed = 0;
nodes = (
(70,474,l),
(241,25,l)
);
},
{
attr = {
lineCapEnd = "1";
lineCapStart = "1";
strokeHeight = 80;
strokeWidth = 80;
};
closed = 0;
nodes = (
(411,474,l),
(189,-110,l),
(189,-110,o),
(181,-140,o),
(141,-140,c)
);
}
);
};
layerId = m01;
shapes = (
{
closed = 1;
nodes = (
(248,118,l),
(107.386,488.238,l),
(101.652,503.301,o),
(87.076,514,o),
(70,514,c),
(41,514,o),
(23,485,o),
(32.614,459.762,c),
(203,13,l)
);
},
{
closed = 1;
nodes = (
(185.863,-180,o),
(216.061,-154.006,o),
(226.632,-123.576,c),
(448.395,459.785,l),
(458,485,o),
(440,514,o),
(411,514,c),
(393.916,514,o),
(379.333,503.29,o),
(373.605,488.215,c),
(150.48,-98.761,l),
(149.71,-100,o),
(148.117,-100,o),
(141,-100,c),
(118.908,-100,o),
(101,-117.908,o),
(101,-140,c),
(101,-162.092,o),
(118.908,-180,o),
(141,-180,c)
);
}
);
width = 481;
},
{
background = {
shapes = (
{
attr = {
lineCapEnd = "1";
lineCapStart = "1";
strokeHeight = 130;
strokeWidth = 130;
};
closed = 0;
nodes = (
(95,449,l),
(252,36,l)
);
},
{
attr = {
lineCapEnd = "1";
lineCapStart = "1";
strokeHeight = 130;
strokeWidth = 130;
};
closed = 0;
nodes = (
(408,449,l),
(204,-88,l),
(204,-88,o),
(197,-115,o),
(160,-115,c)
);
}
);
};
layerId = m004;
shapes = (
{
closed = 1;
nodes = (
(266,182,l),
(155.766,472.1,l),
(146.459,496.596,o),
(122.762,514,o),
(95,514,c),
(46,514,o),
(20,464,o),
(34.234,425.9,c),
(190,15,l)
);
},
{
closed = 1;
nodes = (
(209.512,-180,o),
(250.34,-152.643,o),
(265.169,-110.016,c),
(468.771,425.914,l),
(483,464,o),
(458,514,o),
(408,514,c),
(380.233,514,o),
(356.533,496.589,o),
(347.229,472.086,c),
(142.702,-66.324,l),
(144.481,-60.898,o),
(154.649,-50,o),
(160,-50,c),
(124.101,-50,o),
(95,-79.101,o),
(95,-115,c),
(95,-150.899,o),
(124.101,-180,o),
(160,-180,c)
);
}
);
width = 503;
},
{
background = {
shapes = (
{
attr = {
lineCapEnd = "1";
lineCapStart = "1";
strokeHeight = 45;
strokeWidth = 45;
};
closed = 0;
nodes = (
(52,492,l),
(233,17,l)
);
},
{
attr = {
lineCapEnd = "1";
lineCapStart = "1";
strokeHeight = 45;
strokeWidth = 45;
};
closed = 0;
nodes = (
(413,492,l),
(178,-127,l),
(178,-127,o),
(169,-158,o),
(127,-158,c)
);
}
);
};
layerId = "6E2DD877-F1E1-49A3-9E5D-7A76BAA67C2C";
shapes = (
{
closed = 1;
nodes = (
(241,59,l),
(73.028,500.013,l),
(69.802,508.483,o),
(61.604,514.5,o),
(52,514.5,c),
(34.545,514.5,o),
(26.033,496.932,o),
(30.972,483.987,c),
(212,9,l)
);
},
{
closed = 1;
nodes = (
(168.246,-180.5,o),
(191.298,-156.606,o),
(199.109,-134.785,c),
(434.038,484.013,l),
(438.959,496.959,o),
(430.449,514.5,o),
(413,514.5,c),
(403.387,514.5,o),
(395.181,508.471,o),
(391.962,499.987,c),
(156.891,-119.215,l),
(153.082,-129.845,o),
(147.421,-135.5,o),
(127,-135.5,c),
(114.573,-135.5,o),
(104.5,-145.573,o),
(104.5,-158,c),
(104.5,-170.427,o),
(114.573,-180.5,o),
(127,-180.5,c)
);
}
);
width = 465;
}
);
metricLeft = v;
metricRight = v;
unicode = 121;
},
{
glyphname = z;
lastChange = "2021-06-22 20:24:43 +0000";
layers = (
{
background = {
shapes = (
{
attr = {
lineCapEnd = "1";
lineCapStart = "1";
strokeHeight = 80;
strokeWidth = 80;
};
closed = 0;
nodes = (
(102,475,l),
(384,474,ls),
(388,474,o),
(389,471,o),
(387,468,cs),
(91,47,ls),
(89,44,o),
(90,41,o),
(93,41,cs),
(396,41,l)
);
}
);
};
layerId = m01;
shapes = (
{
closed = 1;
nodes = (
(93,81,l),
(78,81,o),
(115.626,11.827,o),
(124.002,24.403,c),
(420.002,445.403,l),
(440.032,475.438,o),
(420,514,o),
(384.071,514,c),
(102.071,515,l),
(79.908,515,o),
(62,497.092,o),
(62,475,c),
(62,452.908,o),
(79.908,435,o),
(101.929,435,c),
(383.929,434,l),
(398,434,o),
(361.265,501.509,o),
(353.998,490.597,c),
(57.998,69.597,l),
(38.3,40.062,o),
(57.4,1,o),
(93,1,c),
(396,1,l),
(418.092,1,o),
(436,18.908,o),
(436,41,c),
(436,63.092,o),
(418.092,81,o),
(396,81,c)
);
}
);
width = 486;
},
{
background = {
shapes = (
{
attr = {
lineCapEnd = "1";
lineCapStart = "1";
strokeHeight = 130;
strokeWidth = 130;
};
closed = 0;
nodes = (
(122,450,l),
(364,449,ls),
(372,449,o),
(375,443,o),
(370,437,cs),
(118,78,ls),
(113,72,o),
(116,66,o),
(124,66,cs),
(383,66,l)
);
}
);
};
layerId = m004;
shapes = (
{
closed = 1;
nodes = (
(124,131,l),
(139.047,131,o),
(164.242,118.966,o),
(203.46,86.611,c),
(422.218,398.255,l),
(458.832,446.376,o),
(425.763,514,o),
(364.134,514,c),
(122.134,515,l),
(86.101,515,o),
(57,485.899,o),
(57,450,c),
(57,414.101,o),
(86.101,385,o),
(121.866,385,c),
(363.866,384,l),
(348.802,384,o),
(323.611,395.996,o),
(284.432,428.235,c),
(65.782,116.745,l),
(29.168,68.624,o),
(62.237,1,o),
(124,1,c),
(383,1,l),
(418.899,1,o),
(448,30.101,o),
(448,66,c),
(448,101.899,o),
(418.899,131,o),
(383,131,c)
);
}
);
width = 498;
},
{
background = {
shapes = (
{
attr = {
lineCapEnd = "1";
lineCapStart = "1";
strokeHeight = 45;
strokeWidth = 45;
};
closed = 0;
nodes = (
(86,493,l),
(392,492,ls),
(396,492,o),
(397,489,o),
(395,486,cs),
(74,29,ls),
(72,26,o),
(73,23,o),
(77,23,cs),
(405,23,l)
);
}
);
};
layerId = "6E2DD877-F1E1-49A3-9E5D-7A76BAA67C2C";
shapes = (
{
closed = 1;
nodes = (
(77,45.5,l),
(71,45.5,o),
(89.612,11.855,o),
(92.567,16.293,c),
(413.567,473.293,l),
(425.706,491.496,o),
(414,514.5,o),
(392.037,514.5,c),
(86.037,515.5,l),
(73.573,515.5,o),
(63.5,505.427,o),
(63.5,493,c),
(63.5,480.573,o),
(73.573,470.5,o),
(85.963,470.5,c),
(391.963,469.5,l),
(398,469.5,o),
(379.388,503.145,o),
(376.433,498.707,c),
(55.433,41.707,l),
(43.294,23.504,o),
(55,0.5,o),
(77,0.5,c),
(405,0.5,l),
(417.427,0.5,o),
(427.5,10.573,o),
(427.5,23,c),
(427.5,35.427,o),
(417.427,45.5,o),
(405,45.5,c)
);
}
);
width = 478;
}
);
unicode = 122;
},
{
color = 3;
export = 0;
glyphname = g.001;
lastChange = "2021-06-23 19:17:10 +0000";
layers = (
{
background = {
shapes = (
{
attr = {
strokeHeight = 80;
strokeWidth = 80;
};
closed = 1;
nodes = (
(411,104,o),
(335,30,o),
(249,30,c),
(151,30,o),
(70,131,o),
(70,258,c),
(70,384,o),
(151,485,o),
(249,485,c),
(335,485,o),
(409,420,o),
(430,318,c),
(430,203,l)
);
},
{
attr = {
lineCapEnd = "1";
lineCapStart = "1";
strokeHeight = 80;
strokeWidth = 80;
};
closed = 0;
nodes = (
(430,476,l),
(430,43,l)
);
},
{
attr = {
lineCapEnd = "1";
lineCapStart = "1";
strokeHeight = 80;
strokeWidth = 80;
};
closed = 0;
nodes = (
(430,43,l),
(430,-59,o),
(347,-140,o),
(231,-140,c),
(154,-140,o),
(113,-97,o),
(113,-76,c)
);
}
);
};
layerId = m01;
shapes = (
{
closed = 1;
nodes = (
(369,-180,o),
(470,-81,o),
(470,43,cs),
(470,476,ls),
(470,498,o),
(452.092,516,o),
(430,516,cs),
(407.908,516,o),
(390,498.092,o),
(390,476,cs),
(390,43,ls),
(390,-42.145,o),
(330.716,-100,o),
(231,-100,cs),
(171.129,-100,o),
(153,-80.987,o),
(153,-76,cs),
(153,-53.908,o),
(135.092,-36,o),
(113,-36,cs),
(90.908,-36,o),
(73,-53.908,o),
(73,-76,cs),
(73,-119.6,o),
(129.271,-180,o),
(231,-180,cs)
);
},
{
closed = 1;
nodes = (
(95,374,o),
(169,442,o),
(236,442,cs),
(317,442,o),
(390,384,o),
(390,263,cs),
(390,128,o),
(313,73,o),
(236,73,cs),
(149,73,o),
(95,154,o),
(95,263,cs)
);
},
{
closed = 1;
nodes = (
(15,121,o),
(92,-7,o),
(236,-7,cs),
(336,-7,o),
(470,72,o),
(470,263,cs),
(470,428,o),
(351,522,o),
(236,522,cs),
(125,522,o),
(15,419,o),
(15,263,cs)
);
}
);
width = 520;
},
{
layerId = m004;
shapes = (
{
closed = 1;
nodes = (
(363.264,-179,o),
(478,-80.263,o),
(478,68,cs),
(478,451,ls),
(478,486.899,o),
(448.899,516,o),
(413,516,cs),
(377.101,516,o),
(348,487,o),
(348,451,cs),
(348,68,ls),
(348,-12,o),
(305.736,-49,o),
(247,-49,cs),
(217,-49,o),
(197,-49,o),
(195.459,-43.898,cs),
(187,-15,o),
(163.056,7,o),
(132,7,cs),
(87.87,7,o),
(60.125,-34.093,o),
(68.541,-72.102,cs),
(79,-120,o),
(127,-179,o),
(247,-179,cs)
);
},
{
closed = 1;
nodes = (
(365.524,-9,o),
(457.915,85.644,o),
(478,204.18,c),
(354,217,l),
(340,152,o),
(300.922,121,o),
(252,121,cs),
(196.79,121,o),
(160,168.302,o),
(160,259,cs),
(160,348.501,o),
(196.572,395,o),
(252,395,cs),
(302.635,395,o),
(340,369,o),
(355,304,c),
(478,317,l),
(455.126,440.719,o),
(363.698,525,o),
(252,525,cs),
(124.628,525,o),
(30,402.299,o),
(30,259,cs),
(30,113,o),
(126,-9,o),
(252,-9,cs)
);
}
);
width = 528;
},
{
background = {
shapes = (
{
attr = {
strokeHeight = 45;
strokeWidth = 45;
};
closed = 1;
nodes = (
(417,93,o),
(336,14,o),
(244,14,c),
(138,14,o),
(52,123,o),
(52,257,c),
(52,393,o),
(138,502,o),
(244,502,c),
(335,502,o),
(415,432,o),
(438,322,c),
(438,200,l)
);
},
{
attr = {
lineCapEnd = "1";
lineCapStart = "1";
strokeHeight = 45;
strokeWidth = 45;
};
closed = 0;
nodes = (
(438,492,l),
(438,28,l)
);
},
{
attr = {
lineCapEnd = "1";
lineCapStart = "1";
strokeHeight = 45;
strokeWidth = 45;
};
closed = 0;
nodes = (
(438,28,l),
(438,-70,o),
(349,-157,o),
(224,-157,c),
(142,-157,o),
(98,-111,o),
(98,-88,c)
);
}
);
};
layerId = "6E2DD877-F1E1-49A3-9E5D-7A76BAA67C2C";
shapes = (
{
closed = 1;
nodes = (
(361,-180,o),
(461,-82,o),
(461,28,cs),
(461,492,ls),
(461,504,o),
(450,515,o),
(438,515,cs),
(426,515,o),
(416,504,o),
(416,492,cs),
(416,28,ls),
(416,-61,o),
(340,-135,o),
(224,-135,cs),
(152,-135,o),
(121,-102,o),
(121,-88,cs),
(121,-76,o),
(110,-66,o),
(98,-66,cs),
(86,-66,o),
(76,-76,o),
(76,-88,cs),
(76,-124,o),
(129,-180,o),
(224,-180,cs)
);
},
{
closed = 1;
nodes = (
(348,-9,o),
(438,80,o),
(460,198,c),
(416,202,l),
(395,103,o),
(326,37,o),
(244,37,cs),
(149,37,o),
(75,131,o),
(75,257,cs),
(75,385,o),
(149,480,o),
(244,480,cs),
(326,480,o),
(394,421,o),
(416,320,c),
(461,324,l),
(436,446,o),
(347,525,o),
(244,525,cs),
(124,525,o),
(30,404,o),
(30,257,cs),
(30,112,o),
(124,-9,o),
(244,-9,cs)
);
}
);
width = 508;
}
);
metricLeft = o;
metricRight = i;
},
{
glyphname = zero;
lastChange = "2021-06-23 18:19:19 +0000";
layers = (
{
background = {
shapes = (
{
attr = {
lineCapEnd = "1";
lineCapStart = "1";
strokeHeight = 80;
strokeWidth = 80;
};
closed = 0;
nodes = (
(306,355,l),
(380,390,o),
(445,443,o),
(445,522,cs),
(445,602,o),
(373,666,o),
(280,666,cs),
(203,666,o),
(107,607,o),
(107,505,cs),
(107,427,o),
(184,390,o),
(275,364,cs),
(368,337,o),
(468,326,o),
(468,200,cs),
(468,106,o),
(382,34,o),
(292,34,cs),
(175,34,o),
(90,92,o),
(90,211,cs),
(90,325,o),
(165,354,o),
(220,381,cs)
);
}
);
};
backgroundImage = {
imagePath = "/Users/benhoepner/Documents/Work/Google-Fonts/National-Park/National Park NOT GITHUB/Photos/2.8.png";
locked = 1;
pos = (-808,-99);
scale = (1.3042,1.3042);
};
layerId = m01;
shapes = (
{
closed = 1;
nodes = (
(141,384,l),
(95,355,o),
(50,307,o),
(50,211,cs),
(50,66.669,o),
(156.653,-6,o),
(282,-6,cs),
(402.734,-6,o),
(508,82.921,o),
(508,200,cs),
(508,361.841,o),
(376,377,o),
(286.071,402.437,cs),
(198,428,o),
(147,452.158,o),
(147,525,cs),
(147,584.633,o),
(214.309,626,o),
(280,626,cs),
(355,626,o),
(405,576,o),
(405,522,cs),
(405,464,o),
(362,427,o),
(307,395,c),
(397,363,l),
(447,401,o),
(485,453,o),
(485,522,cs),
(485,625.563,o),
(393.808,706,o),
(280,706,cs),
(177,706,o),
(67,636,o),
(67,525,cs),
(67,399.242,o),
(167,353,o),
(263.929,325.563,cs),
(360,298,o),
(428,292.959,o),
(428,200,cs),
(428,124.679,o),
(367.466,74,o),
(282,74,cs),
(197,74,o),
(130,115,o),
(130,211,cs),
(130,294,o),
(176,315,o),
(223,341,c)
);
}
);
width = 558;
},
{
background = {
shapes = (
{
attr = {
lineCapEnd = "1";
lineCapStart = "1";
strokeHeight = 130;
strokeWidth = 130;
};
closed = 0;
nodes = (
(317,351,l),
(386,384,o),
(446,432,o),
(446,507,cs),
(446,580,o),
(379,641,o),
(292,641,cs),
(220,641,o),
(131,585,o),
(131,491,cs),
(131,418,o),
(203,384,o),
(287,359,cs),
(373,335,o),
(467,323,o),
(467,207,cs),
(467,118,o),
(387,51,o),
(302,51,cs),
(194,51,o),
(115,106,o),
(115,216,cs),
(115,322,o),
(185,350,o),
(235,376,cs)
);
}
);
};
backgroundImage = {
imagePath = "/Users/benhoepner/Documents/Work/Google-Fonts/National-Park/National Park NOT GITHUB/Photos/2.8.png";
locked = 1;
pos = (-796,-99);
scale = (1.3042,1.3042);
};
layerId = m004;
shapes = (
{
closed = 1;
nodes = (
(122,382,l),
(81,348,o),
(50,299,o),
(50,216,cs),
(50,63.852,o),
(165.402,-14,o),
(296,-14,cs),
(419.823,-14,o),
(532,79.253,o),
(532,207,cs),
(532,362.751,o),
(417,389,o),
(305.01,421.458,cs),
(226,444,o),
(196,459.26,o),
(196,511,cs),
(196,549.102,o),
(238.748,576,o),
(292,576,cs),
(353.843,576,o),
(381,551.275,o),
(381,507,cs),
(381,466,o),
(355,442,o),
(300,415,c),
(444,358,l),
(485,397,o),
(511,446,o),
(511,507,cs),
(511,624,o),
(424,706,o),
(292,706,cs),
(175,706,o),
(66,636,o),
(66,491,cs),
(66,383.831,o),
(155,330,o),
(268.996,296.541,cs),
(360,270,o),
(402,269.893,o),
(402,207,cs),
(402,155,o),
(353,116,o),
(286,116,cs),
(228,116,o),
(180,155,o),
(180,216,cs),
(180,272,o),
(205,287,o),
(248,309,c)
);
}
);
width = 582;
},
{
background = {
shapes = (
{
attr = {
lineCapEnd = "1";
lineCapStart = "1";
strokeHeight = 45;
strokeWidth = 45;
};
closed = 0;
nodes = (
(288,360,l),
(378,393,o),
(446,448,o),
(446,532,cs),
(446,616,o),
(370,684,o),
(272,684,cs),
(191,684,o),
(90,621,o),
(90,514,cs),
(90,432,o),
(171,393,o),
(267,365,cs),
(364,337,o),
(470,316,o),
(470,193,cs),
(470,93,o),
(380,17,o),
(284,17,cs),
(161,17,o),
(72,79,o),
(72,204,cs),
(72,315,o),
(151,355,o),
(229,375,cs)
);
}
);
};
backgroundImage = {
imagePath = "/Users/benhoepner/Documents/Work/Google-Fonts/National-Park/National Park NOT GITHUB/Photos/2.8.png";
locked = 1;
pos = (-816,-99);
scale = (1.3042,1.3042);
};
layerId = "6E2DD877-F1E1-49A3-9E5D-7A76BAA67C2C";
shapes = (
{
closed = 1;
nodes = (
(173,380,l),
(108,354,o),
(50,294,o),
(49.5,204,cs),
(49,59,o),
(145,-6,o),
(268,-6,cs),
(391.229,-5.5,o),
(492.5,79.551,o),
(492.5,193,cs),
(492.5,334.48,o),
(369,359,o),
(273.27,386.609,cs),
(179,414,o),
(113,456,o),
(113,524,cs),
(112,619,o),
(197,662,o),
(272,661.5,cs),
(361,661,o),
(423,606,o),
(423.5,532,cs),
(424,460,o),
(368,414,o),
(283,382,c),
(349,362,l),
(418,399,o),
(469,454,o),
(468.5,532,cs),
(468,629,o),
(381.596,706.5,o),
(272,706.5,cs),
(181.758,706.5,o),
(68,646,o),
(68,524,cs),
(68,426,o),
(161,372,o),
(260.73,343.391,cs),
(359,315,o),
(447,298,o),
(447.5,193,cs),
(448,103,o),
(372,40,o),
(268,39,cs),
(168,39,o),
(95,91,o),
(94.5,204,cs),
(94,291,o),
(159,334,o),
(235,353,c)
);
}
);
width = 543;
}
);
unicode = 48;
},
{
glyphname = five;
lastChange = "2021-06-03 18:51:09 +0000";
layers = (
{
background = {
shapes = (
{
attr = {
lineCapEnd = "1";
lineCapStart = "1";
strokeHeight = 80;
strokeWidth = 80;
};
closed = 0;
nodes = (
(437,660,l),
(143,660,l),
(128,391,l),
(146,386,l),
(192,429,o),
(228,460,o),
(296,460,cs),
(373,460,o),
(487,404,o),
(487,266,cs),
(487,108,o),
(362,34,o),
(276,34,cs),
(189,34,o),
(80,117,o),
(70,229,cs)
);
}
);
};
backgroundImage = {
imagePath = "/Users/benhoepner/Documents/Work/Google-Fonts/National-Park/National Park NOT GITHUB/RockyMountain_rubbings/0.5.jpeg";
locked = 1;
pos = (-983,-150);
scale = (7.7792,7.7792);
};
layerId = m01;
shapes = (
{
closed = 1;
nodes = (
(62,91,o),
(161,-6,o),
(286,-6,cs),
(412,-6,o),
(527,84,o),
(527,266,cs),
(527,432,o),
(397,500,o),
(306,500,cs),
(232,500,o),
(177,468,o),
(135,430,c),
(170,421,l),
(181,620,l),
(437,620,ls),
(459,620,o),
(477,638,o),
(477,660,cs),
(477,682,o),
(459,700,o),
(437,700,cs),
(164,700,ls),
(126,700,o),
(104,681,o),
(102,642,cs),
(88,388,ls),
(87,369,o),
(95,359,o),
(112,354,cs),
(134,348,ls),
(150,344,o),
(162,346,o),
(175,358,cs),
(219,400,o),
(243,420,o),
(296,420,cs),
(364,420,o),
(447,379,o),
(447,266,cs),
(447,136,o),
(376,74,o),
(286,74,cs),
(202,74,o),
(138,139,o),
(130,233,cs),
(128,253,o),
(111,269,o),
(90,269,cs),
(66,269,o),
(48,248,o),
(50,225,cs)
);
}
);
width = 577;
},
{
background = {
shapes = (
{
attr = {
lineCapEnd = "1";
lineCapStart = "1";
strokeHeight = 130;
strokeWidth = 130;
};
closed = 0;
nodes = (
(443,635,l),
(172,635,l),
(159,417,l),
(169,409,l),
(212,434,o),
(245,452,o),
(315,452,cs),
(386,452,o),
(490,399,o),
(490,273,cs),
(490,126,o),
(374,58,o),
(295,58,cs),
(215,58,o),
(114,134,o),
(105,217,cs)
);
}
);
};
backgroundImage = {
imagePath = "/Users/benhoepner/Documents/Work/Google-Fonts/National-Park/National Park NOT GITHUB/RockyMountain_rubbings/0.5.jpeg";
locked = 1;
pos = (-964,-150);
scale = (7.7792,7.7792);
};
layerId = m004;
shapes = (
{
closed = 1;
nodes = (
(63,91,o),
(165,-7,o),
(305,-7,cs),
(417,-7,o),
(555,87,o),
(555,273,cs),
(555,444,o),
(411,517,o),
(315,517,cs),
(227,517,o),
(181,491,o),
(175,488,c),
(226,447,l),
(233,570,l),
(443,570,ls),
(479,570,o),
(508,599,o),
(508,635,cs),
(508,671,o),
(479,700,o),
(443,700,cs),
(188,700,ls),
(125,700,o),
(112,684,o),
(108,621,cs),
(95,426,ls),
(93,400,o),
(100,379,o),
(122,363,cs),
(130,357,ls),
(153,340,o),
(175,337,o),
(201,352,cs),
(244,377,o),
(261,387,o),
(315,387,cs),
(367,387,o),
(425,347,o),
(425,273,cs),
(425,171,o),
(357,123,o),
(305,123,cs),
(237,123,o),
(186,169,o),
(180,224,cs),
(176,257,o),
(149,282,o),
(115,282,cs),
(73,282,o),
(47,245,o),
(50,210,cs)
);
}
);
width = 605;
},
{
background = {
shapes = (
{
attr = {
lineCapEnd = "1";
lineCapStart = "1";
strokeHeight = 45;
strokeWidth = 45;
};
closed = 0;
nodes = (
(427,677,l),
(116,677,l),
(101,393,l),
(119,388,l),
(168,433,o),
(207,466,o),
(279,466,cs),
(360,466,o),
(480,407,o),
(480,261,cs),
(480,94,o),
(347,16,o),
(257,16,cs),
(165,16,o),
(50,103,o),
(39,221,cs)
);
}
);
};
backgroundImage = {
imagePath = "/Users/benhoepner/Documents/Work/Google-Fonts/National-Park/National Park NOT GITHUB/RockyMountain_rubbings/0.5.jpeg";
locked = 1;
pos = (-1002,-150);
scale = (7.7792,7.7792);
};
layerId = "6E2DD877-F1E1-49A3-9E5D-7A76BAA67C2C";
shapes = (
{
closed = 1;
nodes = (
(61,89,o),
(157,-7,o),
(277,-7,cs),
(367,-7,o),
(503,69,o),
(503,251,cs),
(503,413,o),
(379,489,o),
(281,489,cs),
(214,489,o),
(139,455,o),
(113,423,c),
(124,420,l),
(137,655,l),
(427,655,ls),
(439,655,o),
(450,665,o),
(450,677,cs),
(450,689,o),
(439,700,o),
(427,700,cs),
(114,700,ls),
(102,700,o),
(95,692,o),
(94,680,cs),
(78,395,ls),
(78,389,o),
(81,386,o),
(86,384,cs),
(117,375,ls),
(123,373,o),
(128,374,o),
(131,378,cs),
(161,415,o),
(224,444,o),
(280,444,cs),
(362,444,o),
(458,380,o),
(458,251,cs),
(458,95,o),
(347,39,o),
(277,39,cs),
(176,39,o),
(104,114,o),
(94,223,cs),
(93,234,o),
(84,244,o),
(72,244,cs),
(59,244,o),
(48,232,o),
(50,219,cs)
);
}
);
width = 553;
}
);
unicode = 53;
},
